<svg preserveAspectRatio="none" width="100%" height="100%" overflow="visible" style="display: block;" viewBox="0 0 24 24" fill="none" xmlns="http://www.w3.org/2000/svg">
<g id="FlashcardsIcon 1">
<path id="Vector" d="M3.99616 19.1856L3.14779 18.8363C2.63212 18.6201 2.28695 18.2458 2.11228 17.7135C1.93762 17.1812 1.96673 16.6572 2.19962 16.1415L3.99616 12.249V19.1856ZM7.98848 21.3814C7.43954 21.3814 6.96961 21.186 6.57869 20.7951C6.18778 20.4042 5.99232 19.9343 5.99232 19.3853V13.3968L8.63724 20.7327C8.68714 20.8491 8.73705 20.9614 8.78695 21.0696C8.83685 21.1776 8.90339 21.2816 8.98656 21.3814H7.98848ZM13.1286 21.2816C12.5963 21.4813 12.0806 21.4563 11.5815 21.2068C11.0825 20.9573 10.7332 20.5663 10.5336 20.034L6.09213 7.85745C5.89252 7.32514 5.90915 6.80531 6.14203 6.29795C6.37492 5.7906 6.75752 5.44542 7.28983 5.26244L14.8253 2.51772C15.3576 2.3181 15.8733 2.34306 16.3724 2.59258C16.8714 2.8421 17.2207 3.23301 17.4203 3.76532L21.8618 15.9419C22.0614 16.4742 22.0448 16.994 21.8119 17.5014C21.579 18.0088 21.1964 18.354 20.6641 18.537L13.1286 21.2816ZM10.9827 9.40447C11.2655 9.40447 11.5025 9.30883 11.6938 9.11753C11.8852 8.92623 11.9808 8.68918 11.9808 8.4064C11.9808 8.12361 11.8852 7.88656 11.6938 7.69527C11.5025 7.50397 11.2655 7.40831 10.9827 7.40831C10.6999 7.40831 10.4629 7.50397 10.2716 7.69527C10.0803 7.88656 9.98462 8.12361 9.98462 8.4064C9.98462 8.68918 10.0803 8.92623 10.2716 9.11753C10.4629 9.30883 10.6999 9.40447 10.9827 9.40447Z" fill="var(--fill-0, #007AFF)"/>
</g>
</svg>
