<svg preserveAspectRatio="none" width="100%" height="100%" overflow="visible" style="display: block;" viewBox="0 0 23 24" fill="none" xmlns="http://www.w3.org/2000/svg">
<g id="Frame 2147226007">
<path id="podcasts" d="M11.5 10.5C12.0492 10.5 12.5214 10.6972 12.9121 11.0879C13.3028 11.4786 13.5 11.9508 13.5 12.5C13.5 12.8808 13.4083 13.2243 13.2236 13.5264C13.0514 13.8081 12.8262 14.0309 12.5498 14.1953V21.0498C12.5498 21.3441 12.4497 21.5961 12.248 21.7979C12.0463 21.9996 11.7943 22.0996 11.5 22.0996C11.2056 22.0996 10.9537 21.9996 10.752 21.7979C10.5503 21.5961 10.4502 21.3441 10.4502 21.0498V14.1904C10.175 14.0128 9.94873 13.7889 9.77637 13.5146C9.59125 13.22 9.5 12.8806 9.5 12.5C9.5 11.9508 9.6972 11.4786 10.0879 11.0879C10.4786 10.6972 10.9508 10.5 11.5 10.5ZM11.5 2.90039C12.827 2.90039 14.0754 3.15199 15.2441 3.65625C16.4111 4.1598 17.4277 4.84371 18.292 5.70801C19.1563 6.57231 19.8402 7.58891 20.3438 8.75586C20.848 9.92463 21.0996 11.173 21.0996 12.5C21.0996 13.6991 20.8958 14.8276 20.4873 15.8848C20.0796 16.9399 19.5157 17.8915 18.7959 18.7393C18.6042 18.9658 18.3607 19.0868 18.0703 19.0957C17.7806 19.1045 17.5282 19.0018 17.3193 18.793C17.1247 18.5983 17.0283 18.3505 17.0283 18.0576C17.0283 17.7648 17.1241 17.5041 17.3135 17.2803C17.844 16.6245 18.2578 15.8907 18.5547 15.0781C18.8513 14.2663 19 13.4072 19 12.5C19 10.4043 18.2737 8.63304 16.8203 7.17969C15.367 5.72633 13.5957 5 11.5 5C9.40429 5 7.63304 5.72633 6.17969 7.17969C4.72633 8.63304 4 10.4043 4 12.5C4 13.4072 4.14879 14.2627 4.44531 15.0664C4.7422 15.871 5.16422 16.6008 5.71094 17.2568H5.70996C5.89815 17.4793 5.99815 17.7341 6.00684 18.0186C6.01561 18.3082 5.91298 18.5607 5.7041 18.7695C5.49542 18.9781 5.24072 19.0839 4.94531 19.084C4.64668 19.084 4.39723 18.9675 4.2041 18.7393C3.48429 17.8915 2.92039 16.9399 2.5127 15.8848C2.10424 14.8276 1.90039 13.6991 1.90039 12.5C1.90039 11.173 2.15199 9.92463 2.65625 8.75586C3.1598 7.58891 3.8437 6.57231 4.70801 5.70801C5.57231 4.8437 6.58891 4.1598 7.75586 3.65625C8.92463 3.15199 10.173 2.90039 11.5 2.90039ZM11.5 6.7002C13.1096 6.7002 14.4811 7.2643 15.6084 8.3916C16.7357 9.5189 17.2998 10.8904 17.2998 12.5C17.2998 13.1759 17.1915 13.8167 16.9736 14.4219C16.7837 14.9494 16.5351 15.4319 16.2275 15.8682L16.0918 16.0518C15.9144 16.2824 15.6719 16.4033 15.374 16.4121C15.0775 16.4208 14.8208 16.3189 14.6113 16.1094C14.4176 15.9155 14.3182 15.6688 14.3096 15.377C14.301 15.0872 14.3817 14.8213 14.5508 14.583C14.752 14.2734 14.9113 13.9448 15.0273 13.5967C15.1425 13.2512 15.2002 12.8857 15.2002 12.5C15.2002 11.4817 14.8388 10.6123 14.1133 9.88672C13.3877 9.16116 12.5183 8.7998 11.5 8.7998C10.4817 8.7998 9.61228 9.16116 8.88672 9.88672C8.16116 10.6123 7.7998 11.4817 7.7998 12.5C7.7998 12.9019 7.85791 13.2707 7.97266 13.6074C8.08867 13.9477 8.24777 14.2731 8.44922 14.583C8.61788 14.8207 8.69899 15.0826 8.69043 15.3652C8.68173 15.65 8.58187 15.8927 8.38867 16.0859C8.18063 16.294 7.92638 16.4034 7.63184 16.4121C7.32903 16.421 7.08367 16.298 6.90625 16.0498V16.0488C6.53684 15.5506 6.2431 15.0042 6.02637 14.4102C5.80846 13.8128 5.7002 13.1757 5.7002 12.5C5.7002 10.8904 6.2643 9.5189 7.3916 8.3916C8.5189 7.2643 9.89045 6.7002 11.5 6.7002Z" fill="var(--fill-0, #007AFF)" stroke="var(--stroke-0, #007AFF)" stroke-width="0.2"/>
</g>
</svg>
