<svg preserveAspectRatio="none" width="100%" height="100%" overflow="visible" style="display: block;" viewBox="0 0 24 24" fill="none" xmlns="http://www.w3.org/2000/svg">
<g id="Frame 2147226005">
<path id="Vector" d="M18.4238 4.72423L18.8375 5.68514L19.8157 6.09138L18.8375 6.49762L18.4238 7.45852L18.0103 6.49762L17.0321 6.09138L18.0103 5.68514L18.4238 4.72423Z" stroke="var(--stroke-0, #007AFF)" stroke-width="2.58462"/>
<path id="Vector_2" d="M15.737 10.5112L15.9734 11.0602L16.5325 11.2923L15.9734 11.5245L15.737 12.0736L15.5006 11.5245L14.9414 11.2923L15.5006 11.0602L15.737 10.5112Z" stroke="var(--stroke-0, #007AFF)" stroke-width="1.38496"/>
<path id="Vector_3" d="M11.7606 20.6669V8.5579M11.7606 20.6669C11.7606 19.3724 13.8968 18.3232 16.5326 18.3232C17.755 18.3232 18.87 18.5498 19.7138 18.9201V11.2922M11.7606 20.6669C11.7606 19.3724 9.62452 18.3232 6.9888 18.3232C5.76641 18.3232 4.65217 18.5498 3.80754 18.9201V6.81109C3.80754 6.81109 4.60286 6.21425 6.9888 6.21425C9.62452 6.21425 11.7606 7.26343 11.7606 8.5579M11.7606 8.5579C11.7606 8.07904 12.0534 7.63294 12.556 7.26187" stroke="var(--stroke-0, #007AFF)" stroke-width="1.93846" stroke-linecap="round" stroke-linejoin="round"/>
<path id="Vector_4" d="M11.7606 8.5579V20.6669C11.7606 19.3724 9.62452 18.3232 6.9888 18.3232C5.76641 18.3232 4.65217 18.5498 3.80754 18.9201V6.81109C3.80754 6.81109 4.60286 6.21425 6.9888 6.21425C9.62452 6.21425 11.7606 7.26343 11.7606 8.5579Z" fill="var(--fill-0, #007AFF)"/>
</g>
</svg>
