<svg preserveAspectRatio="none" width="100%" height="100%" overflow="visible" style="display: block;" viewBox="0 0 20 20" fill="none" xmlns="http://www.w3.org/2000/svg">
<g id="Group 1000007919">
<g id="pan_zoom">
<mask id="mask0_0_197" style="mask-type:alpha" maskUnits="userSpaceOnUse" x="0" y="0" width="20" height="20">
<rect id="Bounding box" width="20" height="20" fill="var(--fill-0, #D9D9D9)"/>
</mask>
<g mask="url(#mask0_0_197)">
<path id="pan_zoom_2" d="M-328.916 -100.446H-327.465C-327.208 -100.446 -326.992 -100.359 -326.819 -100.184C-326.645 -100.01 -326.558 -99.794 -326.558 -99.5363C-326.558 -99.2786 -326.645 -99.0625 -326.819 -98.8882C-326.992 -98.7138 -327.208 -98.6267 -327.465 -98.6267H-331.093C-331.35 -98.6267 -331.565 -98.7138 -331.739 -98.8882C-331.913 -99.0625 -332 -99.2786 -332 -99.5363V-103.175C-332 -103.433 -331.913 -103.649 -331.739 -103.823C-331.565 -103.997 -331.35 -104.084 -331.093 -104.084C-330.836 -104.084 -330.621 -103.997 -330.447 -103.823C-330.273 -103.649 -330.186 -103.433 -330.186 -103.175V-101.719L-328.009 -103.903C-327.843 -104.069 -327.631 -104.153 -327.374 -104.153C-327.117 -104.153 -326.906 -104.069 -326.739 -103.903C-326.573 -103.736 -326.49 -103.524 -326.49 -103.266C-326.49 -103.008 -326.573 -102.796 -326.739 -102.629L-328.916 -100.446ZM-317.488 -111.907L-319.664 -109.724C-319.831 -109.557 -320.042 -109.474 -320.299 -109.474C-320.556 -109.474 -320.768 -109.557 -320.934 -109.724C-321.101 -109.891 -321.184 -110.103 -321.184 -110.361C-321.184 -110.619 -321.101 -110.831 -320.934 -110.998L-318.757 -113.181H-320.209C-320.466 -113.181 -320.681 -113.268 -320.855 -113.442C-321.029 -113.617 -321.116 -113.833 -321.116 -114.09C-321.116 -114.348 -321.029 -114.564 -320.855 -114.738C-320.681 -114.913 -320.466 -115 -320.209 -115H-316.58C-316.323 -115 -316.108 -114.913 -315.934 -114.738C-315.76 -114.564 -315.673 -114.348 -315.673 -114.09V-110.452C-315.673 -110.194 -315.76 -109.978 -315.934 -109.804C-316.108 -109.629 -316.323 -109.542 -316.58 -109.542C-316.837 -109.542 -317.053 -109.629 -317.227 -109.804C-317.401 -109.978 -317.488 -110.194 -317.488 -110.452V-111.907Z" fill="var(--fill-0, #555555)"/>
</g>
</g>
</g>
</svg>
