<svg preserveAspectRatio="none" width="100%" height="100%" overflow="visible" style="display: block;" viewBox="0 0 16 16" fill="none" xmlns="http://www.w3.org/2000/svg">
<g id="Group 1000007920">
<g id="pan_zoom">
<mask id="mask0_0_97" style="mask-type:alpha" maskUnits="userSpaceOnUse" x="0" y="0" width="16" height="16">
<rect id="Bounding box" width="16" height="16" fill="var(--fill-0, #D9D9D9)"/>
</mask>
<g mask="url(#mask0_0_97)">
<path id="pan_zoom_2" d="M-111.931 -43.7571H-110.77C-110.565 -43.7571 -110.392 -43.6874 -110.253 -43.5479C-110.114 -43.4084 -110.045 -43.2356 -110.045 -43.0294C-110.045 -42.8232 -110.114 -42.6504 -110.253 -42.5109C-110.392 -42.3715 -110.565 -42.3017 -110.77 -42.3017H-113.673C-113.878 -42.3017 -114.051 -42.3715 -114.19 -42.5109C-114.329 -42.6504 -114.398 -42.8232 -114.398 -43.0294V-45.9402C-114.398 -46.1464 -114.329 -46.3193 -114.19 -46.4587C-114.051 -46.5982 -113.878 -46.6679 -113.673 -46.6679C-113.467 -46.6679 -113.295 -46.5982 -113.156 -46.4587C-113.017 -46.3193 -112.947 -46.1464 -112.947 -45.9402V-44.7759L-111.206 -46.5224C-111.073 -46.6558 -110.903 -46.7225 -110.698 -46.7225C-110.492 -46.7225 -110.323 -46.6558 -110.19 -46.5224C-110.057 -46.389 -109.99 -46.2192 -109.99 -46.013C-109.99 -45.8068 -110.057 -45.637 -110.19 -45.5036L-111.931 -43.7571ZM-102.788 -52.9262L-104.53 -51.1797C-104.663 -51.0463 -104.832 -50.9796 -105.038 -50.9796C-105.243 -50.9796 -105.413 -51.0463 -105.546 -51.1797C-105.679 -51.3131 -105.745 -51.4829 -105.745 -51.6891C-105.745 -51.8953 -105.679 -52.0651 -105.546 -52.1985L-103.804 -53.945H-104.965C-105.171 -53.945 -105.343 -54.0147 -105.482 -54.1542C-105.621 -54.2937 -105.691 -54.4665 -105.691 -54.6727C-105.691 -54.8789 -105.621 -55.0517 -105.482 -55.1912C-105.343 -55.3307 -105.171 -55.4004 -104.965 -55.4004H-102.063C-101.857 -55.4004 -101.685 -55.3307 -101.546 -55.1912C-101.407 -55.0517 -101.337 -54.8789 -101.337 -54.6727V-51.7619C-101.337 -51.5557 -101.407 -51.3829 -101.546 -51.2434C-101.685 -51.1039 -101.857 -51.0342 -102.063 -51.0342C-102.268 -51.0342 -102.441 -51.1039 -102.58 -51.2434C-102.719 -51.3829 -102.788 -51.5557 -102.788 -51.7619V-52.9262Z" fill="var(--fill-0, #555555)"/>
</g>
</g>
</g>
</svg>
