<svg preserveAspectRatio="none" width="100%" height="100%" overflow="visible" style="display: block;" viewBox="0 0 23.1429 27" fill="none" xmlns="http://www.w3.org/2000/svg">
<g id="Group 2087325584">
<path id="Rectangle 49173" d="M7.8125e-05 3.85714C7.8125e-05 1.7269 1.72698 0 3.85722 0L15.6768 0C16.444 0 17.1799 0.304782 17.7224 0.847298L22.2956 5.42056C22.8381 5.96307 23.1429 6.69888 23.1429 7.46612V23.1429C23.1429 25.2731 21.416 27 19.2858 27H3.85722C1.72698 27 7.8125e-05 25.2731 7.8125e-05 23.1429L7.8125e-05 3.85714Z" fill="var(--fill-0, #9A7FFF)"/>
<path id="Vector 285" opacity="0.2" d="M21.1719 6.96289L15.9799 1.77092C15.5145 1.30552 14.7188 1.63514 14.7188 2.29331V5.63837C14.7188 7.0664 15.8764 8.22405 17.3044 8.22405H20.6495C21.3077 8.22405 21.6373 7.42829 21.1719 6.96289Z" fill="var(--fill-0, #F7F5FF)"/>
<g id="Group 2087325586">
<path id="Union" d="M10.9561 9.26562C11.2438 9.6365 11.6868 9.85352 12.1562 9.85352H16.2637C17.5418 9.85352 18.5781 10.8898 18.5781 12.168V18.9258C18.5781 20.2039 17.5418 21.2402 16.2637 21.2402H7.39258C6.11445 21.2402 5.07812 20.2039 5.07812 18.9258V10.6063C5.07812 9.54117 5.94156 8.67773 7.00667 8.67773H9.75596C10.2253 8.67773 10.6684 8.89475 10.9561 9.26562Z" fill="var(--fill-0, white)"/>
<rect id="Rectangle 279335576" x="6.03906" y="11.3223" width="11.5713" height="8.95307" rx="1.54284" fill="var(--fill-0, #9A7FFF)"/>
<path id="Rectangle 279335575" d="M5.07027 15.1834C5.07027 13.9052 6.1064 12.8691 7.38453 12.8691H16.2558C17.534 12.8691 18.5701 13.9052 18.5701 15.1834V18.9252C18.5701 20.2034 17.534 21.2395 16.2558 21.2395H7.38453C6.1064 21.2395 5.07027 20.2034 5.07027 18.9252V15.1834Z" fill="var(--fill-0, white)"/>
</g>
</g>
</svg>
