<svg preserveAspectRatio="none" width="100%" height="100%" overflow="visible" style="display: block;" viewBox="0 0 15.0961 20.0001" fill="none" xmlns="http://www.w3.org/2000/svg">
<g id="Group 1000007366">
<path id="mic" d="M6.45932 18.2877V17.723C4.78989 17.4863 3.36089 16.7762 2.17233 15.5927C0.983764 14.4092 0.26246 12.9707 0.00841576 11.2774C-0.0278763 10.9679 0.0537808 10.7038 0.253387 10.4853C0.452993 10.2669 0.707037 10.1576 1.01552 10.1576C1.324 10.1576 1.58258 10.2623 1.79126 10.4717C1.99994 10.6811 2.14057 10.9405 2.21316 11.2501C2.4672 12.5246 3.09777 13.5716 4.10488 14.391C5.11198 15.2103 6.25972 15.62 7.54808 15.62C8.85459 15.62 10.0069 15.2058 11.0049 14.3773C12.0029 13.5488 12.629 12.5064 12.883 11.2501C12.9556 10.9405 13.0962 10.6811 13.3049 10.4717C13.5136 10.2623 13.7722 10.1576 14.0806 10.1576C14.3891 10.1576 14.6432 10.2669 14.8428 10.4853C15.0424 10.7038 15.124 10.9679 15.0877 11.2774C14.8337 12.9343 14.1169 14.3637 12.9374 15.5654C11.758 16.7671 10.3244 17.4863 8.63684 17.723V18.2877C8.63684 18.5972 8.5325 18.8567 8.32382 19.0661C8.11514 19.2755 7.85656 19.3802 7.54808 19.3802C7.2396 19.3802 6.98102 19.2755 6.77234 19.0661C6.56366 18.8567 6.45932 18.5972 6.45932 18.2877Z" fill="var(--fill-0, #007AFF)"/>
<path id="Subtract" d="M11.8918 10.2236C11.8918 12.6229 9.94728 14.5681 7.5481 14.5684C5.14869 14.5684 3.20337 12.623 3.20337 10.2236V8H11.8918V10.2236ZM7.5481 0C9.94728 0.000254074 11.8918 1.94548 11.8918 4.34473V6H3.20337V4.34473C3.20337 1.94533 5.14869 0 7.5481 0Z" fill="var(--fill-0, #007AFF)"/>
<path id="Rectangle 49349" d="M5.39338 19.1312C5.39338 18.6513 5.7824 18.2623 6.26228 18.2623H8.81647C9.29635 18.2623 9.68537 18.6513 9.68537 19.1312V19.1312C9.68537 19.611 9.29635 20.0001 8.81647 20.0001H6.26228C5.7824 20.0001 5.39338 19.611 5.39338 19.1312V19.1312Z" fill="var(--fill-0, #007AFF)"/>
</g>
</svg>
