<svg preserveAspectRatio="none" width="100%" height="100%" overflow="visible" style="display: block;" viewBox="0 0 13.5866 18.0002" fill="none" xmlns="http://www.w3.org/2000/svg">
<g id="Group 1000007366">
<path id="mic" d="M5.81347 16.4588V15.9506C4.31099 15.7376 3.02489 15.0985 1.95518 14.0333C0.885473 12.9681 0.236299 11.6735 0.00765964 10.1495C-0.0250032 9.87095 0.0484881 9.63334 0.228134 9.43669C0.407779 9.24005 0.636419 9.14172 0.914053 9.14172C1.19169 9.14172 1.42441 9.23595 1.61222 9.4244C1.80003 9.61286 1.9266 9.84637 1.99193 10.125C2.22056 11.2721 2.78808 12.2143 3.69447 12.9517C4.60087 13.6892 5.63383 14.0579 6.79336 14.0579C7.96922 14.0579 9.00626 13.6851 9.90449 12.9395C10.8027 12.1938 11.3662 11.2557 11.5948 10.125C11.6601 9.84637 11.7867 9.61286 11.9745 9.4244C12.1623 9.23595 12.395 9.14172 12.6727 9.14172C12.9503 9.14172 13.1789 9.24005 13.3586 9.43669C13.5382 9.63334 13.6117 9.87095 13.5791 10.1495C13.3504 11.6408 12.7053 12.9272 11.6438 14.0087C10.5822 15.0903 9.29206 15.7376 7.77324 15.9506V16.4588C7.77324 16.7374 7.67934 16.9709 7.49153 17.1593C7.30371 17.3478 7.07099 17.442 6.79336 17.442C6.51572 17.442 6.283 17.3478 6.09519 17.1593C5.90738 16.9709 5.81347 16.7374 5.81347 16.4588Z" fill="var(--fill-0, #111111)"/>
<rect id="Rectangle 49345" x="2.88293" width="7.8201" height="13.1115" rx="3.91005" fill="var(--fill-0, #111111)"/>
<path id="Rectangle 49348" d="M2.88293 6.04248H10.703V9.20175C10.703 11.3612 8.95245 13.1118 6.79298 13.1118V13.1118C4.63352 13.1118 2.88293 11.3612 2.88293 9.20175V6.04248Z" fill="var(--fill-0, #111111)"/>
<path id="Rectangle 49347" d="M2.57158 6.32088C2.57158 5.88899 2.9217 5.53887 3.35359 5.53887H10.234C10.6659 5.53887 11.016 5.88899 11.016 6.32088V6.32088C11.016 6.75277 10.6659 7.10289 10.234 7.10289H3.35359C2.9217 7.10289 2.57158 6.75277 2.57158 6.32088V6.32088Z" fill="var(--fill-0, white)"/>
<path id="Rectangle 49349" d="M4.85432 17.2182C4.85432 16.7863 5.20444 16.4362 5.63633 16.4362H7.9351C8.367 16.4362 8.71711 16.7863 8.71711 17.2182V17.2182C8.71711 17.6501 8.367 18.0002 7.9351 18.0002H5.63633C5.20444 18.0002 4.85432 17.6501 4.85432 17.2182V17.2182Z" fill="var(--fill-0, #111111)"/>
</g>
</svg>
