<svg preserveAspectRatio="none" width="100%" height="100%" overflow="visible" style="display: block;" viewBox="0 0 19.1667 16.6667" fill="none" xmlns="http://www.w3.org/2000/svg">
<g id="Group 2087325670">
<path id="Rectangle 279336487 (Stroke)" d="M2.0874 13.8354C2.13018 14.2556 2.48527 14.5833 2.91667 14.5833H16.25L16.3354 14.5793C16.7556 14.5365 17.0833 14.1814 17.0833 13.75V5.41667C17.0833 4.95643 16.7102 4.58333 16.25 4.58333V2.5C17.8608 2.5 19.1667 3.80584 19.1667 5.41667V13.75C19.1667 15.3608 17.8608 16.6667 16.25 16.6667H2.91667C1.30584 16.6667 0 15.3608 0 13.75V5.41667C0 3.80584 1.30584 2.5 2.91667 2.5V4.58333C2.45643 4.58333 2.08333 4.95643 2.08333 5.41667V13.75L2.0874 13.8354ZM11.4827 0C12.7382 2.00025e-05 13.8527 0.803646 14.2497 1.99463L14.4181 2.5H16.25V4.58333H13.5173C13.2034 4.58332 12.9201 4.40766 12.7783 4.13574L12.7271 4.01367L12.2729 2.65299C12.1737 2.35549 11.9179 2.14261 11.6154 2.09391L11.4827 2.08333V0ZM7.68392 2.08333C7.32533 2.08335 7.00721 2.31285 6.89372 2.65299L6.43962 4.01367L6.38835 4.13574C6.26683 4.36871 6.04147 4.531 5.78206 4.57275L5.64941 4.58333H2.91667V2.5H4.74854L4.91699 1.99463L5 1.77572C5.45418 0.706163 6.50701 1.87518e-05 7.68392 0V2.08333ZM9.58333 0V2.08333H7.68392V0H9.58333ZM11.4827 0V2.08333H9.58333V0H11.4827Z" fill="var(--fill-0, #111111)"/>
<path id="Ellipse 4541 (Stroke)" d="M11.25 9.16667C11.25 8.24619 10.5038 7.5 9.58333 7.5C8.66286 7.5 7.91667 8.24619 7.91667 9.16667C7.91667 10.0871 8.66286 10.8333 9.58333 10.8333V12.9167C7.51227 12.9167 5.83333 11.2377 5.83333 9.16667C5.83333 7.0956 7.51227 5.41667 9.58333 5.41667C11.6544 5.41667 13.3333 7.0956 13.3333 9.16667C13.3333 11.2377 11.6544 12.9167 9.58333 12.9167V10.8333C10.5038 10.8333 11.25 10.0871 11.25 9.16667Z" fill="var(--fill-0, #111111)"/>
</g>
</svg>
