<svg preserveAspectRatio="none" width="100%" height="100%" overflow="visible" style="display: block;" viewBox="0 0 16.25 16.2501" fill="none" xmlns="http://www.w3.org/2000/svg">
<g id="Group">
<path id="Vector (Stroke)" d="M1.93715e-07 13.5417V8.12834C6.30216e-06 7.55305 0.466374 7.08667 1.04167 7.08667C1.61696 7.08667 2.08333 7.55305 2.08333 8.12834V13.5417C2.08333 13.8869 2.36316 14.1667 2.70833 14.1667H13.5417C13.8868 14.1667 14.1667 13.8869 14.1667 13.5417V8.12508C14.1667 7.54978 14.633 7.08341 15.2083 7.08341C15.7836 7.08341 16.25 7.54978 16.25 8.12508V13.5417C16.25 15.0375 15.0374 16.2501 13.5417 16.2501H2.70833C1.21256 16.2501 1.93715e-07 15.0375 1.93715e-07 13.5417Z" fill="var(--fill-0, #111111)"/>
<path id="Vector (Stroke)_2" d="M7.46745 0.233642C7.87659 -0.100094 8.48011 -0.0761278 8.86149 0.305257L12.4032 3.84692C12.81 4.25372 12.81 4.91311 12.4032 5.31991C11.9964 5.7267 11.337 5.7267 10.9302 5.31991L8.125 2.51473L5.31982 5.31991C4.91303 5.7267 4.25364 5.7267 3.84684 5.31991C3.44005 4.91311 3.44005 4.25372 3.84684 3.84692L7.38851 0.305257L7.46745 0.233642Z" fill="var(--fill-0, #111111)"/>
<path id="Vector (Stroke)_3" d="M7.07941 11.2729V1.04175C7.07941 0.466451 7.54578 8.11443e-05 8.12108 8.11443e-05C8.69638 8.11443e-05 9.16275 0.466451 9.16275 1.04175V11.2729C9.16275 11.8482 8.69638 12.3145 8.12108 12.3145C7.54578 12.3145 7.07941 11.8482 7.07941 11.2729Z" fill="var(--fill-0, #111111)"/>
</g>
</svg>
