<svg preserveAspectRatio="none" width="100%" height="100%" overflow="visible" style="display: block;" viewBox="0 0 19.6763 14.4779" fill="none" xmlns="http://www.w3.org/2000/svg">
<g id="Group 2087325559">
<path id="Vector" d="M16.3466 4.64514C16.0688 4.58812 15.3661 4.79007 14.8962 4.86254C14.9578 4.51569 15.1468 3.65131 15.0646 3.28384C14.7637 2.88528 14.1596 3.05916 14.0837 3.28388C13.8853 3.87126 13.9458 4.45364 13.8325 5.03935C13.3689 5.11413 12.5513 5.12673 12.2178 5.36746C11.6715 5.68843 11.8695 6.19764 12.22 6.35651C12.6075 6.48493 13.0874 6.26683 13.5847 6.26683C13.431 7.09741 13.342 7.69642 13.4003 8.09281C13.5847 8.44778 14.1138 8.35837 14.2059 8.28212C14.6626 8.0159 14.5205 6.59356 14.7635 6.00642C15.1046 5.92895 16.5489 5.68213 16.7408 5.3093C16.8155 5.12559 16.7678 4.7316 16.3466 4.64514Z" fill="url(#paint0_linear_0_186)" stroke="url(#paint1_linear_0_186)"/>
<g id="Union">
<path d="M9.46994 0.64981C9.62505 0.42664 10.0142 0.482208 10.2961 0.625396C10.55 0.754375 10.7403 0.88725 10.7697 1.10489C10.9917 2.72433 10.7881 4.18808 11.0246 6.16543C11.1028 6.14867 11.1474 6.1399 11.1516 6.13907C11.3196 6.10552 11.6337 6.08628 11.8274 6.30411C11.962 6.45553 12.0235 6.61305 12.0012 6.73086C11.9508 6.99563 11.5738 7.22413 11.1291 7.31583C11.153 7.79226 11.1658 8.26211 11.2307 8.76211C11.355 9.70538 11.385 10.6922 11.385 11.6322C11.3152 12.1549 10.5546 12.2084 10.1731 11.6322C9.64926 10.8411 9.67599 9.14049 9.67599 8.0043C8.83527 8.20588 7.48304 8.60893 6.62033 8.76211C6.07802 9.93724 5.49877 11.1776 4.8215 12.557C3.9809 13.3541 3.36202 12.4627 3.42892 12.0902C3.90731 10.7974 4.48336 9.7689 5.009 8.76993L4.69064 8.9086C4.46537 8.94545 4.02093 8.87449 3.91721 8.52676C3.7875 8.09173 4.23179 7.83238 4.28732 7.81387C4.33665 7.79716 5.0968 7.50524 5.47189 7.36075C5.55286 7.34332 5.63728 7.3249 5.72482 7.30606C6.6424 5.33736 8.34446 2.27136 9.46994 0.64981ZM9.57346 3.19278C8.92293 4.26689 8.09562 5.76615 7.48947 6.92618C8.24695 6.76321 9.02507 6.59573 9.66818 6.45743C9.61847 5.58992 9.70658 4.52674 9.57346 3.19278Z" fill="url(#paint2_linear_0_186)"/>
<path d="M9.46994 0.64981L9.05937 0.364447L9.05918 0.364715L9.46994 0.64981ZM10.2961 0.625396L10.5226 0.179622L10.5226 0.179615L10.2961 0.625396ZM10.7697 1.10489L10.2743 1.172L10.2744 1.17279L10.7697 1.10489ZM11.0246 6.16543L10.5282 6.22482L10.5933 6.76933L11.1295 6.65431L11.0246 6.16543ZM11.1516 6.13907L11.0537 5.64874L11.0536 5.64876L11.1516 6.13907ZM11.8274 6.30411L12.201 5.9719L12.201 5.97186L11.8274 6.30411ZM12.0012 6.73086L12.4924 6.82442L12.4924 6.82404L12.0012 6.73086ZM11.1291 7.31583L11.0281 6.82613L10.6082 6.91272L10.6297 7.3409L11.1291 7.31583ZM11.2307 8.76211L10.7348 8.82645L10.735 8.82746L11.2307 8.76211ZM11.385 11.6322L11.8806 11.6984L11.885 11.6655V11.6322H11.385ZM10.1731 11.6322L9.75616 11.9083L9.75618 11.9083L10.1731 11.6322ZM9.67599 8.0043L10.176 8.00431L10.176 7.37025L9.55942 7.51808L9.67599 8.0043ZM6.62033 8.76211L6.53292 8.26981L6.27578 8.31547L6.16634 8.5526L6.62033 8.76211ZM4.8215 12.557L5.16553 12.9199L5.23073 12.858L5.27032 12.7774L4.8215 12.557ZM3.42892 12.0902L2.96 11.9167L2.94463 11.9583L2.9368 12.0018L3.42892 12.0902ZM5.009 8.76993L5.45148 9.00276L6.11429 7.74311L4.80933 8.31153L5.009 8.76993ZM4.69064 8.9086L4.77135 9.40204L4.83302 9.39195L4.89031 9.367L4.69064 8.9086ZM3.91721 8.52676L3.43805 8.66962L3.43807 8.66968L3.91721 8.52676ZM4.28732 7.81387L4.44544 8.28822L4.44781 8.28742L4.28732 7.81387ZM5.47189 7.36075L5.36671 6.87194L5.32856 6.88014L5.29215 6.89417L5.47189 7.36075ZM5.72482 7.30606L5.83001 7.79487L6.07301 7.74258L6.17802 7.51728L5.72482 7.30606ZM9.57346 3.19278L10.071 3.14313L9.92216 1.65183L9.14578 2.93376L9.57346 3.19278ZM7.48947 6.92618L7.04632 6.69462L6.55278 7.63914L7.59464 7.41499L7.48947 6.92618ZM9.66818 6.45743L9.7733 6.94625L10.1919 6.85624L10.1674 6.42882L9.66818 6.45743ZM9.46994 0.64981L9.88051 0.935172C9.85429 0.972903 9.82108 0.991987 9.80315 0.99883C9.78974 1.00395 9.79351 0.999307 9.82268 1.00005C9.85054 1.00077 9.88936 1.00617 9.93587 1.01912C9.9818 1.0319 10.0281 1.05005 10.0697 1.07118L10.2961 0.625396L10.5226 0.179615C10.3304 0.0820209 10.0898 0.00657423 9.8483 0.000382771C9.61454 -0.00560922 9.27359 0.0562355 9.05937 0.364447L9.46994 0.64981ZM10.2961 0.625396L10.0696 1.07117C10.1876 1.13109 10.2477 1.1714 10.2781 1.19943C10.2904 1.21077 10.2899 1.21316 10.2857 1.20574C10.2805 1.19672 10.2759 1.18416 10.2743 1.172L10.7697 1.10489L11.2652 1.03778C11.197 0.533975 10.7566 0.298531 10.5226 0.179622L10.2961 0.625396ZM10.7697 1.10489L10.2744 1.17279C10.3803 1.94537 10.3853 2.68395 10.3917 3.50487C10.3982 4.32 10.4062 5.20547 10.5282 6.22482L11.0246 6.16543L11.5211 6.10605C11.4065 5.14804 11.3981 4.31296 11.3917 3.49701C11.3854 2.68686 11.3812 1.88384 11.2651 1.03698L10.7697 1.10489ZM11.0246 6.16543L11.1295 6.65431C11.2041 6.63831 11.246 6.63009 11.2496 6.62937L11.1516 6.13907L11.0536 5.64876C11.0551 5.64847 11.0479 5.6499 11.0427 5.65094C11.0361 5.65226 11.027 5.6541 11.0155 5.65644C10.9927 5.66113 10.9604 5.66783 10.9198 5.67655L11.0246 6.16543ZM11.1516 6.13907L11.2495 6.62939C11.2989 6.61951 11.3584 6.61483 11.407 6.62199C11.4292 6.62526 11.4422 6.63003 11.4483 6.63295C11.4531 6.63523 11.4536 6.63618 11.4537 6.63636L11.8274 6.30411L12.201 5.97186C12.0042 5.75055 11.7553 5.6625 11.5527 5.63266C11.3538 5.60337 11.1722 5.62508 11.0537 5.64874L11.1516 6.13907ZM11.8274 6.30411L11.4537 6.63631C11.4714 6.6563 11.4845 6.67396 11.4938 6.68837C11.5032 6.70293 11.5077 6.7127 11.5094 6.71693C11.5112 6.72138 11.5089 6.71742 11.5072 6.7053C11.5055 6.69313 11.5039 6.66948 11.5099 6.63769L12.0012 6.73086L12.4924 6.82404C12.5575 6.48083 12.3764 6.16916 12.201 5.9719L11.8274 6.30411ZM12.0012 6.73086L11.51 6.63731C11.5219 6.57493 11.5478 6.59916 11.4401 6.66927C11.3465 6.73027 11.2023 6.79022 11.0281 6.82613L11.1291 7.31583L11.2301 7.80552C11.5006 7.74973 11.7673 7.64959 11.9859 7.50723C12.1905 7.37397 12.43 7.15157 12.4924 6.82442L12.0012 6.73086ZM11.1291 7.31583L10.6297 7.3409C10.6529 7.80287 10.6667 8.3011 10.7348 8.82645L11.2307 8.76211L11.7265 8.69778C11.6649 8.22311 11.6531 7.78165 11.6285 7.29075L11.1291 7.31583ZM11.2307 8.76211L10.735 8.82746C10.8551 9.73887 10.885 10.7006 10.885 11.6322H11.385H11.885C11.885 10.6839 11.8549 9.67189 11.7264 8.69677L11.2307 8.76211ZM11.385 11.6322L10.8894 11.5661C10.8886 11.5718 10.8919 11.5558 10.9079 11.543C10.9183 11.5346 10.9142 11.5436 10.8824 11.5445C10.8191 11.5462 10.6916 11.5096 10.59 11.3562L10.1731 11.6322L9.75618 11.9083C10.0361 12.331 10.4797 12.5558 10.9095 12.5441C11.3481 12.5322 11.8066 12.2523 11.8806 11.6984L11.385 11.6322ZM10.1731 11.6322L10.59 11.3562C10.4032 11.0741 10.2844 10.5636 10.2262 9.90369C10.1698 9.26467 10.176 8.58115 10.176 8.00431L9.67599 8.0043L9.17599 8.0043C9.17599 8.56365 9.16886 9.29852 9.23004 9.99162C9.28937 10.6638 9.41915 11.3992 9.75616 11.9083L10.1731 11.6322ZM9.67599 8.0043L9.55942 7.51808C8.66524 7.73247 7.38149 8.11914 6.53292 8.26981L6.62033 8.76211L6.70774 9.25441C7.58459 9.09872 9.00529 8.67928 9.79257 8.49052L9.67599 8.0043ZM6.62033 8.76211L6.16634 8.5526C5.62471 9.72625 5.04738 10.9625 4.37268 12.3367L4.8215 12.557L5.27032 12.7774C5.95017 11.3927 6.53133 10.1482 7.07432 8.97163L6.62033 8.76211ZM4.8215 12.557L4.47748 12.1942C4.32219 12.3414 4.21933 12.3712 4.17563 12.3769C4.13674 12.3819 4.10325 12.3738 4.0647 12.3478C4.01996 12.3176 3.97616 12.2665 3.94729 12.2088C3.91243 12.1391 3.93038 12.1267 3.92105 12.1786L3.42892 12.0902L2.9368 12.0018C2.89402 12.24 2.96423 12.4787 3.05287 12.656C3.14749 12.8452 3.29841 13.037 3.5051 13.1766C3.71798 13.3203 3.99264 13.4089 4.30411 13.3686C4.61078 13.3288 4.90051 13.1711 5.16553 12.9199L4.8215 12.557ZM3.42892 12.0902L3.89785 12.2638C4.36222 11.0088 4.91922 10.0143 5.45148 9.00276L5.009 8.76993L4.56652 8.5371C4.0475 9.52349 3.45241 10.586 2.96 11.9167L3.42892 12.0902ZM5.009 8.76993L4.80933 8.31153L4.49097 8.4502L4.69064 8.9086L4.89031 9.367L5.20867 9.22833L5.009 8.76993ZM4.69064 8.9086L4.60993 8.41516C4.60084 8.41664 4.57377 8.41904 4.5352 8.41549C4.49769 8.41203 4.46173 8.40407 4.43258 8.39324C4.40313 8.38229 4.39074 8.37225 4.38861 8.37029C4.38801 8.36974 4.38968 8.37118 4.39198 8.37477C4.39441 8.37857 4.39581 8.38207 4.39634 8.38384L3.91721 8.52676L3.43807 8.66968C3.54952 9.04331 3.84084 9.24011 4.0841 9.33055C4.32098 9.41862 4.57651 9.43391 4.77135 9.40204L4.69064 8.9086ZM3.91721 8.52676L4.39636 8.3839C4.39483 8.37877 4.39417 8.37529 4.39388 8.37334C4.39359 8.3714 4.39359 8.37048 4.39359 8.37038C4.39359 8.37029 4.39359 8.37047 4.39355 8.37078C4.39351 8.37107 4.39348 8.37105 4.39361 8.37062C4.39419 8.36855 4.39852 8.35617 4.41609 8.33519C4.43374 8.31412 4.45651 8.29435 4.47748 8.27944C4.48745 8.27236 4.49421 8.26837 4.4959 8.26742C4.49679 8.26692 4.49468 8.26815 4.48963 8.27059C4.48705 8.27183 4.48256 8.27393 4.47643 8.27654C4.47101 8.27884 4.46013 8.28332 4.44544 8.28821L4.28732 7.81387L4.12921 7.33953C4.04445 7.36778 3.95819 7.42168 3.89816 7.46435C3.82427 7.51686 3.73365 7.59259 3.64951 7.69305C3.47722 7.89873 3.31068 8.24244 3.43805 8.66962L3.91721 8.52676ZM4.28732 7.81387L4.44781 8.28742C4.51001 8.26634 5.28704 7.96778 5.65163 7.82732L5.47189 7.36075L5.29215 6.89417C5.10485 6.96633 4.82133 7.07532 4.57857 7.16832C4.45715 7.21484 4.34622 7.25724 4.26271 7.28901C4.2209 7.30491 4.18639 7.31798 4.16105 7.32751C4.13108 7.33878 4.12327 7.34154 4.12684 7.34033L4.28732 7.81387ZM5.47189 7.36075L5.57708 7.84956C5.61799 7.84075 5.65971 7.83171 5.7018 7.82259C5.74401 7.81344 5.78665 7.8042 5.83001 7.79487L5.72482 7.30606L5.61964 6.81725C5.57545 6.82676 5.53212 6.83615 5.48999 6.84528C5.44773 6.85444 5.40676 6.86332 5.36671 6.87194L5.47189 7.36075ZM5.72482 7.30606L6.17802 7.51728C7.0868 5.56744 8.77528 2.52755 9.8807 0.934905L9.46994 0.64981L9.05918 0.364715C7.91364 2.01517 6.198 5.10727 5.27163 7.09483L5.72482 7.30606ZM9.57346 3.19278L9.14578 2.93376C8.48813 4.01963 7.65556 5.52868 7.04632 6.69462L7.48947 6.92618L7.93262 7.15774C8.53568 6.00362 9.35774 4.51414 10.0011 3.4518L9.57346 3.19278ZM7.48947 6.92618L7.59464 7.41499C8.35219 7.25201 9.13021 7.08455 9.7733 6.94625L9.66818 6.45743L9.56306 5.9686C8.91992 6.10691 8.14172 6.27441 7.38431 6.43736L7.48947 6.92618ZM9.66818 6.45743L10.1674 6.42882C10.1436 6.01358 10.1529 5.55644 10.1521 4.99926C10.1513 4.45192 10.1399 3.83392 10.071 3.14313L9.57346 3.19278L9.07593 3.24243C9.14011 3.8856 9.15128 4.46617 9.1521 5.00079C9.1529 5.52557 9.14309 6.03377 9.169 6.48603L9.66818 6.45743Z" fill="url(#paint3_linear_0_186)"/>
</g>
<path id="Vector 7707" d="M2.39566 6.35217C2.91083 5.52607 4.46219 3.75955 7.04696 2.01244C3.76221 2.75573 0.859584 6.64713 0.549327 8.79779C0.23045 11.0082 1.36453 13.9048 6.54347 13.9767C11.7224 14.0487 15.6048 10.7156 16.9734 9.41455C18.8281 7.6514 20.8715 3.18723 16.8774 1.26916C15.1927 0.460154 12.6783 0.564365 11.6122 0.90671C11.1396 1.05846 11.2353 1.28002 11.2669 1.26916C12.4737 0.853562 15.6202 1.15774 17.237 2.53991C19.8238 4.75134 17.7235 7.70728 15.074 10.1106C12.0033 12.8961 4.64941 14.4083 2.39566 11.9867C0.141919 9.56505 1.76792 7.3588 2.39566 6.35217Z" fill="url(#paint4_linear_0_186)" stroke="url(#paint5_linear_0_186)"/>
</g>
<defs>
<linearGradient id="paint0_linear_0_186" x1="14.9227" y1="3.20153" x2="13.5848" y2="8.28924" gradientUnits="userSpaceOnUse">
<stop stop-color="#FF5D31"/>
<stop offset="1" stop-color="#FF1C1C"/>
</linearGradient>
<linearGradient id="paint1_linear_0_186" x1="15.008" y1="3.14641" x2="13.4854" y2="8.26182" gradientUnits="userSpaceOnUse">
<stop stop-color="#FF5B30"/>
<stop offset="1" stop-color="#FF261F"/>
</linearGradient>
<linearGradient id="paint2_linear_0_186" x1="7.58893" y1="0.67838" x2="8.06931" y2="12.8645" gradientUnits="userSpaceOnUse">
<stop stop-color="#FF5D31"/>
<stop offset="1" stop-color="#FF1C1C"/>
</linearGradient>
<linearGradient id="paint3_linear_0_186" x1="7.71486" y1="0.499419" x2="7.71486" y2="12.8785" gradientUnits="userSpaceOnUse">
<stop stop-color="#FF5C31"/>
<stop offset="1" stop-color="#FF261F"/>
</linearGradient>
<linearGradient id="paint4_linear_0_186" x1="9.56402" y1="0.843291" x2="9.82016" y2="13.9782" gradientUnits="userSpaceOnUse">
<stop stop-color="#FF5D31"/>
<stop offset="1" stop-color="#FF1C1C"/>
</linearGradient>
<linearGradient id="paint5_linear_0_186" x1="9.83807" y1="0.650622" x2="9.83807" y2="13.9779" gradientUnits="userSpaceOnUse">
<stop stop-color="#FF5D31"/>
<stop offset="1" stop-color="#FF261F"/>
</linearGradient>
</defs>
</svg>
