<svg preserveAspectRatio="none" width="100%" height="100%" overflow="visible" style="display: block;" viewBox="0 0 19 19" fill="none" xmlns="http://www.w3.org/2000/svg">
<path id="Vector" d="M11.4 12.35C11.6692 12.35 11.9027 12.251 12.1006 12.0531C12.2985 11.8552 12.3975 11.6217 12.3975 11.3525C12.3975 11.0833 12.2985 10.8498 12.1006 10.6519C11.9027 10.454 11.6692 10.355 11.4 10.355C11.1308 10.355 10.8973 10.454 10.6994 10.6519C10.5015 10.8498 10.4025 11.0833 10.4025 11.3525C10.4025 11.6217 10.5015 11.8552 10.6994 12.0531C10.8973 12.251 11.1308 12.35 11.4 12.35ZM10.6875 9.31H12.1125C12.1125 8.85083 12.16 8.51437 12.255 8.30062C12.35 8.08687 12.5717 7.80583 12.92 7.4575C13.395 6.9825 13.7117 6.59854 13.87 6.30563C14.0283 6.01271 14.1075 5.66833 14.1075 5.2725C14.1075 4.56 13.8581 3.97813 13.3594 3.52688C12.8606 3.07563 12.2075 2.85 11.4 2.85C10.7508 2.85 10.1848 3.03208 9.70188 3.39625C9.21896 3.76042 8.8825 4.24333 8.6925 4.845L9.975 5.3675C10.1175 4.97167 10.3115 4.67479 10.5569 4.47688C10.8023 4.27896 11.0833 4.18 11.4 4.18C11.78 4.18 12.0888 4.28688 12.3263 4.50063C12.5638 4.71438 12.6825 5.00333 12.6825 5.3675C12.6825 5.58917 12.6192 5.79896 12.4925 5.99687C12.3658 6.19479 12.1442 6.44417 11.8275 6.745C11.305 7.20417 10.9844 7.56438 10.8656 7.82563C10.7469 8.08688 10.6875 8.58167 10.6875 9.31ZM5.7 15.2C5.1775 15.2 4.73021 15.014 4.35813 14.6419C3.98604 14.2698 3.8 13.8225 3.8 13.3V1.9C3.8 1.3775 3.98604 0.930208 4.35813 0.558125C4.73021 0.186042 5.1775 0 5.7 0H17.1C17.6225 0 18.0698 0.186042 18.4419 0.558125C18.814 0.930208 19 1.3775 19 1.9V13.3C19 13.8225 18.814 14.2698 18.4419 14.6419C18.0698 15.014 17.6225 15.2 17.1 15.2H5.7ZM1.9 19C1.3775 19 0.930208 18.814 0.558125 18.4419C0.186042 18.0698 0 17.6225 0 17.1V3.8H1.9V17.1H15.2V19H1.9Z" fill="var(--fill-0, #007AFF)"/>
</svg>
