<svg preserveAspectRatio="none" width="100%" height="100%" overflow="visible" style="display: block;" viewBox="0 0 24 24" fill="none" xmlns="http://www.w3.org/2000/svg">
<g id="tab_icon_history_sele">
<g id="History Icon Part 2">
</g>
<rect id="History Icon Part 3" x="4" y="2" width="16" height="20" rx="3" fill="var(--fill-0, #007AFF)" stroke="var(--stroke-0, #007AFF)" stroke-width="2"/>
<path id="Star 1" d="M15.3581 4.61591C15.6259 3.95657 16.5769 4.01057 16.7683 4.69599L17.0951 5.86614C17.1573 6.08868 17.319 6.26987 17.5331 6.35682L18.6587 6.81399C19.3181 7.08178 19.2641 8.03274 18.5786 8.22417L17.4085 8.55098C17.1859 8.61313 17.0048 8.77485 16.9178 8.98892L16.4606 10.1146C16.1928 10.7739 15.2419 10.7199 15.0505 10.0345L14.7236 8.86433C14.6615 8.64179 14.4998 8.4606 14.2857 8.37365L13.1601 7.91648C12.5007 7.64869 12.5547 6.69773 13.2401 6.5063L14.4103 6.17949C14.6328 6.11734 14.814 5.95562 14.901 5.74155L15.3581 4.61591Z" fill="var(--fill-0, white)"/>
<path id="Vector" d="M7.26855 12H10.8643" stroke="var(--stroke-0, white)" stroke-width="2" stroke-linecap="round" stroke-linejoin="round"/>
<path id="Vector_2" d="M7.26855 17H17.2061" stroke="var(--stroke-0, white)" stroke-width="2" stroke-linecap="round" stroke-linejoin="round"/>
</g>
</svg>
