<svg width="24" height="24" viewBox="0 0 24 24" fill="none" xmlns="http://www.w3.org/2000/svg">
<path d="M0 12C0 5.37258 5.37258 0 12 0C18.6274 0 24 5.37258 24 12C24 18.6274 18.6274 24 12 24C5.37258 24 0 18.6274 0 12Z" fill="#FFE9EA"/>
<mask id="mask0_1434_14621" style="mask-type:alpha" maskUnits="userSpaceOnUse" x="4" y="4" width="16" height="16">
<rect x="4" y="4" width="16" height="16" fill="#F30A34"/>
</mask>
<g mask="url(#mask0_1434_14621)">
<path d="M9.05273 15.8822V8.11919C9.05273 7.90668 9.12592 7.72854 9.27231 7.58478C9.41869 7.44102 9.58946 7.36914 9.78464 7.36914C9.84563 7.36914 9.90967 7.37852 9.97676 7.39727C10.0439 7.41602 10.1079 7.44415 10.1689 7.48165L16.1339 11.3632C16.2437 11.4382 16.326 11.5319 16.3809 11.6444C16.4358 11.757 16.4633 11.8757 16.4633 12.0007C16.4633 12.1257 16.4358 12.2445 16.3809 12.357C16.326 12.4695 16.2437 12.5633 16.1339 12.6383L10.1689 16.5198C10.1079 16.5573 10.0439 16.5854 9.97676 16.6042C9.90967 16.6229 9.84563 16.6323 9.78464 16.6323C9.58946 16.6323 9.41869 16.5604 9.27231 16.4167C9.12592 16.2729 9.05273 16.0948 9.05273 15.8822Z" fill="#F30A34"/>
</g>
</svg>
