<svg width="250" height="136" viewBox="0 0 250 136" fill="none" xmlns="http://www.w3.org/2000/svg">
<g filter="url(#filter0_d_1434_14605)">
<rect x="40" y="30" width="170" height="56" rx="28" fill="white" shape-rendering="crispEdges"/>
<rect x="67" y="48.5" width="2" height="17" rx="1" fill="#007AFF"/>
<rect x="67" y="48.5" width="2" height="19" rx="1" fill="#007AFF"/>
<rect x="71.498" y="52" width="2" height="12" rx="1" fill="#007AFF"/>
<rect x="75.9961" y="55" width="2" height="6" rx="1" fill="#007AFF"/>
<rect x="58.0039" y="55" width="2" height="6" rx="1" fill="#007AFF"/>
<rect x="62.502" y="52" width="2" height="12" rx="1" fill="#007AFF"/>
<path d="M91.2881 58.016C91.2881 56.1707 91.5975 54.7307 92.2161 53.696C92.8455 52.6507 93.9228 52.128 95.4481 52.128C96.9735 52.128 98.0455 52.6507 98.6641 53.696C99.2935 54.7307 99.6081 56.1707 99.6081 58.016C99.6081 59.8827 99.2935 61.344 98.6641 62.4C98.0455 63.4453 96.9735 63.968 95.4481 63.968C93.9228 63.968 92.8455 63.4453 92.2161 62.4C91.5975 61.344 91.2881 59.8827 91.2881 58.016ZM97.8161 58.016C97.8161 57.152 97.7575 56.4213 97.6401 55.824C97.5335 55.2267 97.3095 54.7413 96.9681 54.368C96.6268 53.984 96.1201 53.792 95.4481 53.792C94.7761 53.792 94.2695 53.984 93.9281 54.368C93.5868 54.7413 93.3575 55.2267 93.2401 55.824C93.1335 56.4213 93.0801 57.152 93.0801 58.016C93.0801 58.912 93.1335 59.664 93.2401 60.272C93.3468 60.88 93.5708 61.3707 93.9121 61.744C94.2641 62.1173 94.7761 62.304 95.4481 62.304C96.1201 62.304 96.6268 62.1173 96.9681 61.744C97.3201 61.3707 97.5495 60.88 97.6561 60.272C97.7628 59.664 97.8161 58.912 97.8161 58.016ZM101.538 58.016C101.538 56.1707 101.847 54.7307 102.466 53.696C103.095 52.6507 104.173 52.128 105.698 52.128C107.223 52.128 108.295 52.6507 108.914 53.696C109.543 54.7307 109.858 56.1707 109.858 58.016C109.858 59.8827 109.543 61.344 108.914 62.4C108.295 63.4453 107.223 63.968 105.698 63.968C104.173 63.968 103.095 63.4453 102.466 62.4C101.847 61.344 101.538 59.8827 101.538 58.016ZM108.066 58.016C108.066 57.152 108.007 56.4213 107.89 55.824C107.783 55.2267 107.559 54.7413 107.218 54.368C106.877 53.984 106.37 53.792 105.698 53.792C105.026 53.792 104.519 53.984 104.178 54.368C103.837 54.7413 103.607 55.2267 103.49 55.824C103.383 56.4213 103.33 57.152 103.33 58.016C103.33 58.912 103.383 59.664 103.49 60.272C103.597 60.88 103.821 61.3707 104.162 61.744C104.514 62.1173 105.026 62.304 105.698 62.304C106.37 62.304 106.877 62.1173 107.218 61.744C107.57 61.3707 107.799 60.88 107.906 60.272C108.013 59.664 108.066 58.912 108.066 58.016ZM112.764 64.112C112.433 64.112 112.156 64 111.932 63.776C111.708 63.552 111.596 63.2747 111.596 62.944C111.596 62.6133 111.708 62.336 111.932 62.112C112.156 61.888 112.433 61.776 112.764 61.776C113.084 61.776 113.356 61.888 113.58 62.112C113.804 62.336 113.916 62.6133 113.916 62.944C113.916 63.2747 113.804 63.552 113.58 63.776C113.356 64 113.084 64.112 112.764 64.112ZM112.764 57.392C112.433 57.392 112.156 57.28 111.932 57.056C111.708 56.832 111.596 56.5547 111.596 56.224C111.596 55.8933 111.708 55.616 111.932 55.392C112.156 55.168 112.433 55.056 112.764 55.056C113.084 55.056 113.356 55.168 113.58 55.392C113.804 55.616 113.916 55.8933 113.916 56.224C113.916 56.5547 113.804 56.832 113.58 57.056C113.356 57.28 113.084 57.392 112.764 57.392ZM115.71 58.016C115.71 56.1707 116.019 54.7307 116.638 53.696C117.267 52.6507 118.345 52.128 119.87 52.128C121.395 52.128 122.467 52.6507 123.086 53.696C123.715 54.7307 124.03 56.1707 124.03 58.016C124.03 59.8827 123.715 61.344 123.086 62.4C122.467 63.4453 121.395 63.968 119.87 63.968C118.345 63.968 117.267 63.4453 116.638 62.4C116.019 61.344 115.71 59.8827 115.71 58.016ZM122.238 58.016C122.238 57.152 122.179 56.4213 122.062 55.824C121.955 55.2267 121.731 54.7413 121.39 54.368C121.049 53.984 120.542 53.792 119.87 53.792C119.198 53.792 118.691 53.984 118.35 54.368C118.009 54.7413 117.779 55.2267 117.662 55.824C117.555 56.4213 117.502 57.152 117.502 58.016C117.502 58.912 117.555 59.664 117.662 60.272C117.769 60.88 117.993 61.3707 118.334 61.744C118.686 62.1173 119.198 62.304 119.87 62.304C120.542 62.304 121.049 62.1173 121.39 61.744C121.742 61.3707 121.971 60.88 122.078 60.272C122.185 59.664 122.238 58.912 122.238 58.016ZM125.96 58.016C125.96 56.1707 126.269 54.7307 126.888 53.696C127.517 52.6507 128.595 52.128 130.12 52.128C131.645 52.128 132.717 52.6507 133.336 53.696C133.965 54.7307 134.28 56.1707 134.28 58.016C134.28 59.8827 133.965 61.344 133.336 62.4C132.717 63.4453 131.645 63.968 130.12 63.968C128.595 63.968 127.517 63.4453 126.888 62.4C126.269 61.344 125.96 59.8827 125.96 58.016ZM132.488 58.016C132.488 57.152 132.429 56.4213 132.312 55.824C132.205 55.2267 131.981 54.7413 131.64 54.368C131.299 53.984 130.792 53.792 130.12 53.792C129.448 53.792 128.941 53.984 128.6 54.368C128.259 54.7413 128.029 55.2267 127.912 55.824C127.805 56.4213 127.752 57.152 127.752 58.016C127.752 58.912 127.805 59.664 127.912 60.272C128.019 60.88 128.243 61.3707 128.584 61.744C128.936 62.1173 129.448 62.304 130.12 62.304C130.792 62.304 131.299 62.1173 131.64 61.744C131.992 61.3707 132.221 60.88 132.328 60.272C132.435 59.664 132.488 58.912 132.488 58.016ZM137.186 64.112C136.855 64.112 136.578 64 136.354 63.776C136.13 63.552 136.018 63.2747 136.018 62.944C136.018 62.6133 136.13 62.336 136.354 62.112C136.578 61.888 136.855 61.776 137.186 61.776C137.506 61.776 137.778 61.888 138.002 62.112C138.226 62.336 138.338 62.6133 138.338 62.944C138.338 63.2747 138.226 63.552 138.002 63.776C137.778 64 137.506 64.112 137.186 64.112ZM137.186 57.392C136.855 57.392 136.578 57.28 136.354 57.056C136.13 56.832 136.018 56.5547 136.018 56.224C136.018 55.8933 136.13 55.616 136.354 55.392C136.578 55.168 136.855 55.056 137.186 55.056C137.506 55.056 137.778 55.168 138.002 55.392C138.226 55.616 138.338 55.8933 138.338 56.224C138.338 56.5547 138.226 56.832 138.002 57.056C137.778 57.28 137.506 57.392 137.186 57.392ZM140.132 58.016C140.132 56.1707 140.441 54.7307 141.06 53.696C141.689 52.6507 142.767 52.128 144.292 52.128C145.817 52.128 146.889 52.6507 147.508 53.696C148.137 54.7307 148.452 56.1707 148.452 58.016C148.452 59.8827 148.137 61.344 147.508 62.4C146.889 63.4453 145.817 63.968 144.292 63.968C142.767 63.968 141.689 63.4453 141.06 62.4C140.441 61.344 140.132 59.8827 140.132 58.016ZM146.66 58.016C146.66 57.152 146.601 56.4213 146.484 55.824C146.377 55.2267 146.153 54.7413 145.812 54.368C145.471 53.984 144.964 53.792 144.292 53.792C143.62 53.792 143.113 53.984 142.772 54.368C142.431 54.7413 142.201 55.2267 142.084 55.824C141.977 56.4213 141.924 57.152 141.924 58.016C141.924 58.912 141.977 59.664 142.084 60.272C142.191 60.88 142.415 61.3707 142.756 61.744C143.108 62.1173 143.62 62.304 144.292 62.304C144.964 62.304 145.471 62.1173 145.812 61.744C146.164 61.3707 146.393 60.88 146.5 60.272C146.607 59.664 146.66 58.912 146.66 58.016ZM150.382 58.016C150.382 56.1707 150.691 54.7307 151.31 53.696C151.939 52.6507 153.017 52.128 154.542 52.128C156.067 52.128 157.139 52.6507 157.758 53.696C158.387 54.7307 158.702 56.1707 158.702 58.016C158.702 59.8827 158.387 61.344 157.758 62.4C157.139 63.4453 156.067 63.968 154.542 63.968C153.017 63.968 151.939 63.4453 151.31 62.4C150.691 61.344 150.382 59.8827 150.382 58.016ZM156.91 58.016C156.91 57.152 156.851 56.4213 156.734 55.824C156.627 55.2267 156.403 54.7413 156.062 54.368C155.721 53.984 155.214 53.792 154.542 53.792C153.87 53.792 153.363 53.984 153.022 54.368C152.681 54.7413 152.451 55.2267 152.334 55.824C152.227 56.4213 152.174 57.152 152.174 58.016C152.174 58.912 152.227 59.664 152.334 60.272C152.441 60.88 152.665 61.3707 153.006 61.744C153.358 62.1173 153.87 62.304 154.542 62.304C155.214 62.304 155.721 62.1173 156.062 61.744C156.414 61.3707 156.643 60.88 156.75 60.272C156.857 59.664 156.91 58.912 156.91 58.016Z" fill="#111111"/>
<path d="M182 47C188.075 47 193 51.9249 193 58C193 64.0751 188.075 69 182 69C175.925 69 171 64.0751 171 58C171 51.9249 175.925 47 182 47Z" stroke="#FFDADA" stroke-width="2"/>
<mask id="mask0_1434_14605" style="mask-type:alpha" maskUnits="userSpaceOnUse" x="172" y="48" width="20" height="20">
<rect x="172.5" y="48.5" width="19" height="19" fill="#F30A34"/>
</mask>
<g mask="url(#mask0_1434_14605)">
<path d="M178.5 62.6093V53.3907C178.5 53.1383 178.587 52.9268 178.761 52.7561C178.935 52.5854 179.137 52.5 179.369 52.5C179.442 52.5 179.518 52.5111 179.597 52.5334C179.677 52.5557 179.753 52.5891 179.825 52.6336L186.909 57.2429C187.039 57.332 187.137 57.4433 187.202 57.5769C187.267 57.7105 187.3 57.8516 187.3 58C187.3 58.1484 187.267 58.2895 187.202 58.4231C187.137 58.5567 187.039 58.668 186.909 58.7571L179.825 63.3664C179.753 63.4109 179.677 63.4443 179.597 63.4666C179.518 63.4889 179.442 63.5 179.369 63.5C179.137 63.5 178.935 63.4146 178.761 63.2439C178.587 63.0732 178.5 62.8617 178.5 62.6093Z" fill="#F30A34"/>
</g>
</g>
<defs>
<filter id="filter0_d_1434_14605" x="0" y="0" width="250" height="136" filterUnits="userSpaceOnUse" color-interpolation-filters="sRGB">
<feFlood flood-opacity="0" result="BackgroundImageFix"/>
<feColorMatrix in="SourceAlpha" type="matrix" values="0 0 0 0 0 0 0 0 0 0 0 0 0 0 0 0 0 0 127 0" result="hardAlpha"/>
<feOffset dy="10"/>
<feGaussianBlur stdDeviation="20"/>
<feComposite in2="hardAlpha" operator="out"/>
<feColorMatrix type="matrix" values="0 0 0 0 0.149018 0 0 0 0 0.31659 0 0 0 0 0.586163 0 0 0 0.16 0"/>
<feBlend mode="normal" in2="BackgroundImageFix" result="effect1_dropShadow_1434_14605"/>
<feBlend mode="normal" in="SourceGraphic" in2="effect1_dropShadow_1434_14605" result="shape"/>
</filter>
</defs>
</svg>
