<svg width="24" height="24" viewBox="0 0 24 24" fill="none" xmlns="http://www.w3.org/2000/svg">
<path d="M12 1C18.0751 1 23 5.92487 23 12C23 18.0751 18.0751 23 12 23C5.92487 23 1 18.0751 1 12C1 5.92487 5.92487 1 12 1Z" stroke="#FFDADA" stroke-width="2"/>
<mask id="mask0_1434_14615" style="mask-type:alpha" maskUnits="userSpaceOnUse" x="2" y="2" width="20" height="20">
<rect x="2.5" y="2.5" width="19" height="19" fill="#F30A34"/>
</mask>
<g mask="url(#mask0_1434_14615)">
<path d="M8.5 16.6093V7.39069C8.5 7.13833 8.58691 6.92679 8.76074 6.75607C8.93457 6.58536 9.13737 6.5 9.36914 6.5C9.44156 6.5 9.51761 6.51113 9.59728 6.5334C9.67695 6.55567 9.753 6.58907 9.82543 6.6336L16.9089 11.2429C17.0393 11.332 17.137 11.4433 17.2022 11.5769C17.2674 11.7105 17.3 11.8516 17.3 12C17.3 12.1484 17.2674 12.2895 17.2022 12.4231C17.137 12.5567 17.0393 12.668 16.9089 12.7571L9.82543 17.3664C9.753 17.4109 9.67695 17.4443 9.59728 17.4666C9.51761 17.4889 9.44156 17.5 9.36914 17.5C9.13737 17.5 8.93457 17.4146 8.76074 17.2439C8.58691 17.0732 8.5 16.8617 8.5 16.6093Z" fill="#F30A34"/>
</g>
</svg>
