<svg width="24" height="24" viewBox="0 0 24 24" fill="none" xmlns="http://www.w3.org/2000/svg">
<path d="M0 12C0 5.37258 5.37258 0 12 0C18.6274 0 24 5.37258 24 12C24 18.6274 18.6274 24 12 24C5.37258 24 0 18.6274 0 12Z" fill="#FFE9EA"/>
<mask id="mask0_1434_14626" style="mask-type:alpha" maskUnits="userSpaceOnUse" x="4" y="4" width="16" height="16">
<rect x="4" y="4" width="16" height="16" fill="#007AFF"/>
</mask>
<g mask="url(#mask0_1434_14626)">
<path d="M14.6667 16.6673C14.3 16.6673 13.9861 16.5368 13.725 16.2757C13.4639 16.0145 13.3333 15.7007 13.3333 15.334V8.66732C13.3333 8.30065 13.4639 7.98676 13.725 7.72565C13.9861 7.46454 14.3 7.33398 14.6667 7.33398C15.0333 7.33398 15.3472 7.46454 15.6083 7.72565C15.8694 7.98676 16 8.30065 16 8.66732V15.334C16 15.7007 15.8694 16.0145 15.6083 16.2757C15.3472 16.5368 15.0333 16.6673 14.6667 16.6673ZM9.33333 16.6673C8.96667 16.6673 8.65278 16.5368 8.39167 16.2757C8.13056 16.0145 8 15.7007 8 15.334V8.66732C8 8.30065 8.13056 7.98676 8.39167 7.72565C8.65278 7.46454 8.96667 7.33398 9.33333 7.33398C9.7 7.33398 10.0139 7.46454 10.275 7.72565C10.5361 7.98676 10.6667 8.30065 10.6667 8.66732V15.334C10.6667 15.7007 10.5361 16.0145 10.275 16.2757C10.0139 16.5368 9.7 16.6673 9.33333 16.6673Z" fill="#F30A34"/>
</g>
</svg>
