<svg preserveAspectRatio="none" width="100%" height="100%" overflow="visible" style="display: block;" viewBox="0 0 37 6" fill="none" xmlns="http://www.w3.org/2000/svg">
<g id="Frame 2147226105">
<path id="Arrow" fill-rule="evenodd" clip-rule="evenodd" d="M0 5.9991C0.874463 5.9991 1.74867 6.00302 2.62313 5.99448C3.46008 5.98618 4.39682 5.97441 5.2113 5.69676C6.09112 5.39672 6.67359 4.87212 7.25962 4.25474C7.68154 3.81069 8.51032 2.86326 8.91386 2.40583C9.24414 2.03078 9.89067 1.28946 10.2437 0.930804C10.6881 0.479596 11.2373 0 12.0003 0C12.7632 0 13.3122 0.479596 13.7563 0.930342C14.1093 1.28877 14.7559 2.03055 15.0864 2.40536C15.4894 2.8628 16.3182 3.81022 16.7404 4.25428C17.3274 4.87166 17.9089 5.39626 18.7884 5.69629C19.6032 5.97325 20.5402 5.98571 21.3766 5.99402C22.2513 6.00256 23.1255 5.99864 24 5.99864" fill="var(--fill-0, white)"/>
</g>
</svg>
