<svg preserveAspectRatio="none" width="100%" height="100%" overflow="visible" style="display: block;" viewBox="0 0 12 12" fill="none" xmlns="http://www.w3.org/2000/svg">
<g id="Group">
<path id="Vector" opacity="0" d="M12 0H0V12H12V0Z" fill="var(--fill-0, #007AFF)"/>
<path id="Vector_2" d="M4.53653 12C4.92103 12 5.22394 11.8411 5.43251 11.5175L11.5434 1.84401C11.6962 1.60353 11.7585 1.39069 11.7585 1.18816C11.7585 0.657132 11.3803 0.280653 10.853 0.280653C10.484 0.280653 10.2636 0.409994 10.0384 0.77009L4.51041 9.73562L1.67801 6.0639C1.46706 5.78758 1.23951 5.66856 0.921468 5.66856C0.383298 5.66856 0 6.0587 0 6.59186C0 6.82412 0.0777359 7.04455 0.270272 7.27928L3.64795 11.5445C3.89569 11.8539 4.17071 12 4.53653 12Z" fill="var(--fill-0, #007AFF)" fill-opacity="0.85"/>
</g>
</svg>
