<svg width="62" height="62" viewBox="0 0 62 62" fill="none" xmlns="http://www.w3.org/2000/svg">
<g transform="translate(-165 -8)">
<g id="Frame 2147226143">
<g id="Ellipse 4623">
<circle cx="196" cy="39" r="31" fill="url(#paint0_linear_3252_4291)"/>
<circle cx="196" cy="39" r="30.5" stroke="white" stroke-opacity="0.3"/>
</g>
<g id="Frame 2147226134">
<path id="Subtract_2" d="M197.435 27.75C199.021 27.75 200.472 28.647 201.182 30.0664C201.468 30.6387 202.053 31 202.693 31H203.835C206.182 31.0002 208.085 32.9029 208.085 35.25V45.5C208.085 47.8471 206.182 49.7498 203.835 49.75H188.168C185.821 49.75 183.918 47.8472 183.918 45.5V35.25C183.918 32.9028 185.821 31 188.168 31H189.31C189.949 31 190.534 30.6385 190.82 30.0664C191.53 28.647 192.981 27.75 194.568 27.75H197.435ZM196 35.043C193.055 35.0433 190.667 37.4308 190.667 40.376C190.667 43.3213 193.055 45.7096 196 45.71C198.946 45.71 201.334 43.3215 201.334 40.376C201.334 37.4306 198.945 35.043 196 35.043ZM196 37.043C197.841 37.043 199.334 38.5352 199.334 40.376C199.334 42.2169 197.841 43.71 196 43.71C194.159 43.7096 192.667 42.2167 192.667 40.376C192.667 38.5354 194.159 37.0433 196 37.043Z" fill="white"/>
</g>
<g id="Frame" clip-path="url(#clip3_3252_4291)">
<g id="bling_fill">
<path id="Vector" d="M210.199 24.0892C210.34 23.7726 210.773 23.7571 210.943 24.0417L210.968 24.0892L211.402 25.0663C211.781 25.9192 212.412 26.636 213.209 27.1209L213.343 27.1996L214.114 27.633C214.175 27.6673 214.227 27.7164 214.265 27.7758C214.302 27.8352 214.324 27.903 214.329 27.9731C214.333 28.0432 214.32 28.1133 214.291 28.177C214.261 28.2408 214.216 28.2961 214.16 28.338L214.115 28.3671L213.343 28.8005C212.53 29.2581 211.875 29.9533 211.468 30.793L211.402 30.9338L210.968 31.9109C210.827 32.2276 210.393 32.243 210.223 31.9584L210.199 31.9109L209.765 30.9338C209.386 30.0809 208.755 29.3641 207.958 28.8792L207.823 28.8005L207.053 28.3671C206.991 28.3328 206.94 28.2837 206.902 28.2243C206.865 28.1649 206.843 28.0971 206.838 28.027C206.834 27.9569 206.847 27.8868 206.876 27.8231C206.906 27.7594 206.951 27.704 207.007 27.6621L207.052 27.633L207.823 27.1996C208.637 26.742 209.291 26.0468 209.699 25.2071L209.765 25.0663L210.199 24.0892ZM214.009 23.8838C214.216 24.3536 214.568 24.7443 215.015 24.998C215.081 25.0355 215.081 25.1313 215.015 25.1688C214.568 25.4225 214.215 25.8133 214.008 26.2834C214 26.3011 213.988 26.3161 213.971 26.3267C213.955 26.3372 213.936 26.3428 213.917 26.3428C213.897 26.3428 213.878 26.3372 213.862 26.3267C213.846 26.3161 213.833 26.3011 213.825 26.2834C213.618 25.8135 213.265 25.4228 212.819 25.1692C212.804 25.1606 212.791 25.1482 212.782 25.1332C212.774 25.1182 212.769 25.1012 212.769 25.0838C212.769 25.0665 212.774 25.0494 212.782 25.0344C212.791 25.0194 212.804 25.007 212.819 24.9984C213.265 24.7446 213.618 24.3536 213.825 23.8834C213.833 23.8657 213.846 23.8507 213.862 23.8401C213.878 23.8296 213.897 23.824 213.917 23.824C213.936 23.824 213.955 23.8296 213.971 23.8401C213.988 23.8507 214 23.8657 214.008 23.8834L214.009 23.8838Z" fill="white"/>
</g>
</g>
</g>

</g>
<defs>
<filter id="filter0_d_3252_4291" x="-20" y="-19" width="433" height="143" filterUnits="userSpaceOnUse" color-interpolation-filters="sRGB">
<feFlood flood-opacity="0" result="BackgroundImageFix"/>
<feColorMatrix in="SourceAlpha" type="matrix" values="0 0 0 0 0 0 0 0 0 0 0 0 0 0 0 0 0 0 127 0" result="hardAlpha"/>
<feOffset dy="-1"/>
<feComposite in2="hardAlpha" operator="out"/>
<feColorMatrix type="matrix" values="0 0 0 0 1 0 0 0 0 1 0 0 0 0 1 0 0 0 0.1 0"/>
<feBlend mode="normal" in2="BackgroundImageFix" result="effect1_dropShadow_3252_4291"/>
<feBlend mode="normal" in="SourceGraphic" in2="effect1_dropShadow_3252_4291" result="shape"/>
</filter>
<clipPath id="bgblur_0_3252_4291_clip_path" transform="translate(20 19)"><path d="M196 1C202.365 1 208.365 2.56507 213.635 5.33135C216.576 6.87461 219.766 8 223.087 8H393V104H0V8H168.913C172.234 8 175.424 6.87461 178.365 5.33135C183.635 2.56507 189.635 1 196 1Z"/>
</clipPath><linearGradient id="paint0_linear_3252_4291" x1="196" y1="8" x2="196" y2="70" gradientUnits="userSpaceOnUse">
<stop stop-color="#007AFF"/>
<stop offset="1" stop-color="#4EA3FF"/>
</linearGradient>
<clipPath id="clip1_3252_4291">
<rect width="393" height="96" fill="white" transform="translate(0 8)"/>
</clipPath>
<clipPath id="clip2_3252_4291">
<rect width="56" height="56" fill="white" transform="translate(54.75 11)"/>
</clipPath>
<clipPath id="clip3_3252_4291">
<rect width="10" height="10" fill="white" transform="translate(206 23)"/>
</clipPath>
<clipPath id="clip4_3252_4291">
<rect width="56" height="56" fill="white" transform="translate(282.25 11)"/>
</clipPath>
</defs>
</svg>
