<svg width="70" height="70" viewBox="0 0 70 70" fill="none" xmlns="http://www.w3.org/2000/svg">
<circle cx="35" cy="35" r="34" stroke="url(#paint0_linear_3673_27166)" stroke-width="2"/>
<circle cx="35" cy="35" r="31" fill="url(#paint1_linear_3673_27166)"/>
<circle cx="35" cy="35" r="30.5" stroke="white" stroke-opacity="0.3"/>
<path d="M36.4346 23.75C38.0215 23.75 39.472 24.647 40.1816 26.0664C40.4679 26.6387 41.0535 27 41.6934 27H42.835C45.182 27.0002 47.085 28.9029 47.085 31.25V41.5C47.085 43.8471 45.182 45.7498 42.835 45.75H27.168C24.8208 45.75 22.918 43.8472 22.918 41.5V31.25C22.918 28.9028 24.8208 27 27.168 27H28.3096C28.9493 27 29.534 26.6385 29.8203 26.0664C30.53 24.647 31.9814 23.75 33.5684 23.75H36.4346ZM35 31.043C32.0549 31.0433 29.6672 33.4308 29.667 36.376C29.667 39.3213 32.0548 41.7096 35 41.71C37.9455 41.71 40.334 39.3215 40.334 36.376C40.3338 33.4306 37.9454 31.043 35 31.043ZM35 33.043C36.8409 33.043 38.3338 34.5352 38.334 36.376C38.334 38.2169 36.841 39.71 35 39.71C33.1594 39.7096 31.667 38.2167 31.667 36.376C31.6672 34.5354 33.1595 33.0433 35 33.043Z" fill="white"/>
<g clip-path="url(#clip0_3673_27166)">
<path d="M49.1987 20.0895C49.3395 19.7728 49.7733 19.7574 49.9433 20.042L49.9678 20.0895L50.402 21.0666C50.7811 21.9194 51.4116 22.6362 52.2091 23.1211L52.3433 23.1999L53.1141 23.6332C53.1754 23.6675 53.2271 23.7166 53.2645 23.776C53.302 23.8355 53.324 23.9033 53.3285 23.9734C53.333 24.0435 53.3199 24.1136 53.2904 24.1773C53.2609 24.241 53.2159 24.2963 53.1595 24.3382L53.1145 24.3674L52.3433 24.8007C51.5297 25.2584 50.8752 25.9535 50.4674 26.7932L50.402 26.9341L49.9678 27.9111C49.827 28.2278 49.3933 28.2432 49.2233 27.9586L49.1987 27.9111L48.7645 26.9341C48.3854 26.0812 47.7549 25.3644 46.9574 24.8795L46.8233 24.8007L46.0524 24.3674C45.9911 24.3331 45.9394 24.284 45.902 24.2246C45.8645 24.1652 45.8425 24.0973 45.838 24.0272C45.8335 23.9572 45.8466 23.8871 45.8761 23.8233C45.9056 23.7596 45.9506 23.7043 46.007 23.6624L46.052 23.6332L46.8233 23.1999C47.6368 22.7422 48.2913 22.0471 48.6991 21.2074L48.7645 21.0666L49.1987 20.0895ZM53.0087 19.8841C53.2155 20.3539 53.5682 20.7446 54.0145 20.9982C54.0812 21.0357 54.0812 21.1316 54.0145 21.1691C53.568 21.4227 53.2151 21.8136 53.0083 22.2836C53.0003 22.3013 52.9875 22.3164 52.9712 22.3269C52.9549 22.3374 52.936 22.3431 52.9166 22.3431C52.8972 22.3431 52.8782 22.3374 52.862 22.3269C52.8457 22.3164 52.8328 22.3013 52.8249 22.2836C52.618 21.8137 52.2651 21.423 51.8187 21.1695C51.8036 21.1609 51.7911 21.1484 51.7824 21.1334C51.7736 21.1184 51.7691 21.1014 51.7691 21.0841C51.7691 21.0667 51.7736 21.0497 51.7824 21.0347C51.7911 21.0197 51.8036 21.0072 51.8187 20.9986C52.2653 20.7449 52.6181 20.3538 52.8249 19.8836C52.8328 19.8659 52.8457 19.8509 52.862 19.8404C52.8782 19.8298 52.8972 19.8242 52.9166 19.8242C52.936 19.8242 52.9549 19.8298 52.9712 19.8404C52.9875 19.8509 53.0003 19.8659 53.0083 19.8836L53.0087 19.8841Z" fill="white"/>
</g>
<defs>
<linearGradient id="paint0_linear_3673_27166" x1="35" y1="0" x2="35" y2="70" gradientUnits="userSpaceOnUse">
<stop stop-color="#4DA2FF"/>
<stop offset="1" stop-color="#82BEFF"/>
</linearGradient>
<linearGradient id="paint1_linear_3673_27166" x1="35" y1="4" x2="35" y2="66" gradientUnits="userSpaceOnUse">
<stop stop-color="#007AFF"/>
<stop offset="1" stop-color="#4EA3FF"/>
</linearGradient>
<clipPath id="clip0_3673_27166">
<rect width="10" height="10" fill="white" transform="translate(45 19)"/>
</clipPath>
</defs>
</svg>
