<svg width="62" height="62" viewBox="0 0 62 62" fill="none" xmlns="http://www.w3.org/2000/svg">
<g transform="translate(-165 -59)">
<g id="Frame 2147226143">
<g id="Ellipse 4623">
<circle cx="196" cy="90" r="31" fill="url(#paint0_linear_3252_4291)"/>
<circle cx="196" cy="90" r="30.5" stroke="white" stroke-opacity="0.3"/>
</g>
<g id="Frame 2147226134">
<path id="Subtract_2" d="M197.435 78.75C199.021 78.75 200.472 79.647 201.182 81.0664C201.468 81.6387 202.053 82 202.693 82H203.835C206.182 82.0002 208.085 83.9029 208.085 86.25V96.5C208.085 98.8471 206.182 100.75 203.835 100.75H188.168C185.821 100.75 183.918 98.8472 183.918 96.5V86.25C183.918 83.9028 185.821 82 188.168 82H189.31C189.949 82 190.534 81.6385 190.82 81.0664C191.53 79.647 192.981 78.75 194.568 78.75H197.435ZM196 86.043C193.055 86.0433 190.667 88.4308 190.667 91.376C190.667 94.3213 193.055 96.7096 196 96.71C198.946 96.71 201.334 94.3215 201.334 91.376C201.334 88.4306 198.945 86.043 196 86.043ZM196 88.043C197.841 88.043 199.334 89.5352 199.334 91.376C199.334 93.2169 197.841 94.71 196 94.71C194.159 94.7096 192.667 93.2167 192.667 91.376C192.667 89.5354 194.159 88.0433 196 88.043Z" fill="white"/>
</g>
<g id="Frame" clip-path="url(#clip3_3252_4291)">
<g id="bling_fill">
<path id="Vector" d="M210.199 75.0892C210.34 74.7726 210.773 74.7571 210.943 75.0417L210.968 75.0892L211.402 76.0663C211.781 76.9192 212.412 77.636 213.209 78.1209L213.343 78.1996L214.114 78.633C214.175 78.6673 214.227 78.7164 214.265 78.7758C214.302 78.8352 214.324 78.903 214.329 78.9731C214.333 79.0432 214.32 79.1133 214.29 79.177C214.261 79.2408 214.216 79.2961 214.16 79.338L214.115 79.3671L213.343 79.8005C212.53 80.2581 211.875 80.9533 211.467 81.793L211.402 81.9338L210.968 82.9109C210.827 83.2276 210.393 83.243 210.223 82.9584L210.199 82.9109L209.765 81.9338C209.385 81.0809 208.755 80.3641 207.957 79.8792L207.823 79.8005L207.052 79.3671C206.991 79.3328 206.939 79.2837 206.902 79.2243C206.865 79.1649 206.843 79.0971 206.838 79.027C206.834 78.9569 206.847 78.8868 206.876 78.8231C206.906 78.7594 206.951 78.704 207.007 78.6621L207.052 78.633L207.823 78.1996C208.637 77.742 209.291 77.0468 209.699 76.2071L209.765 76.0663L210.199 75.0892ZM214.009 74.8838C214.216 75.3536 214.568 75.7443 215.015 75.998C215.081 76.0355 215.081 76.1313 215.015 76.1688C214.568 76.4225 214.215 76.8133 214.008 77.2834C214 77.3011 213.988 77.3161 213.971 77.3267C213.955 77.3372 213.936 77.3428 213.917 77.3428C213.897 77.3428 213.878 77.3372 213.862 77.3267C213.846 77.3161 213.833 77.3011 213.825 77.2834C213.618 76.8135 213.265 76.4228 212.819 76.1692C212.804 76.1606 212.791 76.1482 212.782 76.1332C212.774 76.1182 212.769 76.1012 212.769 76.0838C212.769 76.0665 212.774 76.0494 212.782 76.0344C212.791 76.0194 212.804 76.007 212.819 75.9984C213.265 75.7446 213.618 75.3536 213.825 74.8834C213.833 74.8657 213.846 74.8507 213.862 74.8401C213.878 74.8296 213.897 74.824 213.917 74.824C213.936 74.824 213.955 74.8296 213.971 74.8401C213.988 74.8507 214 74.8657 214.008 74.8834L214.009 74.8838Z" fill="white"/>
</g>
</g>
</g>

</g>
<defs>
<filter id="filter0_d_3252_4291" x="-40" y="0" width="473" height="183" filterUnits="userSpaceOnUse" color-interpolation-filters="sRGB">
<feFlood flood-opacity="0" result="BackgroundImageFix"/>
<feColorMatrix in="SourceAlpha" type="matrix" values="0 0 0 0 0 0 0 0 0 0 0 0 0 0 0 0 0 0 127 0" result="hardAlpha"/>
<feOffset dy="-12"/>
<feGaussianBlur stdDeviation="20"/>
<feComposite in2="hardAlpha" operator="out"/>
<feColorMatrix type="matrix" values="0 0 0 0 0.0955659 0 0 0 0 0.229888 0 0 0 0 0.479342 0 0 0 0.06 0"/>
<feBlend mode="normal" in2="BackgroundImageFix" result="effect1_dropShadow_3252_4291"/>
<feBlend mode="normal" in="SourceGraphic" in2="effect1_dropShadow_3252_4291" result="shape"/>
</filter>
<linearGradient id="paint0_linear_3252_4291" x1="196" y1="59" x2="196" y2="121" gradientUnits="userSpaceOnUse">
<stop stop-color="#007AFF"/>
<stop offset="1" stop-color="#4EA3FF"/>
</linearGradient>
<clipPath id="clip0_3252_4291">
<rect width="393" height="852" fill="white" transform="translate(0 -697)"/>
</clipPath>
<clipPath id="clip1_3252_4291">
<rect width="393" height="96" fill="white" transform="translate(0 59)"/>
</clipPath>
<clipPath id="clip2_3252_4291">
<rect width="56" height="56" fill="white" transform="translate(54.75 62)"/>
</clipPath>
<clipPath id="clip3_3252_4291">
<rect width="10" height="10" fill="white" transform="translate(206 74)"/>
</clipPath>
<clipPath id="clip4_3252_4291">
<rect width="56" height="56" fill="white" transform="translate(282.25 62)"/>
</clipPath>
</defs>
</svg>
