<svg width="393" height="155" viewBox="0 0 393 155" fill="none" xmlns="http://www.w3.org/2000/svg">
<g id="Section 1">
<g id="AI Tutor" clip-path="url(#clip0_3252_4291)">
<g id="Frame 2147226039">
<g id="TabBar">
<g id="Union" filter="url(#filter0_d_3252_4291)">
<path d="M196 52C202.365 52 208.365 53.5651 213.635 56.3313C216.576 57.8746 219.766 59 223.087 59H393V155H0V59H168.913C172.234 59 175.424 57.8746 178.365 56.3313C183.635 53.5651 189.635 52 196 52Z" fill="white"/>
</g>
<g id="Button Container">
<g id="Bottom" clip-path="url(#clip1_3252_4291)">
<g id="Tab Bar">
<g id="Frame 2147224932">
<g id="Study" clip-path="url(#clip2_3252_4291)">
<g id="Study_2">
<g id="tab_icon_history_sele">
<path id="Subtract" d="M87.75 75C89.9591 75 91.75 76.7909 91.75 79V93C91.75 95.2091 89.9591 97 87.75 97H77.75C75.5409 97 73.75 95.2091 73.75 93V79C73.75 76.7909 75.5409 75 77.75 75H87.75ZM78.0186 90C77.4663 90 77.0186 90.4477 77.0186 91C77.0186 91.5523 77.4663 92 78.0186 92H87.9561C88.5083 92 88.9561 91.5523 88.9561 91C88.9561 90.4477 88.5083 90 87.9561 90H78.0186ZM78.0186 85C77.4663 85 77.0186 85.4477 77.0186 86C77.0186 86.5523 77.4663 87 78.0186 87H81.6143C82.1665 87 82.6143 86.5523 82.6143 86C82.6143 85.4477 82.1665 85 81.6143 85H78.0186ZM87.5186 78.6963C87.3271 78.0109 86.3762 77.9569 86.1084 78.6162L85.6514 79.7412C85.5644 79.9553 85.3827 80.1175 85.1602 80.1797L83.9902 80.5059C83.3049 80.6973 83.2509 81.6482 83.9102 81.916L85.0361 82.374C85.25 82.461 85.4115 82.6419 85.4736 82.8643L85.8008 84.0342C85.9922 84.7196 86.9431 84.7736 87.2109 84.1143L87.668 82.9893C87.7549 82.7753 87.9358 82.613 88.1582 82.5508L89.3291 82.2246C90.0142 82.033 90.0683 81.0813 89.4092 80.8135L88.2832 80.3564C88.0692 80.2695 87.9069 80.0887 87.8447 79.8662L87.5186 78.6963Z" fill="#989B9E"/>
</g>
<path id="Label" d="M73.201 104.727C73.1679 104.416 73.0282 104.175 72.782 104.002C72.5381 103.829 72.2209 103.743 71.8303 103.743C71.5556 103.743 71.3201 103.784 71.1236 103.867C70.9271 103.95 70.7768 104.062 70.6726 104.205C70.5684 104.347 70.5152 104.509 70.5128 104.691C70.5128 104.843 70.5471 104.974 70.6158 105.085C70.6868 105.196 70.7827 105.291 70.9034 105.369C71.0241 105.445 71.1579 105.509 71.3047 105.561C71.4515 105.613 71.5994 105.657 71.7486 105.692L72.4304 105.863C72.705 105.927 72.969 106.013 73.2223 106.122C73.478 106.231 73.7064 106.368 73.9077 106.534C74.1113 106.7 74.2723 106.9 74.3906 107.134C74.509 107.369 74.5682 107.643 74.5682 107.958C74.5682 108.384 74.4593 108.759 74.2415 109.084C74.0237 109.406 73.7088 109.658 73.2969 109.84C72.8873 110.02 72.3913 110.11 71.8089 110.11C71.2431 110.11 70.7519 110.022 70.3352 109.847C69.9209 109.672 69.5966 109.416 69.3622 109.08C69.1302 108.744 69.0047 108.335 68.9858 107.852H70.282C70.3009 108.105 70.379 108.316 70.5163 108.484C70.6536 108.652 70.8324 108.777 71.0526 108.86C71.2751 108.943 71.5237 108.984 71.7983 108.984C72.0848 108.984 72.3357 108.942 72.5511 108.857C72.7689 108.769 72.9394 108.648 73.0625 108.494C73.1856 108.338 73.2483 108.156 73.2507 107.947C73.2483 107.758 73.1927 107.602 73.0838 107.479C72.9749 107.353 72.8222 107.249 72.6257 107.166C72.4316 107.081 72.2043 107.005 71.9439 106.939L71.1165 106.726C70.5175 106.572 70.044 106.339 69.696 106.026C69.3504 105.711 69.1776 105.294 69.1776 104.773C69.1776 104.344 69.2936 103.969 69.5256 103.647C69.7599 103.325 70.0784 103.075 70.4808 102.898C70.8833 102.718 71.339 102.628 71.848 102.628C72.3641 102.628 72.8163 102.718 73.2045 102.898C73.5952 103.075 73.9018 103.323 74.1243 103.64C74.3468 103.955 74.4616 104.317 74.4688 104.727H73.201ZM78.4096 104.545V105.54H75.274V104.545H78.4096ZM76.0481 103.239H77.3336V108.359C77.3336 108.532 77.3597 108.665 77.4118 108.757C77.4662 108.847 77.5372 108.909 77.6248 108.942C77.7124 108.975 77.8095 108.991 77.916 108.991C77.9965 108.991 78.0699 108.986 78.1362 108.974C78.2048 108.962 78.2569 108.951 78.2924 108.942L78.5091 109.947C78.4404 109.97 78.3422 109.996 78.2143 110.025C78.0888 110.053 77.935 110.07 77.7527 110.075C77.4307 110.084 77.1407 110.036 76.8826 109.929C76.6246 109.82 76.4198 109.652 76.2683 109.425C76.1191 109.197 76.0458 108.913 76.0481 108.572V103.239ZM82.9613 107.706V104.545H84.2468V110H83.0004V109.031H82.9435C82.8204 109.336 82.618 109.586 82.3363 109.78C82.0569 109.974 81.7125 110.071 81.3029 110.071C80.9454 110.071 80.6294 109.992 80.3548 109.833C80.0825 109.672 79.8694 109.439 79.7156 109.134C79.5617 108.826 79.4847 108.454 79.4847 108.018V104.545H80.7702V107.82C80.7702 108.165 80.8649 108.44 81.0543 108.643C81.2437 108.847 81.4923 108.949 81.8001 108.949C81.9895 108.949 82.1729 108.903 82.3505 108.81C82.5281 108.718 82.6737 108.581 82.7873 108.398C82.9033 108.214 82.9613 107.983 82.9613 107.706ZM87.5929 110.096C87.1644 110.096 86.7808 109.986 86.4423 109.766C86.1038 109.545 85.8362 109.226 85.6397 108.807C85.4432 108.388 85.345 107.879 85.345 107.28C85.345 106.674 85.4444 106.162 85.6433 105.746C85.8445 105.327 86.1156 105.011 86.4565 104.798C86.7974 104.582 87.1774 104.474 87.5964 104.474C87.916 104.474 88.1788 104.529 88.3848 104.638C88.5907 104.744 88.7541 104.873 88.8748 105.025C88.9956 105.174 89.0891 105.315 89.1554 105.447H89.2086V102.727H90.4977V110H89.2335V109.141H89.1554C89.0891 109.273 88.9932 109.414 88.8677 109.563C88.7422 109.71 88.5765 109.835 88.3706 109.94C88.1646 110.044 87.9054 110.096 87.5929 110.096ZM87.9515 109.041C88.2238 109.041 88.4558 108.968 88.6475 108.821C88.8393 108.672 88.9849 108.465 89.0843 108.2C89.1838 107.934 89.2335 107.625 89.2335 107.273C89.2335 106.92 89.1838 106.613 89.0843 106.353C88.9873 106.093 88.8429 105.89 88.6511 105.746C88.4617 105.601 88.2285 105.529 87.9515 105.529C87.6651 105.529 87.426 105.604 87.2342 105.753C87.0424 105.902 86.898 106.108 86.801 106.371C86.7039 106.634 86.6554 106.934 86.6554 107.273C86.6554 107.614 86.7039 107.918 86.801 108.185C86.9004 108.451 87.046 108.66 87.2377 108.814C87.4319 108.965 87.6698 109.041 87.9515 109.041ZM92.6665 112.045C92.4914 112.045 92.3292 112.031 92.18 112.003C92.0333 111.977 91.9161 111.946 91.8285 111.911L92.1268 110.909C92.3138 110.964 92.4807 110.99 92.6275 110.987C92.7743 110.985 92.9033 110.939 93.0146 110.849C93.1282 110.761 93.2241 110.614 93.3022 110.408L93.4123 110.114L91.4343 104.545H92.7979L94.055 108.665H94.1119L95.3725 104.545H96.7397L94.5558 110.661C94.454 110.949 94.319 111.197 94.1509 111.403C93.9828 111.611 93.7769 111.77 93.533 111.879C93.2915 111.99 93.0027 112.045 92.6665 112.045Z" fill="#989B9E"/>
</g>
</g>
</g>
<g id="Frame 2147226143">
<g id="Ellipse 4623">
<circle cx="196" cy="90" r="31" fill="url(#paint0_linear_3252_4291)"/>
<circle cx="196" cy="90" r="30.5" stroke="white" stroke-opacity="0.3"/>
</g>
<g id="Frame 2147226134">
<path id="Subtract_2" d="M197.435 78.75C199.021 78.75 200.472 79.647 201.182 81.0664C201.468 81.6387 202.053 82 202.693 82H203.835C206.182 82.0002 208.085 83.9029 208.085 86.25V96.5C208.085 98.8471 206.182 100.75 203.835 100.75H188.168C185.821 100.75 183.918 98.8472 183.918 96.5V86.25C183.918 83.9028 185.821 82 188.168 82H189.31C189.949 82 190.534 81.6385 190.82 81.0664C191.53 79.647 192.981 78.75 194.568 78.75H197.435ZM196 86.043C193.055 86.0433 190.667 88.4308 190.667 91.376C190.667 94.3213 193.055 96.7096 196 96.71C198.946 96.71 201.334 94.3215 201.334 91.376C201.334 88.4306 198.945 86.043 196 86.043ZM196 88.043C197.841 88.043 199.334 89.5352 199.334 91.376C199.334 93.2169 197.841 94.71 196 94.71C194.159 94.7096 192.667 93.2167 192.667 91.376C192.667 89.5354 194.159 88.0433 196 88.043Z" fill="white"/>
</g>
<g id="Frame" clip-path="url(#clip3_3252_4291)">
<g id="bling_fill">
<path id="Vector" d="M210.199 75.0892C210.34 74.7726 210.773 74.7571 210.943 75.0417L210.968 75.0892L211.402 76.0663C211.781 76.9192 212.412 77.636 213.209 78.1209L213.343 78.1996L214.114 78.633C214.175 78.6673 214.227 78.7164 214.265 78.7758C214.302 78.8352 214.324 78.903 214.329 78.9731C214.333 79.0432 214.32 79.1133 214.29 79.177C214.261 79.2408 214.216 79.2961 214.16 79.338L214.115 79.3671L213.343 79.8005C212.53 80.2581 211.875 80.9533 211.467 81.793L211.402 81.9338L210.968 82.9109C210.827 83.2276 210.393 83.243 210.223 82.9584L210.199 82.9109L209.765 81.9338C209.385 81.0809 208.755 80.3641 207.957 79.8792L207.823 79.8005L207.052 79.3671C206.991 79.3328 206.939 79.2837 206.902 79.2243C206.865 79.1649 206.843 79.0971 206.838 79.027C206.834 78.9569 206.847 78.8868 206.876 78.8231C206.906 78.7594 206.951 78.704 207.007 78.6621L207.052 78.633L207.823 78.1996C208.637 77.742 209.291 77.0468 209.699 76.2071L209.765 76.0663L210.199 75.0892ZM214.009 74.8838C214.216 75.3536 214.568 75.7443 215.015 75.998C215.081 76.0355 215.081 76.1313 215.015 76.1688C214.568 76.4225 214.215 76.8133 214.008 77.2834C214 77.3011 213.988 77.3161 213.971 77.3267C213.955 77.3372 213.936 77.3428 213.917 77.3428C213.897 77.3428 213.878 77.3372 213.862 77.3267C213.846 77.3161 213.833 77.3011 213.825 77.2834C213.618 76.8135 213.265 76.4228 212.819 76.1692C212.804 76.1606 212.791 76.1482 212.782 76.1332C212.774 76.1182 212.769 76.1012 212.769 76.0838C212.769 76.0665 212.774 76.0494 212.782 76.0344C212.791 76.0194 212.804 76.007 212.819 75.9984C213.265 75.7446 213.618 75.3536 213.825 74.8834C213.833 74.8657 213.846 74.8507 213.862 74.8401C213.878 74.8296 213.897 74.824 213.917 74.824C213.936 74.824 213.955 74.8296 213.971 74.8401C213.988 74.8507 214 74.8657 214.008 74.8834L214.009 74.8838Z" fill="white"/>
</g>
</g>
</g>
<g id="Frame 2147224933">
<g id="AI Tutor_2" clip-path="url(#clip4_3252_4291)">
<g id="tab_icon_scan_nor_white">
<g id="Frame 2147226134_2">
<path id="Subtract_3" d="M304.439 76C306.518 76.0001 308.529 76.7437 310.107 78.0967C310.348 78.3031 310.704 78.3029 310.945 78.0967C312.524 76.7437 314.534 76.0002 316.613 76H316.809C319.153 76 321.054 77.9001 321.054 80.2441V91.5615C321.053 93.0777 319.824 94.3074 318.308 94.3076H314.46C314.141 94.3077 313.827 94.3908 313.551 94.5488L311.435 95.7578C310.872 96.0791 310.181 96.0793 309.618 95.7578L307.502 94.5488C307.225 94.3909 306.912 94.3077 306.594 94.3076H302.746C301.23 94.3074 300 93.0777 300 91.5615V80.2441C300 77.9002 301.9 76.0002 304.244 76H304.439ZM308.763 81.4912C308.502 81.4912 308.252 81.5952 308.068 81.7793C307.884 81.9634 307.78 82.2133 307.78 82.4736V88.748C307.78 88.9231 307.827 89.0952 307.916 89.2461C308.005 89.397 308.133 89.5215 308.286 89.6064C308.439 89.6914 308.613 89.7341 308.788 89.7295C308.963 89.7249 309.134 89.6738 309.282 89.5811L314.302 86.4434C314.443 86.3551 314.56 86.2325 314.641 86.0869C314.721 85.9413 314.764 85.7769 314.764 85.6104C314.764 85.444 314.721 85.2803 314.641 85.1348C314.56 84.9891 314.443 84.8666 314.302 84.7783L309.282 81.6406C309.126 81.5433 308.946 81.4913 308.763 81.4912Z" fill="#007AFF"/>
</g>
<path id="Label_2" d="M292.869 110H291.705L294.322 102.727H295.59L298.207 110H297.042L294.986 104.048H294.929L292.869 110ZM293.065 107.152H296.843V108.075H293.065V107.152ZM300.354 102.727V110H299.257V102.727H300.354ZM304.24 103.672V102.727H309.869V103.672H307.6V110H306.506V103.672H304.24ZM313.74 107.738V104.545H314.806V110H313.762V109.055H313.705C313.579 109.347 313.378 109.589 313.101 109.783C312.826 109.975 312.484 110.071 312.075 110.071C311.724 110.071 311.414 109.994 311.144 109.84C310.877 109.684 310.666 109.453 310.512 109.148C310.361 108.842 310.285 108.465 310.285 108.015V104.545H311.347V107.887C311.347 108.259 311.45 108.555 311.656 108.775C311.862 108.995 312.129 109.105 312.458 109.105C312.657 109.105 312.855 109.055 313.051 108.956C313.25 108.857 313.415 108.706 313.545 108.505C313.678 108.304 313.743 108.048 313.74 107.738ZM318.778 104.545V105.398H315.799V104.545H318.778ZM316.598 103.239H317.66V108.398C317.66 108.604 317.691 108.759 317.752 108.864C317.814 108.965 317.893 109.035 317.99 109.073C318.09 109.109 318.197 109.126 318.313 109.126C318.399 109.126 318.473 109.121 318.537 109.109C318.601 109.097 318.651 109.087 318.686 109.08L318.878 109.957C318.816 109.981 318.729 110.005 318.615 110.028C318.502 110.054 318.359 110.069 318.189 110.071C317.91 110.076 317.649 110.026 317.408 109.922C317.166 109.818 316.971 109.657 316.822 109.439C316.673 109.221 316.598 108.948 316.598 108.619V103.239ZM322.192 110.11C321.681 110.11 321.234 109.993 320.853 109.759C320.472 109.524 320.176 109.196 319.965 108.775C319.755 108.353 319.649 107.861 319.649 107.298C319.649 106.732 319.755 106.237 319.965 105.813C320.176 105.389 320.472 105.06 320.853 104.826C321.234 104.592 321.681 104.474 322.192 104.474C322.703 104.474 323.15 104.592 323.531 104.826C323.912 105.06 324.208 105.389 324.419 105.813C324.629 106.237 324.735 106.732 324.735 107.298C324.735 107.861 324.629 108.353 324.419 108.775C324.208 109.196 323.912 109.524 323.531 109.759C323.15 109.993 322.703 110.11 322.192 110.11ZM322.196 109.219C322.527 109.219 322.802 109.131 323.019 108.956C323.237 108.781 323.398 108.548 323.502 108.256C323.609 107.965 323.662 107.644 323.662 107.294C323.662 106.946 323.609 106.626 323.502 106.335C323.398 106.042 323.237 105.806 323.019 105.629C322.802 105.451 322.527 105.362 322.196 105.362C321.862 105.362 321.585 105.451 321.365 105.629C321.147 105.806 320.985 106.042 320.878 106.335C320.774 106.626 320.722 106.946 320.722 107.294C320.722 107.644 320.774 107.965 320.878 108.256C320.985 108.548 321.147 108.781 321.365 108.956C321.585 109.131 321.862 109.219 322.196 109.219ZM325.92 110V104.545H326.946V105.412H327.003C327.102 105.118 327.278 104.888 327.528 104.719C327.782 104.549 328.068 104.464 328.388 104.464C328.454 104.464 328.532 104.466 328.622 104.471C328.715 104.476 328.787 104.482 328.839 104.489V105.504C328.796 105.492 328.72 105.479 328.612 105.465C328.503 105.449 328.394 105.44 328.285 105.44C328.034 105.44 327.81 105.494 327.614 105.6C327.42 105.704 327.266 105.85 327.152 106.037C327.038 106.222 326.982 106.432 326.982 106.669V110H325.92Z" fill="#007AFF"/>
<g id="Frame 2147226111">
<path d="M316 75.0909C316 72.2793 318.279 70 321.091 70H330.5C334.09 70 337 72.9101 337 76.5C337 80.0899 334.09 83 330.5 83H316V75.0909Z" fill="#51A9FE"/>
<g id="1:1">
<path id="Vector_2" d="M331.362 73V80H330.094V74.2339H330.053L328.416 75.2798V74.1177L330.156 73H331.362Z" fill="white"/>
<path id="Vector_3" d="M326.5 79.1592C326.292 79.1592 326.114 79.0863 325.966 78.9404C325.818 78.7923 325.745 78.6146 325.748 78.4072C325.745 78.2021 325.818 78.0267 325.966 77.8809C326.114 77.735 326.292 77.6621 326.5 77.6621C326.7 77.6621 326.874 77.735 327.023 77.8809C327.173 78.0267 327.249 78.2021 327.252 78.4072C327.249 78.5462 327.213 78.6727 327.142 78.7866C327.074 78.9006 326.983 78.9917 326.869 79.0601C326.757 79.1261 326.634 79.1592 326.5 79.1592ZM326.5 75.6899C326.292 75.6899 326.114 75.617 325.966 75.4712C325.818 75.3231 325.745 75.1453 325.748 74.938C325.745 74.7329 325.818 74.5575 325.966 74.4116C326.114 74.2635 326.292 74.1895 326.5 74.1895C326.7 74.1895 326.874 74.2635 327.023 74.4116C327.173 74.5575 327.249 74.7329 327.252 74.938C327.249 75.0747 327.213 75.2 327.142 75.314C327.074 75.4279 326.983 75.519 326.869 75.5874C326.757 75.6558 326.634 75.6899 326.5 75.6899Z" fill="white"/>
<path id="Vector_4" d="M323.946 73V80H322.678V74.2339H322.637L321 75.2798V74.1177L322.74 73H323.946Z" fill="white"/>
</g>
</g>
</g>
</g>
</g>
</g>
<g id="home&#230;&#160;&#143;">
<rect id="Home Indicator" x="129.5" y="142" width="134" height="5" rx="2.5" fill="#111111"/>
</g>
</g>
</g>
</g>
</g>
</g>
</g>
<defs>
<filter id="filter0_d_3252_4291" x="-40" y="0" width="473" height="183" filterUnits="userSpaceOnUse" color-interpolation-filters="sRGB">
<feFlood flood-opacity="0" result="BackgroundImageFix"/>
<feColorMatrix in="SourceAlpha" type="matrix" values="0 0 0 0 0 0 0 0 0 0 0 0 0 0 0 0 0 0 127 0" result="hardAlpha"/>
<feOffset dy="-12"/>
<feGaussianBlur stdDeviation="20"/>
<feComposite in2="hardAlpha" operator="out"/>
<feColorMatrix type="matrix" values="0 0 0 0 0.0955659 0 0 0 0 0.229888 0 0 0 0 0.479342 0 0 0 0.06 0"/>
<feBlend mode="normal" in2="BackgroundImageFix" result="effect1_dropShadow_3252_4291"/>
<feBlend mode="normal" in="SourceGraphic" in2="effect1_dropShadow_3252_4291" result="shape"/>
</filter>
<linearGradient id="paint0_linear_3252_4291" x1="196" y1="59" x2="196" y2="121" gradientUnits="userSpaceOnUse">
<stop stop-color="#007AFF"/>
<stop offset="1" stop-color="#4EA3FF"/>
</linearGradient>
<clipPath id="clip0_3252_4291">
<rect width="393" height="852" fill="white" transform="translate(0 -697)"/>
</clipPath>
<clipPath id="clip1_3252_4291">
<rect width="393" height="96" fill="white" transform="translate(0 59)"/>
</clipPath>
<clipPath id="clip2_3252_4291">
<rect width="56" height="56" fill="white" transform="translate(54.75 62)"/>
</clipPath>
<clipPath id="clip3_3252_4291">
<rect width="10" height="10" fill="white" transform="translate(206 74)"/>
</clipPath>
<clipPath id="clip4_3252_4291">
<rect width="56" height="56" fill="white" transform="translate(282.25 62)"/>
</clipPath>
</defs>
</svg>
