<svg preserveAspectRatio="none" width="100%" height="100%" overflow="visible" style="display: block;" viewBox="0 0 24 24" fill="none" xmlns="http://www.w3.org/2000/svg">
<g id="Frame 2147224825">
<path id="Subtract" d="M15.3994 3C16.9898 3.00026 18.2793 4.28947 18.2793 5.87988V10.4814L15.5615 13.1992L15.125 12.7627L15.0117 12.6553C14.5158 12.2083 13.9184 11.9728 13.2988 11.918L13.0117 11.9053C12.2912 11.9053 11.5839 12.1395 11.0117 12.6553L10.8994 12.7627C10.3089 13.3532 10.042 14.1065 10.042 14.875C10.042 15.6436 10.3089 16.3977 10.8994 16.9883L13.4795 19.5684C14.0343 20.123 14.7634 20.4551 15.5918 20.4551C16.4202 20.4551 17.1493 20.123 17.7041 19.5684L16.4316 18.2949C16.1916 18.5349 15.9118 18.6553 15.5918 18.6553L15.4736 18.6494C15.2024 18.6232 14.9619 18.5049 14.752 18.2949L12.1719 15.7148C11.952 15.4949 11.8418 15.2149 11.8418 14.875C11.8419 14.5351 11.9519 14.2551 12.1719 14.0352C12.3918 13.8152 12.6718 13.7051 13.0117 13.7051C13.3516 13.7051 13.6316 13.8153 13.8516 14.0352L15.5615 15.7451L18.2793 13.0273V16.4365L16.4316 18.2949L17.7051 19.5684L17.708 19.5645L18.0654 19.2031C17.6371 20.2562 16.6062 20.9998 15.3994 21H5.55957C3.96909 21 2.67888 19.7106 2.67871 18.1201V5.87988C2.67871 4.2893 3.96899 3 5.55957 3H15.3994ZM5.34961 1.80469C5.41882 1.80119 5.48851 1.79981 5.55859 1.7998H15.3994L5.34961 1.80469Z" fill="var(--fill-0, #007AFF)"/>
<g id="Group 2087325597">
<line id="Line 87" x1="6.09453" y1="7.49961" x2="13.2348" y2="7.49961" stroke="var(--stroke-0, white)" stroke-width="1.8" stroke-linecap="round"/>
<line id="Line 88" x1="6.09443" y1="11.1001" x2="9.65857" y2="11.1001" stroke="var(--stroke-0, white)" stroke-width="1.8" stroke-linecap="round"/>
</g>
<path id="checklist" d="M15.5618 15.7454L19.8218 11.4854C20.0618 11.2454 20.3418 11.1304 20.6618 11.1404C20.9818 11.1504 21.2618 11.2754 21.5018 11.5154C21.7218 11.7554 21.8318 12.0354 21.8318 12.3554C21.8318 12.6754 21.7218 12.9554 21.5018 13.1954L16.4318 18.2954C16.1918 18.5354 15.9118 18.6554 15.5918 18.6554C15.2718 18.6554 14.9918 18.5354 14.7518 18.2954L12.1718 15.7154C11.9518 15.4954 11.8418 15.2154 11.8418 14.8754C11.8418 14.5354 11.9518 14.2554 12.1718 14.0354C12.3918 13.8154 12.6718 13.7054 13.0118 13.7054C13.3518 13.7054 13.6318 13.8154 13.8518 14.0354L15.5618 15.7454Z" fill="var(--fill-0, #40C700)"/>
</g>
</svg>
