<svg preserveAspectRatio="none" width="100%" height="100%" overflow="visible" style="display: block;" viewBox="0 0 24 24" fill="none" xmlns="http://www.w3.org/2000/svg">
<g id="Frame 2147224928">
<path id="podcasts" d="M11.6665 9.63379C12.2248 9.6338 12.7049 9.8343 13.1021 10.2314C13.4992 10.6286 13.6997 11.1087 13.6997 11.667C13.6997 12.0541 13.6071 12.4029 13.4194 12.71C13.2441 12.9968 13.0144 13.2233 12.7329 13.3906V20.3652C12.7329 20.6642 12.6311 20.9201 12.4263 21.125C12.2214 21.3299 11.9655 21.4316 11.6665 21.4316C11.3675 21.4316 11.1117 21.3299 10.9067 21.125C10.7019 20.9201 10.6001 20.6642 10.6001 20.3652V13.3867C10.3199 13.2061 10.09 12.9782 9.91455 12.6992C9.72624 12.3996 9.63331 12.0541 9.6333 11.667C9.6333 11.1087 9.83381 10.6286 10.231 10.2314C10.6281 9.8343 11.1082 9.63379 11.6665 9.63379ZM11.6665 1.90234C13.0163 1.90235 14.2863 2.15797 15.4751 2.6709C16.6619 3.18302 17.6957 3.87887 18.5747 4.75781C19.4539 5.63697 20.1504 6.67137 20.6626 7.8584C21.1755 9.04722 21.4312 10.3172 21.4312 11.667C21.4311 12.8867 21.2245 14.035 20.8091 15.1104C20.3944 16.1836 19.8205 17.1514 19.0884 18.0137C18.8935 18.2439 18.6452 18.3661 18.3501 18.375C18.0561 18.3838 17.8004 18.2803 17.5884 18.0684C17.3907 17.8707 17.2935 17.6188 17.2935 17.3213C17.2935 17.0238 17.3901 16.7587 17.5825 16.5312C18.1224 15.864 18.5431 15.1168 18.8452 14.29C19.147 13.464 19.2983 12.59 19.2983 11.667C19.2983 9.53445 18.5595 7.73185 17.0806 6.25293C15.6016 4.77401 13.799 4.03517 11.6665 4.03516C9.53395 4.03516 7.73137 4.774 6.25244 6.25293C4.77351 7.73186 4.03467 9.53444 4.03467 11.667C4.03467 12.5901 4.18605 13.4605 4.48779 14.2783C4.78989 15.097 5.21859 15.8402 5.7749 16.5078L5.84229 16.5938C5.98983 16.7986 6.06793 17.0285 6.07568 17.2812C6.0846 17.5754 5.98118 17.8318 5.76904 18.0439C5.55695 18.256 5.29787 18.3633 4.99756 18.3633C4.69427 18.3633 4.44077 18.2455 4.24463 18.0137C3.51253 17.1514 2.93861 16.1836 2.52393 15.1104C2.10846 14.035 1.90186 12.8867 1.90186 11.667C1.90186 10.3172 2.1575 9.04723 2.67041 7.8584C3.18262 6.67137 3.87817 5.63697 4.75732 4.75781C5.63648 3.87866 6.67088 3.18311 7.85791 2.6709C9.04674 2.15799 10.3167 1.90234 11.6665 1.90234ZM11.6665 5.76758C13.3035 5.76759 14.6987 6.34174 15.8452 7.48828C16.9917 8.63482 17.5659 10.03 17.5659 11.667C17.5659 12.3544 17.4545 13.0066 17.2329 13.6221C17.0122 14.2351 16.7134 14.7876 16.3364 15.2793V15.2803C16.1563 15.5142 15.9103 15.6356 15.6079 15.6445C15.3066 15.6534 15.0463 15.5507 14.8335 15.3379C14.6366 15.141 14.5356 14.8904 14.5269 14.5938C14.5182 14.2993 14.6001 14.0292 14.772 13.7871C14.9767 13.4721 15.1382 13.1375 15.2563 12.7832C15.3736 12.4315 15.4321 12.0595 15.4321 11.667C15.4321 10.6306 15.0642 9.74532 14.3257 9.00684C13.5873 8.26866 12.7027 7.90138 11.6665 7.90137C10.6301 7.90137 9.74484 8.26835 9.00635 9.00684C8.26786 9.74532 7.90088 10.6306 7.90088 11.667C7.90088 12.0761 7.95979 12.4521 8.07666 12.7949C8.19472 13.1411 8.35611 13.4718 8.56104 13.7871C8.73248 14.0286 8.81485 14.2949 8.80615 14.582C8.79728 14.8713 8.69567 15.1172 8.49951 15.3135C8.28815 15.5248 8.03021 15.6357 7.73096 15.6445C7.42351 15.6536 7.17479 15.5293 6.99463 15.2773V15.2764C6.61893 14.7697 6.32054 14.2144 6.1001 13.6104C5.87837 13.0027 5.76709 12.3544 5.76709 11.667C5.76709 10.0299 6.34124 8.63483 7.48779 7.48828C8.63434 6.34173 10.0295 5.76758 11.6665 5.76758Z" fill="var(--fill-0, #007AFF)" stroke="var(--stroke-0, #007AFF)" stroke-width="0.2"/>
</g>
</svg>
