<svg preserveAspectRatio="none" width="100%" height="100%" overflow="visible" style="display: block;" viewBox="0 0 24 24" fill="none" xmlns="http://www.w3.org/2000/svg">
<g id="Frame 2147224848">
<path id="Subtract" d="M15.3994 3C16.7521 3.00022 17.8834 3.93394 18.1924 5.19141C17.9921 5.16161 17.788 5.14747 17.5811 5.14746C16.4798 5.14746 15.4782 5.58001 14.6895 6.40137C13.8764 7.24827 13.4668 8.34065 13.4668 9.52734V11.7607C13.2993 11.7313 13.1274 11.7158 12.9521 11.7158C12.0866 11.7159 11.3232 12.0922 10.7627 12.7246L10.6533 12.8545C10.0495 13.6089 9.81242 14.5787 10.0156 15.5625L10.0146 15.5635C10.0158 15.569 10.0174 15.5746 10.0186 15.5801C10.0207 15.5902 10.0222 15.6012 10.0244 15.6113L10.0254 15.6104C10.3538 17.2149 11.0786 18.6171 12.1816 19.7666C12.6481 20.2527 13.1572 20.6628 13.7021 21H5.55957C3.96909 21 2.67888 19.7106 2.67871 18.1201V5.87988C2.67871 4.2893 3.96899 3 5.55957 3H15.3994Z" fill="var(--fill-0, #007AFF)"/>
<g id="Group 2087325597">
<line id="Line 87" x1="6.9" y1="7.49961" x2="11.1" y2="7.49961" stroke="var(--stroke-0, white)" stroke-width="1.8" stroke-linecap="round"/>
<line id="Line 88" x1="6.9" y1="11.1001" x2="8.7" y2="11.1001" stroke="var(--stroke-0, white)" stroke-width="1.8" stroke-linecap="round"/>
</g>
<path id="speech_to_text" d="M17.5808 16.0286C17.0151 16.0286 16.5308 15.8314 16.128 15.4371C15.7251 15.0429 15.5237 14.5543 15.5237 13.9714V9.85714C15.5237 9.27429 15.7251 8.78571 16.128 8.39143C16.5308 7.99714 17.0151 7.8 17.5808 7.8C18.1637 7.8 18.6523 7.99714 19.0465 8.39143C19.4408 8.78571 19.638 9.27429 19.638 9.85714V13.9714C19.638 14.5543 19.4408 15.0429 19.0465 15.4371C18.6523 15.8314 18.1637 16.0286 17.5808 16.0286ZM17.5808 17.5714C18.4037 17.5714 19.1237 17.3357 19.7408 16.8643C20.358 16.3929 20.7865 15.7886 21.0265 15.0514C21.1123 14.76 21.258 14.5071 21.4637 14.2929C21.6694 14.0786 21.918 13.9714 22.2094 13.9714C22.5008 13.9714 22.7451 14.0871 22.9423 14.3186C23.1394 14.55 23.2037 14.8114 23.1351 15.1029C22.8951 16.2343 22.368 17.2029 21.5537 18.0086C20.7394 18.8143 19.758 19.32 18.6094 19.5257V21.1714C18.6094 21.4629 18.5108 21.7071 18.3137 21.9043C18.1165 22.1014 17.8723 22.2 17.5808 22.2C17.2894 22.2 17.0451 22.1014 16.848 21.9043C16.6508 21.7071 16.5523 21.4629 16.5523 21.1714V19.5257C15.4208 19.32 14.4437 18.8143 13.6208 18.0086C12.798 17.2029 12.2665 16.2343 12.0265 15.1029C11.958 14.8114 12.0223 14.55 12.2194 14.3186C12.4165 14.0871 12.6608 13.9714 12.9523 13.9714C13.2437 13.9714 13.4923 14.0786 13.698 14.2929C13.9037 14.5071 14.0494 14.76 14.1351 15.0514C14.3751 15.7886 14.808 16.3929 15.4337 16.8643C16.0594 17.3357 16.7751 17.5714 17.5808 17.5714Z" fill="var(--fill-0, #00A2FF)"/>
</g>
</svg>
