<svg preserveAspectRatio="none" width="100%" height="100%" overflow="visible" style="display: block;" viewBox="0 0 24 24" fill="none" xmlns="http://www.w3.org/2000/svg">
<g id="Frame 2147224824">
<g id="Group 2087325593">
<path id="Subtract" d="M7.82993 3.36802C7.4058 4.00948 7.12357 4.7589 7.03501 5.57603L5.84556 16.5477C5.63832 18.4614 6.54527 20.2375 8.04478 21.2342L7.63169 21.3368C5.92537 21.7568 4.20228 20.7139 3.78208 19.0077L1.14341 8.29185C0.72334 6.58542 1.76608 4.86134 3.47251 4.44127L7.82993 3.36802ZM8.82505 5.76939C9.01449 4.02246 10.584 2.75992 12.3309 2.94908L13.1024 3.03209C13.7985 3.45367 14.334 4.14059 14.5438 4.99302L17.1815 15.7088C17.6015 17.4152 16.5578 19.1394 14.8514 19.5594L11.5663 20.368L10.4569 20.2479C8.7098 20.0586 7.44731 18.4881 7.63657 16.7411L8.82505 5.76939Z" fill="var(--fill-0, #99C9FF)"/>
<path id="Subtract_2" d="M19.7236 3.75032C21.4707 3.93967 22.7342 5.50922 22.5449 7.25636L21.3557 18.2282C21.1663 19.9753 19.5959 21.2378 17.8488 21.0484L10.4565 20.2472C8.70946 20.0579 7.447 18.4884 7.63626 16.7413L8.82541 5.76942C9.01477 4.02228 10.5842 2.75977 12.3314 2.94913L19.7236 3.75032Z" fill="var(--fill-0, #007AFF)"/>
</g>
<path id="Vector" d="M14.379 15.3698C14.3548 15.3535 14.3279 15.3418 14.2996 15.3353C14.2947 15.3342 14.2904 15.3315 14.2873 15.3276C14.2658 15.299 14.236 15.2641 14.198 15.2229C14.1481 15.1587 14.1103 15.0858 14.0866 15.008C14.0543 14.907 14.0313 14.8315 14.0175 14.7816C14.0145 14.7714 14.013 14.7608 14.0132 14.7502C14.0124 14.7025 14.0025 14.6553 13.984 14.6113C13.9644 14.5612 13.9664 14.4783 13.9485 14.4265C13.9393 14.3983 13.9306 14.37 13.9224 14.3415C13.9184 14.3276 13.9156 14.3134 13.914 14.2991C13.91 14.2563 13.9022 14.2139 13.8907 14.1725C13.869 14.1064 13.8291 13.9807 13.7712 13.7953C13.7569 13.7548 13.7381 13.7161 13.715 13.6799C13.7001 13.6559 13.6778 13.6157 13.6482 13.5594C13.6287 13.5206 13.6026 13.4855 13.571 13.4557C13.535 13.4272 13.5025 13.3943 13.4744 13.3579C13.4562 13.3332 13.4335 13.3122 13.4074 13.296C13.3775 13.2736 13.3509 13.2472 13.3282 13.2175C13.2935 13.1843 13.2518 13.1591 13.2063 13.1437L13.2007 13.1406L12.9444 12.9686L12.9396 12.9663L12.8785 12.9427L12.8766 12.9424C12.8483 12.9217 12.8179 12.9042 12.7859 12.89C12.7591 12.8805 12.7337 12.8675 12.7104 12.8511C12.6931 12.8386 12.6553 12.8159 12.5971 12.7832C12.4918 12.7214 12.3906 12.6529 12.2941 12.5782C12.283 12.5698 12.2732 12.5599 12.2648 12.5487C12.2405 12.5167 12.2113 12.4887 12.1783 12.4656C12.1703 12.4601 12.1642 12.4522 12.1607 12.4431C12.1451 12.406 12.1255 12.3707 12.1022 12.3379L12.0996 12.3325L12.0606 12.2085L12.06 12.2047C12.0564 12.1291 12.0634 12.0534 12.0808 11.9797C12.0849 11.9619 12.0928 11.9451 12.104 11.9306C12.1251 11.9033 12.142 11.8731 12.1542 11.8408C12.1564 11.8353 12.1595 11.8302 12.1636 11.8259C12.1856 11.8067 12.2065 11.786 12.2259 11.7641C12.2549 11.7254 12.2931 11.6946 12.337 11.6744C12.3896 11.646 12.4442 11.6216 12.5004 11.6012C12.5982 11.5677 12.6986 11.5419 12.8005 11.5243L12.9422 11.5033C12.9819 11.4989 13.0211 11.4909 13.0593 11.4793C13.111 11.4634 13.1614 11.4661 13.2167 11.4523C13.235 11.4476 13.3435 11.4228 13.5424 11.3779C13.5727 11.3706 13.6023 11.3608 13.631 11.3487C13.757 11.2978 13.8794 11.2383 13.9973 11.1707C14.011 11.1626 14.024 11.1532 14.0358 11.1425C14.1048 11.0875 14.1694 11.0274 14.2292 10.9627C14.345 10.82 14.3891 10.7537 14.5228 10.5593C14.5795 10.4767 14.6255 10.385 14.6799 10.3084C14.6881 10.297 14.6938 10.2841 14.6968 10.2705L14.6988 10.2583C14.7003 10.2513 14.7032 10.2447 14.7072 10.2388C14.717 10.2241 14.7527 10.1747 14.8141 10.0907C14.8229 10.074 14.8297 10.0562 14.8344 10.0379C14.8371 10.0299 14.8409 10.0222 14.8458 10.0153L14.9187 9.91208C14.9436 9.87789 14.9735 9.84755 15.0073 9.82205C15.0906 9.75706 15.1405 9.71982 15.1572 9.71031C15.2125 9.68158 15.2721 9.66168 15.3336 9.65134L15.3383 9.65091L15.4633 9.65184C15.4684 9.65214 15.4735 9.65298 15.4784 9.65434C15.5545 9.66748 15.6273 9.69544 15.6926 9.73663C15.6986 9.74048 15.7038 9.74542 15.7079 9.7512C15.7253 9.77768 15.7468 9.80123 15.7716 9.82094C15.7918 9.8344 15.8096 9.85113 15.8242 9.87044C15.8599 9.92976 15.89 9.99228 15.9141 10.0572C15.9239 10.0912 15.9394 10.1306 15.9452 10.1654C15.9525 10.2094 15.963 10.2528 15.9766 10.2953C15.99 10.3332 15.999 10.3725 16.0035 10.4124C16.0105 10.4682 16.0237 10.5231 16.0427 10.576C16.0477 10.5895 16.0501 10.6038 16.0497 10.6181C16.0499 10.6535 16.0558 10.6887 16.0672 10.7222C16.0879 10.7927 16.1048 10.8643 16.1176 10.9367C16.1233 10.9691 16.1316 11.001 16.1423 11.0321C16.1548 11.0658 16.1664 11.1144 16.1841 11.1563C16.2086 11.2141 16.2357 11.2788 16.2654 11.3507C16.2789 11.3829 16.2953 11.4138 16.3143 11.443C16.3481 11.5033 16.388 11.5598 16.4335 11.6118C16.4661 11.6455 16.4889 11.6843 16.5244 11.717C16.5787 11.7665 16.6078 11.7927 16.6117 11.7958C16.7052 11.8677 16.8147 11.9472 16.9401 12.0343C16.9755 12.0588 17.0128 12.0631 17.0465 12.0864C17.1192 12.1363 17.2256 12.1898 17.3139 12.2489C17.3219 12.254 17.3306 12.2579 17.3397 12.2603C17.3565 12.2636 17.3725 12.2695 17.3873 12.2781C17.4514 12.3238 17.499 12.3573 17.5304 12.3784C17.5381 12.3835 17.5466 12.3874 17.5554 12.3902C17.6189 12.4092 17.6743 12.4487 17.7129 12.5026C17.7173 12.5089 17.7227 12.5145 17.7288 12.5192C17.7826 12.5521 17.8271 12.5982 17.8581 12.6531C17.8855 12.7078 17.9074 12.7652 17.9234 12.8242C17.9401 12.8822 17.9445 12.943 17.9361 13.0028C17.9303 13.099 17.8912 13.1902 17.8254 13.2607C17.808 13.2724 17.792 13.2862 17.7779 13.3018C17.7482 13.347 17.7062 13.3826 17.6567 13.4044C17.5773 13.4429 17.4953 13.4759 17.4113 13.5034C17.333 13.5244 17.2596 13.5216 17.1848 13.5479C17.1433 13.5611 17.1006 13.5704 17.0574 13.5758L16.8869 13.6006C16.8149 13.6117 16.7454 13.6399 16.6828 13.6476C16.6414 13.6515 16.6003 13.6588 16.5601 13.6694C16.4772 13.6912 16.3956 13.7181 16.3159 13.7497C16.2898 13.7609 16.2544 13.7732 16.2098 13.7866L16.2048 13.7887L15.998 13.911C15.9934 13.9137 15.9893 13.9171 15.9857 13.921C15.9444 13.9637 15.8984 14.0017 15.8486 14.0341C15.8326 14.0448 15.8182 14.0578 15.8059 14.0727C15.7768 14.1082 15.7456 14.1479 15.7125 14.1916C15.6969 14.2135 15.6791 14.2338 15.6595 14.2522C15.6362 14.281 15.616 14.3122 15.5993 14.3453C15.5779 14.3757 15.5304 14.4414 15.4568 14.5424C15.4447 14.5625 15.4348 14.5838 15.4271 14.6059C15.4225 14.6174 15.4166 14.6283 15.4094 14.6383C15.3632 14.6927 15.3247 14.7532 15.2951 14.818C15.2898 14.8329 15.2826 14.8471 15.2736 14.8601C15.2536 14.8874 15.2352 14.9158 15.2185 14.9452C15.1755 15.027 15.1251 15.1047 15.0677 15.1772C15.0199 15.2311 14.966 15.2792 14.9071 15.3206C14.8497 15.3673 14.7827 15.4006 14.7108 15.4182C14.676 15.4266 14.6402 15.4295 14.6045 15.427C14.5729 15.4255 14.5414 15.4223 14.5102 15.4174C14.4636 15.4109 14.4188 15.3949 14.379 15.3698Z" fill="var(--fill-0, #FFE100)"/>
</g>
</svg>
