<svg preserveAspectRatio="none" width="100%" height="100%" overflow="visible" style="display: block;" viewBox="0 0 18 20" fill="none" xmlns="http://www.w3.org/2000/svg">
<g id="Group 2087325676">
<path id="Subtract" d="M10.2002 0C11.8802 4.89598e-10 12.7206 0.000180648 13.3623 0.327148C13.9265 0.614723 14.3853 1.07347 14.6729 1.6377C14.7513 1.79173 14.8101 1.95778 14.8555 2.14355C14.2675 2.00033 13.4761 2 12.2002 2H6.7998C5.11978 2 4.27941 2.00018 3.6377 2.32715C3.07347 2.61472 2.61472 3.07347 2.32715 3.6377C2.00018 4.27941 2 5.11978 2 6.7998V15.2002C2 16.4761 2.00033 17.2675 2.14355 17.8555C1.95778 17.8101 1.79174 17.7513 1.6377 17.6729C1.07347 17.3853 0.614723 16.9265 0.327148 16.3623C0.000180671 15.7206 4.92212e-10 14.8802 0 13.2002V4.7998C4.89515e-10 3.11978 0.000180636 2.27941 0.327148 1.6377C0.614723 1.07347 1.07347 0.614723 1.6377 0.327148C2.27941 0.000180677 3.11978 4.93477e-10 4.7998 0H10.2002Z" fill="var(--fill-0, #99C9FF)"/>
<path id="Rectangle 279336515" d="M3 7.8C3 6.11984 3 5.27976 3.32698 4.63803C3.6146 4.07354 4.07354 3.6146 4.63803 3.32698C5.27976 3 6.11984 3 7.8 3L13.2 3C14.8802 3 15.7202 3 16.362 3.32698C16.9265 3.6146 17.3854 4.07354 17.673 4.63803C18 5.27976 18 6.11984 18 7.8V15.2C18 16.8802 18 17.7202 17.673 18.362C17.3854 18.9265 16.9265 19.3854 16.362 19.673C15.7202 20 14.8802 20 13.2 20H7.8C6.11984 20 5.27976 20 4.63803 19.673C4.07354 19.3854 3.6146 18.9265 3.32698 18.362C3 17.7202 3 16.8802 3 15.2V7.8Z" fill="var(--fill-0, #007AFF)"/>
<line id="Line 90" x1="6.4" y1="7.1" x2="13.6" y2="7.1" stroke="var(--stroke-0, white)" stroke-width="1.8" stroke-linecap="round"/>
<line id="Line 91" x1="6.4" y1="11.1" x2="12.6" y2="11.1" stroke="var(--stroke-0, white)" stroke-width="1.8" stroke-linecap="round"/>
<line id="Line 92" x1="6.4" y1="15.1" x2="8.6" y2="15.1" stroke="var(--stroke-0, white)" stroke-width="1.8" stroke-linecap="round"/>
</g>
</svg>
