<svg preserveAspectRatio="none" width="100%" height="100%" overflow="visible" style="display: block;" viewBox="0 0 18.8702 25.0004" fill="none" xmlns="http://www.w3.org/2000/svg">
<g id="Group 1000007366">
<path id="mic" d="M8.07418 22.8599V22.1541C5.98739 21.8582 4.20114 20.9706 2.71544 19.4912C1.22973 18.0118 0.328105 16.2138 0.0105502 14.0971C-0.0348148 13.7102 0.0672565 13.3801 0.316764 13.107C0.566272 12.8339 0.883827 12.6973 1.26943 12.6973C1.65503 12.6973 1.97826 12.8282 2.23911 13.09C2.49996 13.3517 2.67574 13.676 2.76647 14.0629C3.08403 15.6561 3.87225 16.9648 5.13113 17.989C6.39001 19.0132 7.82467 19.5253 9.43513 19.5253C11.0683 19.5253 12.5086 19.0076 13.7561 17.972C15.0037 16.9364 15.7862 15.6334 16.1038 14.0629C16.1945 13.676 16.3703 13.3517 16.6312 13.09C16.892 12.8282 17.2152 12.6973 17.6008 12.6973C17.9864 12.6973 18.304 12.8339 18.5535 13.107C18.803 13.3801 18.9051 13.7102 18.8597 14.0971C18.5422 16.1682 17.6462 17.9549 16.1718 19.4571C14.6975 20.9592 12.9056 21.8582 10.7961 22.1541V22.8599C10.7961 23.2469 10.6657 23.5712 10.4048 23.8329C10.144 24.0947 9.82074 24.2255 9.43513 24.2255C9.04953 24.2255 8.7263 24.0947 8.46546 23.8329C8.20461 23.5712 8.07418 23.2469 8.07418 22.8599Z" fill="var(--fill-0, #2385FF)"/>
<rect id="Rectangle 49345" x="4.00399" width="10.8613" height="18.2104" rx="5.43063" fill="var(--fill-0, #2385FF)"/>
<path id="Rectangle 49348" d="M4.00391 8.39258H14.8652V12.7805C14.8652 15.7797 12.4338 18.2111 9.43453 18.2111V18.2111C6.43528 18.2111 4.00391 15.7797 4.00391 12.7805V8.39258Z" fill="var(--fill-0, #2385FF)"/>
<path id="Rectangle 49347" d="M3.57166 8.77961C3.57166 8.17976 4.05793 7.69348 4.65778 7.69348H14.2139C14.8137 7.69348 15.3 8.17976 15.3 8.77961V8.77961C15.3 9.37946 14.8137 9.86573 14.2139 9.86573H4.65778C4.05793 9.86573 3.57166 9.37946 3.57166 8.77961V8.77961Z" fill="var(--fill-0, #C1D8FF)"/>
<path id="Rectangle 49349" d="M6.74345 23.9143C6.74345 23.3144 7.22972 22.8282 7.82957 22.8282H11.0223C11.6222 22.8282 12.1084 23.3144 12.1084 23.9143V23.9143C12.1084 24.5141 11.6222 25.0004 11.0223 25.0004H7.82957C7.22972 25.0004 6.74345 24.5141 6.74345 23.9143V23.9143Z" fill="var(--fill-0, #2385FF)"/>
</g>
</svg>
