<svg preserveAspectRatio="none" width="100%" height="100%" overflow="visible" style="display: block;" viewBox="0 0 23.1429 27" fill="none" xmlns="http://www.w3.org/2000/svg">
<g id="Group 2087325584">
<path id="Rectangle 49173" d="M7.8125e-05 3.85714C7.8125e-05 1.7269 1.72698 0 3.85722 0L15.6768 0C16.444 0 17.1799 0.304782 17.7224 0.847298L22.2956 5.42056C22.8381 5.96307 23.1429 6.69888 23.1429 7.46612V23.1429C23.1429 25.2731 21.416 27 19.2858 27H3.85722C1.72698 27 7.8125e-05 25.2731 7.8125e-05 23.1429L7.8125e-05 3.85714Z" fill="var(--fill-0, #9A7FFF)"/>
<path id="Vector 285" opacity="0.2" d="M21.1681 6.96289L15.9761 1.77092C15.5107 1.30552 14.715 1.63514 14.715 2.29331V5.63837C14.715 7.0664 15.8726 8.22405 17.3007 8.22405H20.6457C21.3039 8.22405 21.6335 7.42829 21.1681 6.96289Z" fill="var(--fill-0, #F7F5FF)"/>
<g id="Group 2087325586">
<path id="Union" d="M10.9547 9.26611C11.2421 9.63667 11.6847 9.85352 12.1536 9.85352H16.2638C17.5418 9.8537 18.5773 10.89 18.5773 12.168V18.9258C18.5773 20.2038 17.5418 21.24 16.2638 21.2402H7.39171C6.11378 21.24 5.07824 20.2038 5.07824 18.9258V10.6073C5.07824 9.54215 5.94168 8.67871 7.00678 8.67871H9.75578C10.2247 8.67871 10.6673 8.89555 10.9547 9.26611Z" fill="var(--fill-0, white)"/>
<rect id="Rectangle 279335576" x="6.0387" y="11.3232" width="11.5713" height="8.95307" rx="1.54284" fill="var(--fill-0, #9A7FFF)"/>
<path id="Rectangle 279335575" d="M5.0732 15.1843C5.0732 13.9062 6.10933 12.8701 7.38746 12.8701H16.2588C17.5369 12.8701 18.573 13.9062 18.573 15.1843V18.9262C18.573 20.2044 17.5369 21.2405 16.2588 21.2405H7.38746C6.10933 21.2405 5.0732 20.2044 5.0732 18.9262V15.1843Z" fill="var(--fill-0, white)"/>
</g>
</g>
</svg>
