<svg preserveAspectRatio="none" width="100%" height="100%" overflow="visible" style="display: block;" viewBox="0 0 19.1667 19.9984" fill="none" xmlns="http://www.w3.org/2000/svg">
<g id="Group 2087325616">
<path id="Star 1" d="M16.888 0.198996C17.0024 -0.0828648 17.4089 -0.0597822 17.4908 0.233226L17.781 1.27237C17.8075 1.3675 17.8767 1.44496 17.9682 1.48213L18.9677 1.88811C19.2495 2.00258 19.2264 2.40911 18.9335 2.49094L17.8944 2.78116C17.7993 2.80772 17.7218 2.87686 17.6847 2.96837L17.2787 3.96798C17.1642 4.24984 16.7577 4.22676 16.6759 3.93375L16.3857 2.89461C16.3591 2.79948 16.29 2.72202 16.1985 2.68485L15.199 2.27887C14.9171 2.16439 14.9402 1.75787 15.2332 1.67603L16.2723 1.38582C16.3674 1.35925 16.4448 1.29012 16.482 1.1986L16.888 0.198996Z" fill="var(--fill-0, #007AFF)"/>
<path id="Subtract" d="M8.33301 0.941121C12.9352 0.941121 16.6667 4.67173 16.667 9.27413C16.6668 13.8766 12.9353 17.6081 8.33301 17.6081C3.73088 17.6079 0.000154292 13.8765 0 9.27413C0.00025902 4.67184 3.73095 0.941288 8.33301 0.941121ZM7.35645 3.14425C7.18874 2.76577 6.7458 2.59501 6.36719 2.76241C5.17852 3.28859 4.14517 4.11257 3.36719 5.15401C2.58934 6.19544 2.09217 7.41965 1.9248 8.7087C1.87151 9.11942 2.16157 9.49615 2.57227 9.54952C2.98294 9.60268 3.35979 9.31275 3.41309 8.90206C3.54728 7.86834 3.94554 6.88658 4.56934 6.05147C5.19317 5.21643 6.02149 4.55537 6.97461 4.1335C7.35304 3.96569 7.52402 3.52285 7.35645 3.14425ZM13.627 5.71749C13.5755 5.53411 13.3209 5.51965 13.249 5.696L12.9453 6.44503C12.922 6.50238 12.8731 6.54554 12.8135 6.56221L12.0352 6.77999C11.8515 6.83134 11.837 7.08616 12.0137 7.15792L12.7627 7.46163C12.8199 7.48497 12.8633 7.53391 12.8799 7.59346L13.0967 8.37178C13.148 8.55519 13.4026 8.5695 13.4746 8.39327L13.7793 7.64425C13.8026 7.58707 13.8507 7.54379 13.9102 7.52706L14.6885 7.30928C14.8722 7.25798 14.8867 7.00313 14.71 6.93136L13.9619 6.62764C13.9045 6.60434 13.8614 6.55545 13.8447 6.49581L13.627 5.71749Z" fill="var(--fill-0, #007AFF)"/>
<path id="Subtract_2" d="M1.93495 15.8412C3.58701 17.4533 5.84389 18.4486 8.33437 18.4486C10.8199 18.4486 13.0728 17.4573 14.724 15.851C14.9014 15.8958 15.0515 16.021 15.1225 16.1957L16.3402 19.1947C16.4962 19.5785 16.2144 19.9981 15.8002 19.9984H0.857803C0.446125 19.9984 0.164045 19.5836 0.314834 19.2006L1.4955 16.2015C1.57052 16.0111 1.73822 15.8766 1.93495 15.8412Z" fill="var(--fill-0, #007AFF)"/>
</g>
</svg>
