<svg preserveAspectRatio="none" width="100%" height="100%" overflow="visible" style="display: block;" viewBox="0 0 56 56" fill="none" xmlns="http://www.w3.org/2000/svg">
<g id="Frame 2147226127">
<path id="Vector" d="M44.671 32.3981C43.1636 32.4046 41.9354 31.1772 41.9354 29.6774C41.9354 28.1767 43.1766 26.9567 44.671 26.9567C46.1727 26.9567 47.4074 28.1767 47.4074 29.6774C47.4074 31.1772 46.1793 32.3915 44.671 32.3981ZM8.95706 56H46.0365C50.5689 56 53 53.5982 53 49.1036V27.5341C53 23.0394 50.5689 20.6517 46.0365 20.6517H40.8232C39.2206 20.6517 38.6755 20.3887 37.6406 19.3431L36.0303 17.6529C34.9319 16.5373 33.8324 16 31.7631 16H23.1389C21.0697 16 19.9702 16.5373 18.8716 17.6529L17.255 19.3431C16.22 20.3747 15.6674 20.6517 14.0723 20.6517H8.95706C4.41729 20.6517 2 23.0394 2 27.5341V49.1036C2 53.5982 4.41729 56 8.95706 56ZM27.4967 49.3201C21.399 49.3201 16.4941 44.4325 16.4941 38.2978C16.4941 32.1771 21.399 27.296 27.4967 27.296C33.6076 27.296 38.492 32.1771 38.492 38.2978C38.492 44.4325 33.5937 49.3201 27.4967 49.3201ZM27.4967 45.2352C31.3333 45.2352 34.4184 42.153 34.4184 38.2978C34.4184 34.4498 31.3333 31.3668 27.4967 31.3668C23.6734 31.3668 20.5677 34.4498 20.5677 38.2978C20.5677 42.153 23.6873 45.2352 27.4967 45.2352Z" fill="var(--fill-0, white)" fill-opacity="0.85"/>
</g>
</svg>
