<svg preserveAspectRatio="none" width="100%" height="100%" overflow="visible" style="display: block;" viewBox="0 0 56 56" fill="none" xmlns="http://www.w3.org/2000/svg">
<g id="Frame 2147226124">
<path id="Vector" d="M36.0064 41.0086C39.8776 41.0086 42.8746 38.1126 42.8746 33.8494V21.1651C42.8746 16.895 39.8776 14 36.0064 14C32.1163 14 29.1013 16.8891 29.1013 21.1591V33.8494C29.1013 38.1126 32.1163 41.0086 36.0064 41.0086ZM36.0064 48.621C44.6864 48.621 51 43.0013 51 34.3584V30.712C51 29.6022 50.0872 28.7448 48.9564 28.7448C47.8314 28.7448 46.8938 29.6022 46.8938 30.712V34.2218C46.8938 40.6114 42.4313 44.7845 36.0064 44.7845C29.5685 44.7845 25.1061 40.6114 25.1061 34.2218V30.712C25.1061 29.6022 24.1814 28.7448 23.0376 28.7448C21.9066 28.7448 21 29.6022 21 30.712V34.3584C21 43.0013 27.3075 48.621 36.0064 48.621ZM27.151 56H44.8428C45.9679 56 46.9174 55.1008 46.9174 54.003C46.9174 52.8872 45.9679 51.9873 44.8428 51.9873H27.151C26.0321 51.9873 25.0825 52.8872 25.0825 54.003C25.0825 55.1008 26.0321 56 27.151 56ZM36.0124 55.0651C37.0952 55.0651 37.9598 54.159 37.9598 53.0791V47.4823C37.9598 46.4024 37.0952 45.4963 36.0124 45.4963C34.9296 45.4963 34.0401 46.4024 34.0401 47.4823V53.0791C34.0401 54.159 34.9296 55.0651 36.0124 55.0651Z" fill="var(--fill-0, white)" fill-opacity="0.85"/>
</g>
</svg>
