<svg preserveAspectRatio="none" width="100%" height="100%" overflow="visible" style="display: block;" viewBox="0 0 25 20" fill="none" xmlns="http://www.w3.org/2000/svg">
<g id="Group">
<path id="Vector" opacity="0" d="M25 0H0V20H25V0Z" fill="var(--fill-0, #007AFF)"/>
<path id="Vector_2" d="M19.7098 7.86908C20.3892 7.86908 20.9455 7.30901 20.9455 6.62493C20.9455 5.93261 20.3892 5.38077 19.7098 5.38077C19.0221 5.38077 18.474 5.93261 18.474 6.62493C18.474 7.30901 19.0221 7.86908 19.7098 7.86908ZM3.26907 19.3741H21.3604C23.505 19.3741 24.6313 18.2565 24.6313 16.1156V5.58706C24.6313 3.44611 23.505 2.33681 21.3604 2.33681H18.6287C17.8468 2.33681 17.5933 2.19433 17.1143 1.68724L16.326 0.827566C15.8063 0.279334 15.2855 0 14.2698 0H10.3025C9.28863 0 8.76604 0.279334 8.24803 0.827566L7.45798 1.68724C6.97903 2.18611 6.71913 2.33681 5.94362 2.33681H3.26907C1.11813 2.33681 0 3.44611 0 5.58706V16.1156C0 18.2565 1.11813 19.3741 3.26907 19.3741ZM3.38228 17.4084C2.47203 17.4084 1.95243 16.9253 1.95243 15.9505V5.76043C1.95243 4.78557 2.47203 4.30256 3.38228 4.30256H6.50906C7.40594 4.30256 7.87274 4.14103 8.37459 3.58637L9.13218 2.74134C9.68944 2.12268 9.99917 1.96576 10.8672 1.96576H13.7052C14.5749 1.96576 14.8829 2.12448 15.4329 2.73593L16.1995 3.58637C16.7014 4.13922 17.1681 4.30256 18.0633 4.30256H21.2391C22.1592 4.30256 22.6788 4.78557 22.6788 5.76043V15.9505C22.6788 16.9253 22.1592 17.4084 21.2391 17.4084H3.38228ZM12.3148 16.0719C15.2957 16.0719 17.6921 13.6672 17.6921 10.6396C17.6921 7.62186 15.3038 5.21723 12.3148 5.21723C9.32929 5.21723 6.931 7.62186 6.931 10.6396C6.931 13.6672 9.32929 16.0719 12.3148 16.0719ZM12.3148 14.2796C10.3298 14.2796 8.70305 12.6645 8.70305 10.6396C8.70305 8.62099 10.3216 7.00138 12.3148 7.00138C14.3114 7.00138 15.9201 8.62099 15.9201 10.6396C15.9201 12.6645 14.3114 14.2796 12.3148 14.2796Z" fill="var(--fill-0, #007AFF)"/>
</g>
</svg>
