<svg preserveAspectRatio="none" width="100%" height="100%" overflow="visible" style="display: block;" viewBox="0 0 21.7848 21.6" fill="none" xmlns="http://www.w3.org/2000/svg">
<g id="Group">
<path id="Vector" opacity="0" d="M21.7848 0H0V21.6H21.7848V0Z" fill="var(--fill-0, #007AFF)"/>
<path id="Vector_2" d="M11.1464 6.52405L9.63349 8.04969C10.828 8.16104 11.6738 8.5423 12.2801 9.14846C13.9746 10.8412 13.9682 13.2288 12.2936 14.9034L8.98293 18.2042C7.29832 19.887 4.92887 19.8933 3.23789 18.2088C1.54332 16.5078 1.54969 14.1383 3.2325 12.4537L4.94262 10.7454C4.6243 10.0265 4.52053 9.1361 4.69641 8.36861L1.83455 11.2151C-0.608595 13.6575 -0.617759 17.1298 1.84451 19.5921C4.31674 22.0662 7.78376 22.0499 10.2215 19.612L13.6852 16.1421C16.1311 13.6961 16.1456 10.2273 13.6734 7.76504C13.0908 7.1806 12.3029 6.73599 11.1464 6.52405ZM10.27 14.9174L11.7829 13.3917C10.5883 13.2885 9.74246 12.901 9.13631 12.2947C7.44353 10.6002 7.44811 8.21442 9.12455 6.53978L12.427 3.23908C14.118 1.55447 16.4875 1.5481 18.1802 3.24088C19.873 4.93365 19.8584 7.31307 18.1838 8.98771L16.4755 10.6961C16.792 11.4249 16.8876 12.3054 16.7217 13.0747L19.5836 10.2263C22.0249 7.78396 22.0359 4.31973 19.5736 1.84929C17.0996 -0.622938 13.6325 -0.606603 11.1866 1.83934L7.73297 5.29938C5.28704 7.74531 5.27249 11.2142 7.74293 13.6764C8.32737 14.2609 9.11341 14.7055 10.27 14.9174Z" fill="var(--fill-0, #007AFF)"/>
</g>
</svg>
