<svg preserveAspectRatio="none" width="100%" height="100%" overflow="visible" style="display: block;" viewBox="0 0 20.842 19.9964" fill="none" xmlns="http://www.w3.org/2000/svg">
<g id="Group">
<path id="Vector (Stroke)" d="M0 16.8559V10.5789C7.0828e-06 9.91177 0.540764 9.37099 1.20782 9.37099C1.87488 9.37099 2.41563 9.91177 2.41564 10.5789V16.8559C2.41564 17.2562 2.7401 17.5807 3.14033 17.5807H17.7017C18.1019 17.5807 18.4264 17.2562 18.4264 16.8559V10.5751C18.4264 9.90799 18.9671 9.36722 19.6342 9.36722C20.3012 9.36722 20.842 9.90799 20.842 10.5751V16.8559C20.842 18.5904 19.436 19.9964 17.7017 19.9964H3.14033C1.40598 19.9964 0 18.5904 0 16.8559Z" fill="var(--fill-0, #007AFF)"/>
<path id="Vector (Stroke)_2" d="M9.6585 0.270824C10.1329 -0.116158 10.8327 -0.0883681 11.2749 0.353865L15.3815 4.46059C15.8532 4.93229 15.8532 5.69688 15.3815 6.16858C14.9098 6.64028 14.1452 6.64028 13.6736 6.16858L10.4209 2.91585L7.16831 6.16858C6.69663 6.64028 5.93206 6.64028 5.46038 6.16858C4.98869 5.69688 4.98869 4.93229 5.46038 4.46059L9.56697 0.353865L9.6585 0.270824Z" fill="var(--fill-0, #007AFF)"/>
<path id="Vector (Stroke)_3" d="M9.20961 13.0713V1.20786C9.20961 0.540777 9.75037 0 10.4174 0C11.0845 0 11.6253 0.540777 11.6253 1.20786V13.0713C11.6253 13.7384 11.0845 14.2792 10.4174 14.2792C9.75037 14.2792 9.20961 13.7384 9.20961 13.0713Z" fill="var(--fill-0, #007AFF)"/>
</g>
</svg>
