<svg preserveAspectRatio="none" width="100%" height="100%" overflow="visible" style="display: block;" viewBox="0 0 48 48" fill="none" xmlns="http://www.w3.org/2000/svg">
<g id="mic">
<rect x="0.25" y="0.25" width="47.5" height="47.5" rx="23.75" fill="var(--fill-0, #ECF5FF)"/>
<rect x="0.25" y="0.25" width="47.5" height="47.5" rx="23.75" stroke="var(--stroke-0, white)" stroke-width="0.5"/>
<path id="mic_2" d="M23.8684 26.6316C22.9912 26.6316 22.2456 26.3246 21.6316 25.7105C21.0175 25.0965 20.7105 24.3509 20.7105 23.4737V17.1579C20.7105 16.2807 21.0175 15.5351 21.6316 14.9211C22.2456 14.307 22.9912 14 23.8684 14C24.7456 14 25.4912 14.307 26.1053 14.9211C26.7193 15.5351 27.0263 16.2807 27.0263 17.1579V23.4737C27.0263 24.3509 26.7193 25.0965 26.1053 25.7105C25.4912 26.3246 24.7456 26.6316 23.8684 26.6316ZM23.8684 34C23.2871 34 22.8158 33.5287 22.8158 32.9474V30.7632C20.9912 30.5175 19.4825 29.7018 18.2895 28.3158C17.3287 27.1996 16.7548 25.9355 16.5678 24.5235C16.4915 23.9471 16.9713 23.4737 17.5526 23.4737C18.134 23.4737 18.5924 23.9493 18.7005 24.5205C18.8923 25.5341 19.3737 26.4264 20.1447 27.1974C21.1711 28.2237 22.4123 28.7368 23.8684 28.7368C25.3246 28.7368 26.5658 28.2237 27.5921 27.1974C28.3631 26.4264 28.8445 25.5341 29.0363 24.5205C29.1444 23.9493 29.6029 23.4737 30.1842 23.4737C30.7656 23.4737 31.2454 23.9471 31.169 24.5235C30.982 25.9355 30.4081 27.1996 29.4474 28.3158C28.2544 29.7018 26.7456 30.5175 24.9211 30.7632V32.9474C24.9211 33.5287 24.4498 34 23.8684 34Z" fill="var(--fill-0, #007AFF)"/>
</g>
</svg>
