<svg preserveAspectRatio="none" width="100%" height="100%" overflow="visible" style="display: block;" viewBox="0 0 23.4 18" fill="none" xmlns="http://www.w3.org/2000/svg">
<g id="Group">
<path id="Vector" opacity="0" d="M23.4 0H0V18H23.4V0Z" fill="var(--fill-0, #007AFF)"/>
<path id="Vector_2" d="M3.41372 17.1863H19.1855C21.1371 17.1863 22.1099 16.1882 22.0276 14.3214L16.2649 8.96222C15.8369 8.56865 15.3231 8.36965 14.803 8.36965C14.2697 8.36965 13.7913 8.5511 13.3473 8.94468L8.9538 12.8364L7.15938 11.2315C6.75081 10.8669 6.30157 10.6836 5.8461 10.6836C5.3961 10.6836 4.99356 10.8572 4.59296 11.2218L0.921621 14.4829C0.969482 16.2594 1.80317 17.1863 3.41372 17.1863ZM3.19115 17.9965H19.8489C21.9566 17.9965 23.0401 16.9305 23.0401 14.8733V3.13119C23.0401 1.07214 21.9566 0 19.8489 0H3.19115C1.09147 0 0 1.07214 0 3.13119V14.8733C0 16.9305 1.09147 17.9965 3.19115 17.9965ZM3.30166 16.1076C2.39715 16.1076 1.90589 15.6434 1.90589 14.7067V3.29606C1.90589 2.35928 2.39715 1.88896 3.30166 1.88896H19.7384C20.635 1.88896 21.1342 2.35928 21.1342 3.29606V14.7067C21.1342 15.6434 20.635 16.1076 19.7384 16.1076H3.30166Z" fill="var(--fill-0, #007AFF)"/>
<path id="Vector_3" d="M7.53568 9.17814C8.80985 9.17814 9.86027 8.13705 9.86027 6.86281C9.86027 5.59996 8.80985 4.54922 7.53568 4.54922C6.25003 4.54922 5.19961 5.59996 5.19961 6.86281C5.19961 8.13705 6.25003 9.17814 7.53568 9.17814Z" fill="var(--fill-0, #007AFF)"/>
</g>
</svg>
