<svg preserveAspectRatio="none" width="100%" height="100%" overflow="visible" style="display: block;" viewBox="0 0 18.4 23" fill="none" xmlns="http://www.w3.org/2000/svg">
<g id="Group">
<path id="Vector" opacity="0" d="M18.4 0H0V23H18.4V0Z" fill="var(--fill-0, #007AFF)"/>
<path id="Vector_2" d="M3.41119 22.9933H14.6002C16.852 22.9933 18.0114 21.8014 18.0114 19.5153V9.8775C18.0114 8.40199 17.8236 7.7249 16.9096 6.78309L11.3924 1.11624C10.5146 0.209268 9.78485 0 8.4742 0H3.41119C1.1699 0 0 1.20059 0 3.48661V19.5153C0 21.8101 1.16129 22.9933 3.41119 22.9933ZM3.57546 20.912C2.56164 20.912 2.05788 20.3755 2.05788 19.386V3.61599C2.05788 2.63508 2.56164 2.08121 3.58408 2.08121H8.06163V7.90696C8.06163 9.42708 8.79519 10.1622 10.2916 10.1622H15.9535V19.386C15.9535 20.3755 15.4498 20.912 14.4292 20.912H3.57546ZM10.4863 8.32678C10.051 8.32678 9.87645 8.13961 9.87645 7.70131V2.37036L15.6676 8.32678H10.4863Z" fill="var(--fill-0, #007AFF)"/>
<path id="Vector_3" d="M12.7531 12.945H5.05679C4.66731 12.945 4.37614 13.2375 4.37614 13.6102C4.37614 13.9934 4.66731 14.2898 5.05679 14.2898H12.7531C13.1302 14.2898 13.4127 13.9934 13.4127 13.6102C13.4127 13.2375 13.1302 12.945 12.7531 12.945Z" fill="var(--fill-0, #007AFF)"/>
<path id="Vector_4" d="M12.7531 16.5163H5.05679C4.66731 16.5163 4.37614 16.8214 4.37614 17.2046C4.37614 17.5773 4.66731 17.8612 5.05679 17.8612H12.7531C13.1302 17.8612 13.4127 17.5773 13.4127 17.2046C13.4127 16.8214 13.1302 16.5163 12.7531 16.5163Z" fill="var(--fill-0, #007AFF)"/>
</g>
</svg>
