<svg preserveAspectRatio="none" width="100%" height="100%" overflow="visible" style="display: block;" viewBox="0 0 22.0223 16.0068" fill="none" xmlns="http://www.w3.org/2000/svg">
<g id="Group 2087325671">
<path id="Vector" d="M16.3367 1.00071H5.68559C4.69484 1.00094 3.73936 1.36823 3.00383 2.03157C2.26831 2.69491 1.805 3.6072 1.70344 4.59209C1.69744 4.64411 1.69343 4.69313 1.68643 4.74415C1.60534 5.4184 1.00071 10.4603 1.00071 12.0049C1.00071 12.8008 1.31711 13.5642 1.88031 14.127C2.44351 14.6899 3.20736 15.0061 4.00384 15.0061C5.00488 15.0061 5.50541 14.5059 6.00593 14.0057L7.4214 12.5911C7.79678 12.2159 8.30593 12.005 8.83688 12.0049H13.1854C13.7164 12.005 14.2255 12.2159 14.6009 12.5911L16.0164 14.0057C16.5169 14.5059 17.0174 15.0061 18.0184 15.0061C18.8149 15.0061 19.5788 14.6899 20.1419 14.127C20.7051 13.5642 21.0216 12.8008 21.0216 12.0049C21.0216 10.4593 20.4169 5.4184 20.3359 4.74415C20.3288 4.69413 20.3248 4.64411 20.3188 4.59309C20.2175 3.60802 19.7543 2.69549 19.0188 2.03194C18.2832 1.36839 17.3276 1.00097 16.3367 1.00071Z" fill="var(--fill-0, #007AFF)" stroke="var(--stroke-0, #007AFF)" stroke-width="2.00143" stroke-linecap="round" stroke-linejoin="round"/>
<rect id="Rectangle 279336437" x="11.5124" y="7.36497" width="4" height="2" rx="1" fill="var(--fill-0, white)"/>
<rect id="Rectangle 279336438" x="15.4997" y="4.50071" width="2.5" height="2.5" rx="1.25" fill="var(--fill-0, white)"/>
<path id="Vector_2" d="M5.00853 6.99876H9.01199" stroke="var(--stroke-0, white)" stroke-width="2" stroke-linecap="round" stroke-linejoin="round"/>
<path id="Vector_3" d="M7.0056 9.0056L7.0056 5.00213" stroke="var(--stroke-0, white)" stroke-width="2" stroke-linecap="round" stroke-linejoin="round"/>
</g>
</svg>
