<svg preserveAspectRatio="none" width="100%" height="100%" overflow="visible" style="display: block;" viewBox="0 0 24 24" fill="none" xmlns="http://www.w3.org/2000/svg">
<g id="podcast">
<g id="Group 2087325677">
<path id="Ellipse 4619" d="M7.79135 19.9574C4.94139 18.4469 3 15.4502 3 12C3 7.02944 7.02944 3 12 3C16.9706 3 21 7.02944 21 12C21 15.4502 19.0586 18.4469 16.2086 19.9574" stroke="var(--stroke-0, #007AFF)" stroke-width="2" stroke-linecap="round"/>
<path id="Ellipse 4620" d="M7.88991 14.8481C7.32883 14.0399 7 13.0584 7 12C7 9.23858 9.23858 7 12 7C14.7614 7 17 9.23858 17 12C17 13.0584 16.6712 14.0399 16.1101 14.8481" stroke="var(--stroke-0, #007AFF)" stroke-width="2" stroke-linecap="round"/>
</g>
<path id="Rectangle 279336517" d="M9.10825 17.9467C8.93092 16.9419 8.84226 16.4395 8.93833 16.0363C9.08442 15.4234 9.51087 14.9151 10.0891 14.6647C10.4694 14.5 10.9796 14.5 12 14.5C13.0204 14.5 13.5306 14.5 13.9109 14.6647C14.4891 14.9151 14.9156 15.4234 15.0617 16.0363C15.1577 16.4395 15.0691 16.9419 14.8918 17.9467L14.3476 21.0304C14.1465 22.1696 13.1567 23 12 23C10.8433 23 9.85345 22.1696 9.65243 21.0304L9.10825 17.9467Z" fill="var(--fill-0, #007AFF)"/>
<circle id="Ellipse 4621" cx="12" cy="11.5" r="2.5" fill="var(--fill-0, #007AFF)"/>
</g>
</svg>
