<svg preserveAspectRatio="none" width="100%" height="100%" overflow="visible" style="display: block;" viewBox="0 0 22.5 20.5" fill="none" xmlns="http://www.w3.org/2000/svg">
<g id="Scan Icon Container">
<g id="Union">
<path fill-rule="evenodd" clip-rule="evenodd" d="M9.92705 1.25C8.89924 1.25 7.95965 1.8307 7.5 2.75C7.04035 3.6693 6.10076 4.25 5.07295 4.25H4.25C2.59315 4.25 1.25 5.59315 1.25 7.25V16.25C1.25 17.9069 2.59315 19.25 4.25 19.25H18.25C19.9069 19.25 21.25 17.9069 21.25 16.25V7.25C21.25 5.59315 19.9069 4.25 18.25 4.25H17.4271C16.3992 4.25 15.4596 3.6693 15 2.75C14.5404 1.8307 13.6008 1.25 12.5729 1.25H9.92705Z" fill="#007AFF"/>
<path d="M15 2.75L16.118 2.19098L15 2.75ZM4.25 4.25V5.5H5.07295V4.25V3H4.25V4.25ZM1.25 16.25H2.5V7.25H1.25H0V16.25H1.25ZM18.25 19.25V18H4.25V19.25V20.5H18.25V19.25ZM21.25 7.25H20V16.25H21.25H22.5V7.25H21.25ZM17.4271 4.25V5.5H18.25V4.25V3H17.4271V4.25ZM9.92705 1.25V2.5H12.5729V1.25V0H9.92705V1.25ZM15 2.75L16.118 2.19098C15.4466 0.848203 14.0742 0 12.5729 0V1.25V2.5C13.1273 2.5 13.6341 2.8132 13.882 3.30902L15 2.75ZM17.4271 4.25V3C16.8727 3 16.3659 2.6868 16.118 2.19098L15 2.75L13.882 3.30902C14.5534 4.6518 15.9258 5.5 17.4271 5.5V4.25ZM21.25 7.25H22.5C22.5 4.90279 20.5972 3 18.25 3V4.25V5.5C19.2165 5.5 20 6.2835 20 7.25H21.25ZM18.25 19.25V20.5C20.5972 20.5 22.5 18.5972 22.5 16.25H21.25H20C20 17.2165 19.2165 18 18.25 18V19.25ZM1.25 16.25H0C0 18.5972 1.90279 20.5 4.25 20.5V19.25V18C3.2835 18 2.5 17.2165 2.5 16.25H1.25ZM4.25 4.25V3C1.90279 3 0 4.90279 0 7.25H1.25H2.5C2.5 6.2835 3.2835 5.5 4.25 5.5V4.25ZM7.5 2.75L8.61803 3.30902C8.86594 2.8132 9.37271 2.5 9.92705 2.5V1.25V0C8.42578 0 7.05336 0.848203 6.38197 2.19098L7.5 2.75ZM7.5 2.75L6.38197 2.19098C6.13406 2.6868 5.62729 3 5.07295 3V4.25V5.5C6.57422 5.5 7.94664 4.6518 8.61803 3.30902L7.5 2.75Z" fill="#007AFF"/>
</g>
<path id="Vector" d="M11.25 15.75C13.4592 15.75 15.25 13.9592 15.25 11.75C15.25 9.54085 13.4592 7.75 11.25 7.75C9.04085 7.75 7.25 9.54085 7.25 11.75C7.25 13.9592 9.04085 15.75 11.25 15.75Z" fill="#007AFF" stroke="white" stroke-width="2" stroke-linejoin="round"/>
</g>
</svg>
