<svg width="32" height="32" viewBox="0 0 32 32" fill="none" xmlns="http://www.w3.org/2000/svg">
<g clip-path="url(#clip0_3257_39119)">
<path d="M24.8837 7.1159C25.3719 7.60405 25.3719 8.39551 24.8837 8.88366L17.765 16.0024L24.4356 22.6785C24.9233 23.1668 24.9224 23.9583 24.4342 24.4462C23.9459 24.9339 23.155 24.9336 22.6671 24.4455L15.9972 17.7701L9.32737 24.44C8.83921 24.9281 8.04775 24.9282 7.5596 24.44C7.07159 23.9519 7.07152 23.1604 7.5596 22.6722L14.2302 16.0017L7.11628 8.88366C6.62831 8.39535 6.628 7.60389 7.11628 7.1159C7.60461 6.62791 8.39675 6.62826 8.88474 7.11659L15.9979 14.2339L23.116 7.1159C23.6041 6.62779 24.3956 6.62788 24.8837 7.1159Z" fill="white"/>
</g>
<defs>
<clipPath id="clip0_3257_39119">
<rect x="4" y="4" width="24" height="24" rx="6" fill="white"/>
</clipPath>
</defs>
</svg>
