<svg preserveAspectRatio="none" width="100%" height="100%" overflow="visible" style="display: block;" viewBox="0 0 20 20" fill="none" xmlns="http://www.w3.org/2000/svg">
<g id="sort">
<mask id="mask0_0_103" style="mask-type:alpha" maskUnits="userSpaceOnUse" x="0" y="0" width="20" height="20">
<rect id="Bounding box" width="20" height="20" fill="var(--fill-0, #D9D9D9)"/>
</mask>
<g mask="url(#mask0_0_103)">
<path id="sort_2" d="M8.33333 15C8.09722 15 7.89931 14.9201 7.73958 14.7604C7.57986 14.6007 7.5 14.4028 7.5 14.1667C7.5 13.9306 7.57986 13.7326 7.73958 13.5729C7.89931 13.4132 8.09722 13.3333 8.33333 13.3333H11.6667C11.9028 13.3333 12.1007 13.4132 12.2604 13.5729C12.4201 13.7326 12.5 13.9306 12.5 14.1667C12.5 14.4028 12.4201 14.6007 12.2604 14.7604C12.1007 14.9201 11.9028 15 11.6667 15H8.33333Z" fill="var(--fill-0, #595C60)"/>
<path id="sort_3" d="M5.83333 10.8333C5.59722 10.8333 5.39931 10.7535 5.23958 10.5938C5.07986 10.434 5 10.2361 5 10C5 9.76389 5.07986 9.56597 5.23958 9.40625C5.39931 9.24653 5.59722 9.16667 5.83333 9.16667H14.1667C14.4028 9.16667 14.6007 9.24653 14.7604 9.40625C14.9201 9.56597 15 9.76389 15 10C15 10.2361 14.9201 10.434 14.7604 10.5938C14.6007 10.7535 14.4028 10.8333 14.1667 10.8333H5.83333Z" fill="var(--fill-0, #595C60)"/>
<path id="sort_4" d="M3.77778 6.66667C3.55741 6.66667 3.37269 6.58681 3.22361 6.42708C3.07454 6.26736 3 6.06944 3 5.83333C3 5.59722 3.07454 5.39931 3.22361 5.23958C3.37269 5.07986 3.55741 5 3.77778 5H16.2222C16.4426 5 16.6273 5.07986 16.7764 5.23958C16.9255 5.39931 17 5.59722 17 5.83333C17 6.06944 16.9255 6.26736 16.7764 6.42708C16.6273 6.58681 16.4426 6.66667 16.2222 6.66667H3.77778Z" fill="var(--fill-0, #595C60)"/>
</g>
</g>
</svg>
