<svg preserveAspectRatio="none" width="100%" height="100%" overflow="visible" style="display: block;" viewBox="0 0 24.167 22" fill="none" xmlns="http://www.w3.org/2000/svg">
<g id="Scan Icon Container">
<path id="Subtract" d="M13.5166 0C15.1034 2.77084e-05 16.554 0.897115 17.2637 2.31641C17.5499 2.88859 18.1356 3.24988 18.7754 3.25H19.917C22.2641 3.25018 24.167 5.1529 24.167 7.5V17.75C24.167 20.0971 22.2641 21.9998 19.917 22H4.25C1.90294 21.9998 3.42245e-08 20.0971 0 17.75V7.5C0 5.1529 1.90294 3.25018 4.25 3.25H5.3916C6.03132 3.24997 6.61602 2.88843 6.90234 2.31641C7.61199 0.897115 9.06359 0.000122629 10.6504 0H13.5166ZM12.083 7.28906C9.13774 7.28924 6.75018 9.6768 6.75 12.6221C6.75 15.5675 9.13763 17.9559 12.083 17.9561C15.0284 17.9559 17.417 15.5675 17.417 12.6221C17.4168 9.6768 15.0283 7.28924 12.083 7.28906ZM12.083 9.28906C13.9237 9.28924 15.4168 10.7814 15.417 12.6221C15.417 14.4629 13.9238 15.9559 12.083 15.9561C10.2422 15.9559 8.75 14.4629 8.75 12.6221C8.75018 10.7814 10.2423 9.28924 12.083 9.28906Z" fill="var(--fill-0, #51A9FE)"/>
</g>
</svg>
