<svg preserveAspectRatio="none" width="100%" height="100%" overflow="visible" style="display: block;" viewBox="0 0 24 24" fill="none" xmlns="http://www.w3.org/2000/svg">
<g id="solve">
<path id="Subtract" d="M12.8707 2.57143C14.2309 2.57143 15.4752 3.34021 16.0836 4.55678C16.3289 5.04713 16.8302 5.35651 17.3785 5.35658H18.357C20.3689 5.35659 21.9996 6.98826 21.9996 9.00014V17.7853C21.9996 19.7972 20.3689 21.4288 18.357 21.4289H4.92829C2.91652 21.4287 1.28571 19.7971 1.28571 17.7853V9.00014C1.28573 6.98835 2.91653 5.35673 4.92829 5.35658H5.90681C6.45534 5.35658 6.95736 5.04737 7.20271 4.55678C7.811 3.3402 9.05445 2.57148 10.4146 2.57143H12.8707ZM11.6422 8.82241C9.11775 8.82263 7.0711 10.8693 7.07087 13.3937C7.071 15.9182 9.11769 17.9657 11.6422 17.966C14.1667 17.9658 16.2143 15.9182 16.2144 13.3937C16.2142 10.8692 14.1666 8.82254 11.6422 8.82241ZM11.6422 10.5372C13.2199 10.5374 14.4994 11.816 14.4996 13.3937C14.4994 14.9715 13.2199 16.251 11.6422 16.2511C10.0645 16.2509 8.78585 14.9714 8.78571 13.3937C8.78594 11.8161 10.0645 10.5375 11.6422 10.5372Z" fill="var(--fill-0, #51A9FE)"/>
</g>
</svg>
