<svg preserveAspectRatio="none" width="100%" height="100%" overflow="visible" style="display: block;" viewBox="0 0 24 24" fill="none" xmlns="http://www.w3.org/2000/svg">
<g id="tab_icon_history_sele">
<g id="History Icon Part 2">
</g>
<path id="Subtract" d="M17 1C19.2091 1 21 2.79086 21 5V19C21 21.2091 19.2091 23 17 23H7C4.79086 23 3 21.2091 3 19V5C3 2.79086 4.79086 1 7 1H17ZM7.26953 16C6.71725 16 6.26953 16.4477 6.26953 17C6.26953 17.5523 6.71725 18 7.26953 18H17.207C17.7593 18 18.207 17.5523 18.207 17C18.207 16.4477 17.7593 16 17.207 16H7.26953ZM7.26953 11C6.71725 11 6.26953 11.4477 6.26953 12C6.26953 12.5523 6.71725 13 7.26953 13H10.8652C11.4175 13 11.8652 12.5523 11.8652 12C11.8652 11.4477 11.4175 11 10.8652 11H7.26953ZM16.7686 4.69629C16.5771 4.01089 15.6262 3.95695 15.3584 4.61621L14.9004 5.74219C14.8134 5.95599 14.6325 6.11758 14.4102 6.17969L13.2402 6.50684C12.5548 6.69827 12.5008 7.6492 13.1602 7.91699L14.2852 8.37402C14.4992 8.46094 14.6614 8.64182 14.7236 8.86426L15.0498 10.0352C15.2414 10.7201 16.1919 10.7739 16.46 10.1152L16.918 8.98926C17.0049 8.7752 17.1857 8.61293 17.4082 8.55078L18.5781 8.22461C19.2635 8.03318 19.3175 7.08224 18.6582 6.81445L17.5332 6.35742C17.3191 6.27048 17.1569 6.08875 17.0947 5.86621L16.7686 4.69629Z" fill="var(--fill-0, white)" fill-opacity="0.6"/>
</g>
</svg>
