<svg preserveAspectRatio="none" width="100%" height="100%" overflow="visible" style="display: block;" viewBox="0 0 24 24" fill="none" xmlns="http://www.w3.org/2000/svg">
<g id="tab_icon_history_sele">
<g id="History Icon Part 2">
</g>
<path id="Subtract" d="M17 1C19.2091 1 21 2.79086 21 5V19C21 21.2091 19.2091 23 17 23H7C4.79086 23 3 21.2091 3 19V5C3 2.79086 4.79086 1 7 1H17ZM7.26855 16C6.71627 16 6.26855 16.4477 6.26855 17C6.26855 17.5523 6.71627 18 7.26855 18H17.2061C17.7583 18 18.2061 17.5523 18.2061 17C18.2061 16.4477 17.7583 16 17.2061 16H7.26855ZM7.26855 11C6.71627 11 6.26855 11.4477 6.26855 12C6.26855 12.5523 6.71627 13 7.26855 13H10.8643C11.4165 13 11.8643 12.5523 11.8643 12C11.8643 11.4477 11.4165 11 10.8643 11H7.26855ZM16.7686 4.69629C16.5771 4.01087 15.6262 3.95687 15.3584 4.61621L14.9014 5.74121C14.8144 5.95528 14.6327 6.11754 14.4102 6.17969L13.2402 6.50586C12.5549 6.69728 12.5009 7.64816 13.1602 7.91602L14.2861 8.37402C14.5 8.46103 14.6615 8.64191 14.7236 8.86426L15.0508 10.0342C15.2422 10.7196 16.1931 10.7736 16.4609 10.1143L16.918 8.98926C17.0049 8.77528 17.1858 8.61299 17.4082 8.55078L18.5791 8.22461C19.2642 8.03303 19.3183 7.08134 18.6592 6.81348L17.5332 6.35645C17.3192 6.26949 17.1569 6.08873 17.0947 5.86621L16.7686 4.69629Z" fill="var(--fill-0, #007AFF)"/>
</g>
</svg>
