<svg width="393" height="545" viewBox="0 0 393 545" fill="none" xmlns="http://www.w3.org/2000/svg">
<rect x="180.5" y="12" width="32" height="4" rx="2" fill="#C4C6C9"/>
<path d="M50.2931 67.6C50.2931 65.952 50.6611 64.48 51.3971 63.184C52.1491 61.872 53.1651 60.856 54.4451 60.136C55.7411 59.4 57.1891 59.032 58.7891 59.032C60.6611 59.032 62.3011 59.512 63.7091 60.472C65.1171 61.432 66.1011 62.76 66.6611 64.456H62.7971C62.4131 63.656 61.8691 63.056 61.1651 62.656C60.4771 62.256 59.6771 62.056 58.7651 62.056C57.7891 62.056 56.9171 62.288 56.1491 62.752C55.3971 63.2 54.8051 63.84 54.3731 64.672C53.9571 65.504 53.7491 66.48 53.7491 67.6C53.7491 68.704 53.9571 69.68 54.3731 70.528C54.8051 71.36 55.3971 72.008 56.1491 72.472C56.9171 72.92 57.7891 73.144 58.7651 73.144C59.6771 73.144 60.4771 72.944 61.1651 72.544C61.8691 72.128 62.4131 71.52 62.7971 70.72H66.6611C66.1011 72.432 65.1171 73.768 63.7091 74.728C62.3171 75.672 60.6771 76.144 58.7891 76.144C57.1891 76.144 55.7411 75.784 54.4451 75.064C53.1651 74.328 52.1491 73.312 51.3971 72.016C50.6611 70.72 50.2931 69.248 50.2931 67.6ZM72.891 64.768C73.323 64.064 73.883 63.512 74.571 63.112C75.275 62.712 76.075 62.512 76.971 62.512V66.04H76.083C75.027 66.04 74.227 66.288 73.683 66.784C73.155 67.28 72.891 68.144 72.891 69.376V76H69.531V62.704H72.891V64.768ZM91.5941 69.064C91.5941 69.544 91.5621 69.976 91.4981 70.36H81.7781C81.8581 71.32 82.1941 72.072 82.7861 72.616C83.3781 73.16 84.1061 73.432 84.9701 73.432C86.2181 73.432 87.1061 72.896 87.6341 71.824H91.2581C90.8741 73.104 90.1381 74.16 89.0501 74.992C87.9621 75.808 86.6261 76.216 85.0421 76.216C83.7621 76.216 82.6101 75.936 81.5861 75.376C80.5781 74.8 79.7861 73.992 79.2101 72.952C78.6501 71.912 78.3701 70.712 78.3701 69.352C78.3701 67.976 78.6501 66.768 79.2101 65.728C79.7701 64.688 80.5541 63.888 81.5621 63.328C82.5701 62.768 83.7301 62.488 85.0421 62.488C86.3061 62.488 87.4341 62.76 88.4261 63.304C89.4341 63.848 90.2101 64.624 90.7541 65.632C91.3141 66.624 91.5941 67.768 91.5941 69.064ZM88.1141 68.104C88.0981 67.24 87.7861 66.552 87.1781 66.04C86.5701 65.512 85.8261 65.248 84.9461 65.248C84.1141 65.248 83.4101 65.504 82.8341 66.016C82.2741 66.512 81.9301 67.208 81.8021 68.104H88.1141ZM93.1826 69.304C93.1826 67.96 93.4466 66.768 93.9746 65.728C94.5186 64.688 95.2466 63.888 96.1586 63.328C97.0866 62.768 98.1186 62.488 99.2546 62.488C100.247 62.488 101.111 62.688 101.847 63.088C102.599 63.488 103.199 63.992 103.647 64.6V62.704H107.031V76H103.647V74.056C103.215 74.68 102.615 75.2 101.847 75.616C101.095 76.016 100.223 76.216 99.2306 76.216C98.1106 76.216 97.0866 75.928 96.1586 75.352C95.2466 74.776 94.5186 73.968 93.9746 72.928C93.4466 71.872 93.1826 70.664 93.1826 69.304ZM103.647 69.352C103.647 68.536 103.487 67.84 103.167 67.264C102.847 66.672 102.415 66.224 101.871 65.92C101.327 65.6 100.743 65.44 100.119 65.44C99.4946 65.44 98.9186 65.592 98.3906 65.896C97.8626 66.2 97.4306 66.648 97.0946 67.24C96.7746 67.816 96.6146 68.504 96.6146 69.304C96.6146 70.104 96.7746 70.808 97.0946 71.416C97.4306 72.008 97.8626 72.464 98.3906 72.784C98.9346 73.104 99.5106 73.264 100.119 73.264C100.743 73.264 101.327 73.112 101.871 72.808C102.415 72.488 102.847 72.04 103.167 71.464C103.487 70.872 103.647 70.168 103.647 69.352ZM114.224 65.464V71.896C114.224 72.344 114.328 72.672 114.536 72.88C114.76 73.072 115.128 73.168 115.64 73.168H117.2V76H115.088C112.256 76 110.84 74.624 110.84 71.872V65.464H109.256V62.704H110.84V59.416H114.224V62.704H117.2V65.464H114.224ZM131.977 69.064C131.977 69.544 131.945 69.976 131.881 70.36H122.161C122.241 71.32 122.577 72.072 123.169 72.616C123.761 73.16 124.489 73.432 125.353 73.432C126.601 73.432 127.489 72.896 128.017 71.824H131.641C131.257 73.104 130.521 74.16 129.433 74.992C128.345 75.808 127.009 76.216 125.425 76.216C124.145 76.216 122.993 75.936 121.969 75.376C120.961 74.8 120.169 73.992 119.593 72.952C119.033 71.912 118.753 70.712 118.753 69.352C118.753 67.976 119.033 66.768 119.593 65.728C120.153 64.688 120.937 63.888 121.945 63.328C122.953 62.768 124.113 62.488 125.425 62.488C126.689 62.488 127.817 62.76 128.809 63.304C129.817 63.848 130.593 64.624 131.137 65.632C131.697 66.624 131.977 67.768 131.977 69.064ZM128.497 68.104C128.481 67.24 128.169 66.552 127.561 66.04C126.953 65.512 126.209 65.248 125.329 65.248C124.497 65.248 123.793 65.504 123.217 66.016C122.657 66.512 122.313 67.208 122.185 68.104H128.497ZM139.284 69.304C139.284 67.96 139.548 66.768 140.076 65.728C140.62 64.688 141.348 63.888 142.26 63.328C143.188 62.768 144.22 62.488 145.356 62.488C146.348 62.488 147.212 62.688 147.948 63.088C148.7 63.488 149.3 63.992 149.748 64.6V62.704H153.132V76H149.748V74.056C149.316 74.68 148.716 75.2 147.948 75.616C147.196 76.016 146.324 76.216 145.332 76.216C144.212 76.216 143.188 75.928 142.26 75.352C141.348 74.776 140.62 73.968 140.076 72.928C139.548 71.872 139.284 70.664 139.284 69.304ZM149.748 69.352C149.748 68.536 149.588 67.84 149.268 67.264C148.948 66.672 148.516 66.224 147.972 65.92C147.428 65.6 146.844 65.44 146.22 65.44C145.596 65.44 145.02 65.592 144.492 65.896C143.964 66.2 143.532 66.648 143.196 67.24C142.876 67.816 142.716 68.504 142.716 69.304C142.716 70.104 142.876 70.808 143.196 71.416C143.532 72.008 143.964 72.464 144.492 72.784C145.036 73.104 145.612 73.264 146.22 73.264C146.844 73.264 147.428 73.112 147.972 72.808C148.516 72.488 148.948 72.04 149.268 71.464C149.588 70.872 149.748 70.168 149.748 69.352ZM165.493 64.624C165.925 64.016 166.517 63.512 167.269 63.112C168.037 62.696 168.909 62.488 169.885 62.488C171.021 62.488 172.045 62.768 172.957 63.328C173.885 63.888 174.613 64.688 175.141 65.728C175.685 66.752 175.957 67.944 175.957 69.304C175.957 70.664 175.685 71.872 175.141 72.928C174.613 73.968 173.885 74.776 172.957 75.352C172.045 75.928 171.021 76.216 169.885 76.216C168.909 76.216 168.045 76.016 167.293 75.616C166.557 75.216 165.957 74.712 165.493 74.104V82.336H162.133V62.704H165.493V64.624ZM172.525 69.304C172.525 68.504 172.357 67.816 172.021 67.24C171.701 66.648 171.269 66.2 170.725 65.896C170.197 65.592 169.621 65.44 168.997 65.44C168.389 65.44 167.813 65.6 167.269 65.92C166.741 66.224 166.309 66.672 165.973 67.264C165.653 67.856 165.493 68.552 165.493 69.352C165.493 70.152 165.653 70.848 165.973 71.44C166.309 72.032 166.741 72.488 167.269 72.808C167.813 73.112 168.389 73.264 168.997 73.264C169.621 73.264 170.197 73.104 170.725 72.784C171.269 72.464 171.701 72.008 172.021 71.416C172.357 70.824 172.525 70.12 172.525 69.304ZM184.302 76.216C183.022 76.216 181.87 75.936 180.846 75.376C179.822 74.8 179.014 73.992 178.422 72.952C177.846 71.912 177.558 70.712 177.558 69.352C177.558 67.992 177.854 66.792 178.446 65.752C179.054 64.712 179.878 63.912 180.918 63.352C181.958 62.776 183.118 62.488 184.398 62.488C185.678 62.488 186.838 62.776 187.878 63.352C188.918 63.912 189.734 64.712 190.326 65.752C190.934 66.792 191.238 67.992 191.238 69.352C191.238 70.712 190.926 71.912 190.302 72.952C189.694 73.992 188.862 74.8 187.806 75.376C186.766 75.936 185.598 76.216 184.302 76.216ZM184.302 73.288C184.91 73.288 185.478 73.144 186.006 72.856C186.55 72.552 186.982 72.104 187.302 71.512C187.622 70.92 187.782 70.2 187.782 69.352C187.782 68.088 187.446 67.12 186.774 66.448C186.118 65.76 185.31 65.416 184.35 65.416C183.39 65.416 182.582 65.76 181.926 66.448C181.286 67.12 180.966 68.088 180.966 69.352C180.966 70.616 181.278 71.592 181.902 72.28C182.542 72.952 183.342 73.288 184.302 73.288ZM192.839 69.304C192.839 67.96 193.103 66.768 193.631 65.728C194.175 64.688 194.911 63.888 195.839 63.328C196.767 62.768 197.799 62.488 198.935 62.488C199.799 62.488 200.623 62.68 201.407 63.064C202.191 63.432 202.815 63.928 203.279 64.552V58.24H206.687V76H203.279V74.032C202.863 74.688 202.279 75.216 201.527 75.616C200.775 76.016 199.903 76.216 198.911 76.216C197.791 76.216 196.767 75.928 195.839 75.352C194.911 74.776 194.175 73.968 193.631 72.928C193.103 71.872 192.839 70.664 192.839 69.304ZM203.303 69.352C203.303 68.536 203.143 67.84 202.823 67.264C202.503 66.672 202.071 66.224 201.527 65.92C200.983 65.6 200.399 65.44 199.775 65.44C199.151 65.44 198.575 65.592 198.047 65.896C197.519 66.2 197.087 66.648 196.751 67.24C196.431 67.816 196.271 68.504 196.271 69.304C196.271 70.104 196.431 70.808 196.751 71.416C197.087 72.008 197.519 72.464 198.047 72.784C198.591 73.104 199.167 73.264 199.775 73.264C200.399 73.264 200.983 73.112 201.527 72.808C202.071 72.488 202.503 72.04 202.823 71.464C203.143 70.872 203.303 70.168 203.303 69.352ZM209.104 69.352C209.104 67.976 209.385 66.776 209.945 65.752C210.505 64.712 211.281 63.912 212.273 63.352C213.265 62.776 214.401 62.488 215.681 62.488C217.329 62.488 218.689 62.904 219.761 63.736C220.849 64.552 221.577 65.704 221.945 67.192H218.321C218.129 66.616 217.801 66.168 217.337 65.848C216.889 65.512 216.329 65.344 215.657 65.344C214.697 65.344 213.937 65.696 213.377 66.4C212.817 67.088 212.537 68.072 212.537 69.352C212.537 70.616 212.817 71.6 213.377 72.304C213.937 72.992 214.697 73.336 215.657 73.336C217.017 73.336 217.905 72.728 218.321 71.512H221.945C221.577 72.952 220.849 74.096 219.761 74.944C218.673 75.792 217.313 76.216 215.681 76.216C214.401 76.216 213.265 75.936 212.273 75.376C211.281 74.8 210.505 74 209.945 72.976C209.385 71.936 209.104 70.728 209.104 69.352ZM223.542 69.304C223.542 67.96 223.806 66.768 224.334 65.728C224.878 64.688 225.606 63.888 226.518 63.328C227.446 62.768 228.478 62.488 229.614 62.488C230.606 62.488 231.47 62.688 232.206 63.088C232.958 63.488 233.558 63.992 234.006 64.6V62.704H237.39V76H234.006V74.056C233.574 74.68 232.974 75.2 232.206 75.616C231.454 76.016 230.582 76.216 229.59 76.216C228.47 76.216 227.446 75.928 226.518 75.352C225.606 74.776 224.878 73.968 224.334 72.928C223.806 71.872 223.542 70.664 223.542 69.304ZM234.006 69.352C234.006 68.536 233.846 67.84 233.526 67.264C233.206 66.672 232.774 66.224 232.23 65.92C231.686 65.6 231.102 65.44 230.478 65.44C229.854 65.44 229.278 65.592 228.75 65.896C228.222 66.2 227.79 66.648 227.454 67.24C227.134 67.816 226.974 68.504 226.974 69.304C226.974 70.104 227.134 70.808 227.454 71.416C227.79 72.008 228.222 72.464 228.75 72.784C229.294 73.104 229.87 73.264 230.478 73.264C231.102 73.264 231.686 73.112 232.23 72.808C232.774 72.488 233.206 72.04 233.526 71.464C233.846 70.872 234.006 70.168 234.006 69.352ZM245.76 76.216C244.672 76.216 243.696 76.024 242.832 75.64C241.968 75.24 241.28 74.704 240.768 74.032C240.272 73.36 240 72.616 239.952 71.8H243.336C243.4 72.312 243.648 72.736 244.08 73.072C244.528 73.408 245.08 73.576 245.736 73.576C246.376 73.576 246.872 73.448 247.224 73.192C247.592 72.936 247.776 72.608 247.776 72.208C247.776 71.776 247.552 71.456 247.104 71.248C246.672 71.024 245.976 70.784 245.016 70.528C244.024 70.288 243.208 70.04 242.568 69.784C241.944 69.528 241.4 69.136 240.936 68.608C240.488 68.08 240.264 67.368 240.264 66.472C240.264 65.736 240.472 65.064 240.888 64.456C241.32 63.848 241.928 63.368 242.712 63.016C243.512 62.664 244.448 62.488 245.52 62.488C247.104 62.488 248.368 62.888 249.312 63.688C250.256 64.472 250.776 65.536 250.872 66.88H247.656C247.608 66.352 247.384 65.936 246.984 65.632C246.6 65.312 246.08 65.152 245.424 65.152C244.816 65.152 244.344 65.264 244.008 65.488C243.688 65.712 243.528 66.024 243.528 66.424C243.528 66.872 243.752 67.216 244.2 67.456C244.648 67.68 245.344 67.912 246.288 68.152C247.248 68.392 248.04 68.64 248.664 68.896C249.288 69.152 249.824 69.552 250.272 70.096C250.736 70.624 250.976 71.328 250.992 72.208C250.992 72.976 250.776 73.664 250.344 74.272C249.928 74.88 249.32 75.36 248.52 75.712C247.736 76.048 246.816 76.216 245.76 76.216ZM257.662 65.464V71.896C257.662 72.344 257.766 72.672 257.974 72.88C258.198 73.072 258.566 73.168 259.078 73.168H260.638V76H258.526C255.694 76 254.278 74.624 254.278 71.872V65.464H252.694V62.704H254.278V59.416H257.662V62.704H260.638V65.464H257.662ZM274.869 65.464H272.541V76H269.133V65.464H267.621V62.704H269.133V62.032C269.133 60.4 269.597 59.2 270.525 58.432C271.453 57.664 272.853 57.304 274.725 57.352V60.184C273.909 60.168 273.341 60.304 273.021 60.592C272.701 60.88 272.541 61.4 272.541 62.152V62.704H274.869V65.464ZM280.407 64.768C280.839 64.064 281.399 63.512 282.087 63.112C282.791 62.712 283.591 62.512 284.487 62.512V66.04H283.599C282.543 66.04 281.743 66.288 281.199 66.784C280.671 67.28 280.407 68.144 280.407 69.376V76H277.047V62.704H280.407V64.768ZM292.654 76.216C291.374 76.216 290.222 75.936 289.198 75.376C288.174 74.8 287.366 73.992 286.774 72.952C286.198 71.912 285.91 70.712 285.91 69.352C285.91 67.992 286.206 66.792 286.798 65.752C287.406 64.712 288.23 63.912 289.27 63.352C290.31 62.776 291.47 62.488 292.75 62.488C294.03 62.488 295.19 62.776 296.23 63.352C297.27 63.912 298.086 64.712 298.678 65.752C299.286 66.792 299.59 67.992 299.59 69.352C299.59 70.712 299.278 71.912 298.654 72.952C298.046 73.992 297.214 74.8 296.158 75.376C295.118 75.936 293.95 76.216 292.654 76.216ZM292.654 73.288C293.262 73.288 293.83 73.144 294.358 72.856C294.902 72.552 295.334 72.104 295.654 71.512C295.974 70.92 296.134 70.2 296.134 69.352C296.134 68.088 295.798 67.12 295.126 66.448C294.47 65.76 293.662 65.416 292.702 65.416C291.742 65.416 290.934 65.76 290.278 66.448C289.638 67.12 289.318 68.088 289.318 69.352C289.318 70.616 289.63 71.592 290.254 72.28C290.894 72.952 291.694 73.288 292.654 73.288ZM318.566 62.512C320.198 62.512 321.51 63.016 322.502 64.024C323.51 65.016 324.014 66.408 324.014 68.2V76H320.654V68.656C320.654 67.616 320.39 66.824 319.862 66.28C319.334 65.72 318.614 65.44 317.702 65.44C316.79 65.44 316.062 65.72 315.518 66.28C314.99 66.824 314.726 67.616 314.726 68.656V76H311.366V68.656C311.366 67.616 311.102 66.824 310.574 66.28C310.046 65.72 309.326 65.44 308.414 65.44C307.486 65.44 306.75 65.72 306.206 66.28C305.678 66.824 305.414 67.616 305.414 68.656V76H302.054V62.704H305.414V64.312C305.846 63.752 306.398 63.312 307.07 62.992C307.758 62.672 308.51 62.512 309.326 62.512C310.366 62.512 311.294 62.736 312.11 63.184C312.926 63.616 313.558 64.24 314.006 65.056C314.438 64.288 315.062 63.672 315.878 63.208C316.71 62.744 317.606 62.512 318.566 62.512Z" fill="#111111"/>
<rect x="24" y="107" width="345" height="76" rx="16" fill="white"/>
<path d="M67.7002 132.2C69.3417 132.2 70.7484 133.374 71.0439 134.988C71.1583 135.613 71.6308 136.201 72.2663 136.201H74C76.2091 136.201 78 137.992 78 140.201V153.801C78 156.01 76.2091 157.801 74 157.801H54C51.7909 157.801 50 156.01 50 153.801V140.201C50 137.992 51.7909 136.201 54 136.201H55.7347C56.3702 136.201 56.8426 135.613 56.957 134.988C57.2526 133.373 58.6601 132.2 60.3018 132.2H67.7002Z" fill="#6BADFF"/>
<rect x="50" y="141" width="28" height="13" fill="#2385FF"/>
<circle cx="64" cy="147.5" r="7" fill="#1D69C8"/>
<circle cx="64" cy="147.5" r="4.5" fill="#EEF5FF"/>
<circle cx="53.5996" cy="141" r="2" fill="#DFEDFF"/>
<rect x="60.4004" y="133.4" width="7.2" height="3.6" rx="1.8" fill="#EEF5FF"/>
<path d="M94.56 144.9C94.56 143.801 94.8053 142.82 95.296 141.956C95.7973 141.081 96.4747 140.404 97.328 139.924C98.192 139.433 99.1573 139.188 100.224 139.188C101.472 139.188 102.565 139.508 103.504 140.148C104.443 140.788 105.099 141.673 105.472 142.804H102.896C102.64 142.271 102.277 141.871 101.808 141.604C101.349 141.337 100.816 141.204 100.208 141.204C99.5573 141.204 98.976 141.359 98.464 141.668C97.9627 141.967 97.568 142.393 97.28 142.948C97.0027 143.503 96.864 144.153 96.864 144.9C96.864 145.636 97.0027 146.287 97.28 146.852C97.568 147.407 97.9627 147.839 98.464 148.148C98.976 148.447 99.5573 148.596 100.208 148.596C100.816 148.596 101.349 148.463 101.808 148.196C102.277 147.919 102.64 147.513 102.896 146.98H105.472C105.099 148.121 104.443 149.012 103.504 149.652C102.576 150.281 101.483 150.596 100.224 150.596C99.1573 150.596 98.192 150.356 97.328 149.876C96.4747 149.385 95.7973 148.708 95.296 147.844C94.8053 146.98 94.56 145.999 94.56 144.9ZM106.809 146.036C106.809 145.14 106.985 144.345 107.337 143.652C107.7 142.959 108.185 142.425 108.793 142.052C109.412 141.679 110.1 141.492 110.857 141.492C111.519 141.492 112.095 141.625 112.585 141.892C113.087 142.159 113.487 142.495 113.785 142.9V141.636H116.041V150.5H113.785V149.204C113.497 149.62 113.097 149.967 112.585 150.244C112.084 150.511 111.503 150.644 110.841 150.644C110.095 150.644 109.412 150.452 108.793 150.068C108.185 149.684 107.7 149.145 107.337 148.452C106.985 147.748 106.809 146.943 106.809 146.036ZM113.785 146.068C113.785 145.524 113.679 145.06 113.465 144.676C113.252 144.281 112.964 143.983 112.601 143.78C112.239 143.567 111.849 143.46 111.433 143.46C111.017 143.46 110.633 143.561 110.281 143.764C109.929 143.967 109.641 144.265 109.417 144.66C109.204 145.044 109.097 145.503 109.097 146.036C109.097 146.569 109.204 147.039 109.417 147.444C109.641 147.839 109.929 148.143 110.281 148.356C110.644 148.569 111.028 148.676 111.433 148.676C111.849 148.676 112.239 148.575 112.601 148.372C112.964 148.159 113.252 147.86 113.465 147.476C113.679 147.081 113.785 146.612 113.785 146.068ZM129.237 141.508C130.325 141.508 131.2 141.844 131.861 142.516C132.533 143.177 132.869 144.105 132.869 145.3V150.5H130.629V145.604C130.629 144.911 130.453 144.383 130.101 144.02C129.749 143.647 129.269 143.46 128.661 143.46C128.053 143.46 127.568 143.647 127.205 144.02C126.853 144.383 126.677 144.911 126.677 145.604V150.5H124.437V145.604C124.437 144.911 124.261 144.383 123.909 144.02C123.557 143.647 123.077 143.46 122.469 143.46C121.85 143.46 121.36 143.647 120.997 144.02C120.645 144.383 120.469 144.911 120.469 145.604V150.5H118.229V141.636H120.469V142.708C120.757 142.335 121.125 142.041 121.573 141.828C122.032 141.615 122.533 141.508 123.077 141.508C123.77 141.508 124.389 141.657 124.933 141.956C125.477 142.244 125.898 142.66 126.197 143.204C126.485 142.692 126.901 142.281 127.445 141.972C128 141.663 128.597 141.508 129.237 141.508ZM143.235 145.876C143.235 146.196 143.213 146.484 143.171 146.74H136.691C136.744 147.38 136.968 147.881 137.363 148.244C137.757 148.607 138.243 148.788 138.819 148.788C139.651 148.788 140.243 148.431 140.595 147.716H143.011C142.755 148.569 142.264 149.273 141.539 149.828C140.813 150.372 139.923 150.644 138.867 150.644C138.013 150.644 137.245 150.457 136.563 150.084C135.891 149.7 135.363 149.161 134.979 148.468C134.605 147.775 134.419 146.975 134.419 146.068C134.419 145.151 134.605 144.345 134.979 143.652C135.352 142.959 135.875 142.425 136.547 142.052C137.219 141.679 137.992 141.492 138.867 141.492C139.709 141.492 140.461 141.673 141.123 142.036C141.795 142.399 142.312 142.916 142.675 143.588C143.048 144.249 143.235 145.012 143.235 145.876ZM140.915 145.236C140.904 144.66 140.696 144.201 140.291 143.86C139.885 143.508 139.389 143.332 138.803 143.332C138.248 143.332 137.779 143.503 137.395 143.844C137.021 144.175 136.792 144.639 136.707 145.236H140.915ZM147.11 143.012C147.398 142.543 147.771 142.175 148.23 141.908C148.699 141.641 149.232 141.508 149.83 141.508V143.86H149.238C148.534 143.86 148 144.025 147.638 144.356C147.286 144.687 147.11 145.263 147.11 146.084V150.5H144.87V141.636H147.11V143.012ZM150.762 146.036C150.762 145.14 150.938 144.345 151.29 143.652C151.653 142.959 152.138 142.425 152.746 142.052C153.365 141.679 154.053 141.492 154.81 141.492C155.472 141.492 156.048 141.625 156.538 141.892C157.04 142.159 157.44 142.495 157.738 142.9V141.636H159.994V150.5H157.738V149.204C157.45 149.62 157.05 149.967 156.538 150.244C156.037 150.511 155.456 150.644 154.794 150.644C154.048 150.644 153.365 150.452 152.746 150.068C152.138 149.684 151.653 149.145 151.29 148.452C150.938 147.748 150.762 146.943 150.762 146.036ZM157.738 146.068C157.738 145.524 157.632 145.06 157.418 144.676C157.205 144.281 156.917 143.983 156.554 143.78C156.192 143.567 155.802 143.46 155.386 143.46C154.97 143.46 154.586 143.561 154.234 143.764C153.882 143.967 153.594 144.265 153.37 144.66C153.157 145.044 153.05 145.503 153.05 146.036C153.05 146.569 153.157 147.039 153.37 147.444C153.594 147.839 153.882 148.143 154.234 148.356C154.597 148.569 154.981 148.676 155.386 148.676C155.802 148.676 156.192 148.575 156.554 148.372C156.917 148.159 157.205 147.86 157.418 147.476C157.632 147.081 157.738 146.612 157.738 146.068ZM174.587 150.5L173.371 149.3C172.336 150.228 171.072 150.692 169.579 150.692C168.757 150.692 168.032 150.553 167.403 150.276C166.784 149.988 166.304 149.588 165.963 149.076C165.621 148.553 165.451 147.951 165.451 147.268C165.451 146.532 165.659 145.871 166.075 145.284C166.491 144.697 167.104 144.223 167.915 143.86C167.627 143.508 167.419 143.172 167.291 142.852C167.163 142.521 167.099 142.169 167.099 141.796C167.099 141.284 167.232 140.825 167.499 140.42C167.765 140.004 168.144 139.679 168.635 139.444C169.136 139.209 169.717 139.092 170.379 139.092C171.051 139.092 171.627 139.22 172.107 139.476C172.587 139.732 172.944 140.073 173.179 140.5C173.413 140.927 173.515 141.401 173.483 141.924H171.307C171.317 141.572 171.232 141.305 171.051 141.124C170.869 140.932 170.624 140.836 170.315 140.836C170.016 140.836 169.765 140.927 169.563 141.108C169.371 141.279 169.275 141.503 169.275 141.78C169.275 142.047 169.355 142.313 169.515 142.58C169.675 142.836 169.936 143.156 170.299 143.54L173.115 146.324C173.136 146.303 173.152 146.281 173.163 146.26C173.173 146.239 173.184 146.217 173.195 146.196L174.107 144.676H176.443L175.323 146.644C175.109 147.06 174.88 147.455 174.635 147.828L177.339 150.5H174.587ZM169.643 148.836C170.517 148.836 171.291 148.527 171.963 147.908L169.211 145.188C168.176 145.647 167.659 146.297 167.659 147.14C167.659 147.62 167.84 148.025 168.203 148.356C168.565 148.676 169.045 148.836 169.643 148.836ZM190.404 142.788C190.404 143.385 190.26 143.945 189.972 144.468C189.695 144.991 189.252 145.412 188.644 145.732C188.047 146.052 187.29 146.212 186.372 146.212H184.5V150.5H182.26V139.332H186.372C187.236 139.332 187.972 139.481 188.58 139.78C189.188 140.079 189.642 140.489 189.94 141.012C190.25 141.535 190.404 142.127 190.404 142.788ZM186.276 144.404C186.895 144.404 187.354 144.265 187.652 143.988C187.951 143.7 188.1 143.3 188.1 142.788C188.1 141.7 187.492 141.156 186.276 141.156H184.5V144.404H186.276ZM196.987 141.508C197.659 141.508 198.256 141.657 198.779 141.956C199.301 142.244 199.707 142.676 199.995 143.252C200.293 143.817 200.443 144.5 200.443 145.3V150.5H198.203V145.604C198.203 144.9 198.027 144.361 197.675 143.988C197.323 143.604 196.843 143.412 196.235 143.412C195.616 143.412 195.125 143.604 194.763 143.988C194.411 144.361 194.235 144.9 194.235 145.604V150.5H191.995V138.66H194.235V142.74C194.523 142.356 194.907 142.057 195.387 141.844C195.867 141.62 196.4 141.508 196.987 141.508ZM206.509 150.644C205.655 150.644 204.887 150.457 204.205 150.084C203.522 149.7 202.983 149.161 202.589 148.468C202.205 147.775 202.013 146.975 202.013 146.068C202.013 145.161 202.21 144.361 202.605 143.668C203.01 142.975 203.559 142.441 204.253 142.068C204.946 141.684 205.719 141.492 206.573 141.492C207.426 141.492 208.199 141.684 208.893 142.068C209.586 142.441 210.13 142.975 210.525 143.668C210.93 144.361 211.133 145.161 211.133 146.068C211.133 146.975 210.925 147.775 210.509 148.468C210.103 149.161 209.549 149.7 208.845 150.084C208.151 150.457 207.373 150.644 206.509 150.644ZM206.509 148.692C206.914 148.692 207.293 148.596 207.645 148.404C208.007 148.201 208.295 147.903 208.509 147.508C208.722 147.113 208.829 146.633 208.829 146.068C208.829 145.225 208.605 144.58 208.157 144.132C207.719 143.673 207.181 143.444 206.541 143.444C205.901 143.444 205.362 143.673 204.925 144.132C204.498 144.58 204.285 145.225 204.285 146.068C204.285 146.911 204.493 147.561 204.909 148.02C205.335 148.468 205.869 148.692 206.509 148.692ZM215.384 143.476V147.764C215.384 148.063 215.453 148.281 215.592 148.42C215.741 148.548 215.987 148.612 216.328 148.612H217.368V150.5H215.96C214.072 150.5 213.128 149.583 213.128 147.748V143.476H212.072V141.636H213.128V139.444H215.384V141.636H217.368V143.476H215.384ZM222.915 150.644C222.062 150.644 221.294 150.457 220.611 150.084C219.928 149.7 219.39 149.161 218.995 148.468C218.611 147.775 218.419 146.975 218.419 146.068C218.419 145.161 218.616 144.361 219.011 143.668C219.416 142.975 219.966 142.441 220.659 142.068C221.352 141.684 222.126 141.492 222.979 141.492C223.832 141.492 224.606 141.684 225.299 142.068C225.992 142.441 226.536 142.975 226.931 143.668C227.336 144.361 227.539 145.161 227.539 146.068C227.539 146.975 227.331 147.775 226.915 148.468C226.51 149.161 225.955 149.7 225.251 150.084C224.558 150.457 223.779 150.644 222.915 150.644ZM222.915 148.692C223.32 148.692 223.699 148.596 224.051 148.404C224.414 148.201 224.702 147.903 224.915 147.508C225.128 147.113 225.235 146.633 225.235 146.068C225.235 145.225 225.011 144.58 224.563 144.132C224.126 143.673 223.587 143.444 222.947 143.444C222.307 143.444 221.768 143.673 221.331 144.132C220.904 144.58 220.691 145.225 220.691 146.068C220.691 146.911 220.899 147.561 221.315 148.02C221.742 148.468 222.275 148.692 222.915 148.692ZM232.574 150.644C231.849 150.644 231.198 150.516 230.622 150.26C230.046 149.993 229.587 149.636 229.246 149.188C228.915 148.74 228.734 148.244 228.702 147.7H230.958C231.001 148.041 231.166 148.324 231.454 148.548C231.753 148.772 232.121 148.884 232.558 148.884C232.985 148.884 233.315 148.799 233.55 148.628C233.795 148.457 233.918 148.239 233.918 147.972C233.918 147.684 233.769 147.471 233.47 147.332C233.182 147.183 232.718 147.023 232.078 146.852C231.417 146.692 230.873 146.527 230.446 146.356C230.03 146.185 229.667 145.924 229.358 145.572C229.059 145.22 228.91 144.745 228.91 144.148C228.91 143.657 229.049 143.209 229.326 142.804C229.614 142.399 230.019 142.079 230.542 141.844C231.075 141.609 231.699 141.492 232.414 141.492C233.47 141.492 234.313 141.759 234.942 142.292C235.571 142.815 235.918 143.524 235.982 144.42H233.838C233.806 144.068 233.657 143.791 233.39 143.588C233.134 143.375 232.787 143.268 232.35 143.268C231.945 143.268 231.63 143.343 231.406 143.492C231.193 143.641 231.086 143.849 231.086 144.116C231.086 144.415 231.235 144.644 231.534 144.804C231.833 144.953 232.297 145.108 232.926 145.268C233.566 145.428 234.094 145.593 234.51 145.764C234.926 145.935 235.283 146.201 235.582 146.564C235.891 146.916 236.051 147.385 236.062 147.972C236.062 148.484 235.918 148.943 235.63 149.348C235.353 149.753 234.947 150.073 234.414 150.308C233.891 150.532 233.278 150.644 232.574 150.644Z" fill="#111111"/>
<rect x="24" y="195" width="345" height="76" rx="16" fill="white"/>
<path d="M62.0205 220C62.5097 220.631 63.263 221 64.0613 221H73.2002C75.851 221 77.9999 223.149 78 225.8V241.2C77.9999 243.851 75.851 246 73.2002 246H54.7998C52.149 246 50.0001 243.851 50 241.2V223C50 220.791 51.7909 219 54 219H59.9797C60.778 219 61.5314 219.369 62.0205 220Z" fill="#9D4DFF"/>
<rect x="52" y="224" width="24" height="20" rx="3.2" fill="#FFF7EF"/>
<path d="M50 231.8C50 229.149 52.149 227 54.8 227H73.2C75.851 227 78 229.149 78 231.8V241.2C78 243.851 75.851 246 73.2 246H54.8C52.149 246 50 243.851 50 241.2V231.8Z" fill="#AE6BFF"/>
<path d="M61.3424 232.877L57.8502 238.345C57.4806 238.923 58.2255 239.563 58.7414 239.11L59.1215 238.776L61.3329 237.116C61.5301 236.968 61.7983 236.957 62.0066 237.089L66.2394 239.773C66.5154 239.948 66.8809 239.866 67.0569 239.591L70.7746 233.77C71.1384 233.201 70.4188 232.563 69.8974 232.993L67.0704 235.325C66.8725 235.488 66.5921 235.506 66.3755 235.368L62.1598 232.695C61.8838 232.52 61.5183 232.602 61.3424 232.877Z" fill="white"/>
<path d="M97.312 227.332V234.244C97.312 235.001 97.5093 235.583 97.904 235.988C98.2987 236.383 98.8533 236.58 99.568 236.58C100.293 236.58 100.853 236.383 101.248 235.988C101.643 235.583 101.84 235.001 101.84 234.244V227.332H104.096V234.228C104.096 235.177 103.888 235.983 103.472 236.644C103.067 237.295 102.517 237.785 101.824 238.116C101.141 238.447 100.379 238.612 99.536 238.612C98.704 238.612 97.9467 238.447 97.264 238.116C96.592 237.785 96.0587 237.295 95.664 236.644C95.2693 235.983 95.072 235.177 95.072 234.228V227.332H97.312ZM108.5 230.916C108.788 230.511 109.183 230.175 109.684 229.908C110.196 229.631 110.778 229.492 111.428 229.492C112.186 229.492 112.868 229.679 113.476 230.052C114.095 230.425 114.58 230.959 114.932 231.652C115.295 232.335 115.476 233.129 115.476 234.036C115.476 234.943 115.295 235.748 114.932 236.452C114.58 237.145 114.095 237.684 113.476 238.068C112.868 238.452 112.186 238.644 111.428 238.644C110.778 238.644 110.202 238.511 109.7 238.244C109.21 237.977 108.81 237.641 108.5 237.236V242.724H106.26V229.636H108.5V230.916ZM113.188 234.036C113.188 233.503 113.076 233.044 112.852 232.66C112.639 232.265 112.351 231.967 111.988 231.764C111.636 231.561 111.252 231.46 110.836 231.46C110.431 231.46 110.047 231.567 109.684 231.78C109.332 231.983 109.044 232.281 108.82 232.676C108.607 233.071 108.5 233.535 108.5 234.068C108.5 234.601 108.607 235.065 108.82 235.46C109.044 235.855 109.332 236.159 109.684 236.372C110.047 236.575 110.431 236.676 110.836 236.676C111.252 236.676 111.636 236.569 111.988 236.356C112.351 236.143 112.639 235.839 112.852 235.444C113.076 235.049 113.188 234.58 113.188 234.036ZM119.344 226.66V238.5H117.104V226.66H119.344ZM125.493 238.644C124.64 238.644 123.872 238.457 123.189 238.084C122.506 237.7 121.968 237.161 121.573 236.468C121.189 235.775 120.997 234.975 120.997 234.068C120.997 233.161 121.194 232.361 121.589 231.668C121.994 230.975 122.544 230.441 123.237 230.068C123.93 229.684 124.704 229.492 125.557 229.492C126.41 229.492 127.184 229.684 127.877 230.068C128.57 230.441 129.114 230.975 129.509 231.668C129.914 232.361 130.117 233.161 130.117 234.068C130.117 234.975 129.909 235.775 129.493 236.468C129.088 237.161 128.533 237.7 127.829 238.084C127.136 238.457 126.357 238.644 125.493 238.644ZM125.493 236.692C125.898 236.692 126.277 236.596 126.629 236.404C126.992 236.201 127.28 235.903 127.493 235.508C127.706 235.113 127.813 234.633 127.813 234.068C127.813 233.225 127.589 232.58 127.141 232.132C126.704 231.673 126.165 231.444 125.525 231.444C124.885 231.444 124.346 231.673 123.909 232.132C123.482 232.58 123.269 233.225 123.269 234.068C123.269 234.911 123.477 235.561 123.893 236.02C124.32 236.468 124.853 236.692 125.493 236.692ZM131.184 234.036C131.184 233.14 131.36 232.345 131.712 231.652C132.075 230.959 132.56 230.425 133.168 230.052C133.787 229.679 134.475 229.492 135.232 229.492C135.894 229.492 136.47 229.625 136.96 229.892C137.462 230.159 137.862 230.495 138.16 230.9V229.636H140.416V238.5H138.16V237.204C137.872 237.62 137.472 237.967 136.96 238.244C136.459 238.511 135.878 238.644 135.216 238.644C134.47 238.644 133.787 238.452 133.168 238.068C132.56 237.684 132.075 237.145 131.712 236.452C131.36 235.748 131.184 234.943 131.184 234.036ZM138.16 234.068C138.16 233.524 138.054 233.06 137.84 232.676C137.627 232.281 137.339 231.983 136.976 231.78C136.614 231.567 136.224 231.46 135.808 231.46C135.392 231.46 135.008 231.561 134.656 231.764C134.304 231.967 134.016 232.265 133.792 232.66C133.579 233.044 133.472 233.503 133.472 234.036C133.472 234.569 133.579 235.039 133.792 235.444C134.016 235.839 134.304 236.143 134.656 236.356C135.019 236.569 135.403 236.676 135.808 236.676C136.224 236.676 136.614 236.575 136.976 236.372C137.339 236.159 137.627 235.86 137.84 235.476C138.054 235.081 138.16 234.612 138.16 234.068ZM142.028 234.036C142.028 233.14 142.204 232.345 142.556 231.652C142.919 230.959 143.409 230.425 144.028 230.052C144.647 229.679 145.335 229.492 146.092 229.492C146.668 229.492 147.217 229.62 147.74 229.876C148.263 230.121 148.679 230.452 148.988 230.868V226.66H151.26V238.5H148.988V237.188C148.711 237.625 148.321 237.977 147.82 238.244C147.319 238.511 146.737 238.644 146.076 238.644C145.329 238.644 144.647 238.452 144.028 238.068C143.409 237.684 142.919 237.145 142.556 236.452C142.204 235.748 142.028 234.943 142.028 234.036ZM149.004 234.068C149.004 233.524 148.897 233.06 148.684 232.676C148.471 232.281 148.183 231.983 147.82 231.78C147.457 231.567 147.068 231.46 146.652 231.46C146.236 231.46 145.852 231.561 145.5 231.764C145.148 231.967 144.86 232.265 144.636 232.66C144.423 233.044 144.316 233.503 144.316 234.036C144.316 234.569 144.423 235.039 144.636 235.444C144.86 235.839 145.148 236.143 145.5 236.356C145.863 236.569 146.247 236.676 146.652 236.676C147.068 236.676 147.457 236.575 147.82 236.372C148.183 236.159 148.471 235.86 148.684 235.476C148.897 235.081 149.004 234.612 149.004 234.068ZM164.156 227.332V229.14H159.5V232.004H163.068V233.78H159.5V238.5H157.26V227.332H164.156ZM166.881 228.58C166.486 228.58 166.155 228.457 165.889 228.212C165.633 227.956 165.505 227.641 165.505 227.268C165.505 226.895 165.633 226.585 165.889 226.34C166.155 226.084 166.486 225.956 166.881 225.956C167.275 225.956 167.601 226.084 167.857 226.34C168.123 226.585 168.257 226.895 168.257 227.268C168.257 227.641 168.123 227.956 167.857 228.212C167.601 228.457 167.275 228.58 166.881 228.58ZM167.985 229.636V238.5H165.745V229.636H167.985ZM172.438 226.66V238.5H170.198V226.66H172.438ZM182.891 233.876C182.891 234.196 182.87 234.484 182.827 234.74H176.347C176.4 235.38 176.624 235.881 177.019 236.244C177.414 236.607 177.899 236.788 178.475 236.788C179.307 236.788 179.899 236.431 180.251 235.716H182.667C182.411 236.569 181.92 237.273 181.195 237.828C180.47 238.372 179.579 238.644 178.523 238.644C177.67 238.644 176.902 238.457 176.219 238.084C175.547 237.7 175.019 237.161 174.635 236.468C174.262 235.775 174.075 234.975 174.075 234.068C174.075 233.151 174.262 232.345 174.635 231.652C175.008 230.959 175.531 230.425 176.203 230.052C176.875 229.679 177.648 229.492 178.523 229.492C179.366 229.492 180.118 229.673 180.779 230.036C181.451 230.399 181.968 230.916 182.331 231.588C182.704 232.249 182.891 233.012 182.891 233.876ZM180.571 233.236C180.56 232.66 180.352 232.201 179.947 231.86C179.542 231.508 179.046 231.332 178.459 231.332C177.904 231.332 177.435 231.503 177.051 231.844C176.678 232.175 176.448 232.639 176.363 233.236H180.571ZM187.918 238.644C187.193 238.644 186.542 238.516 185.966 238.26C185.39 237.993 184.931 237.636 184.59 237.188C184.259 236.74 184.078 236.244 184.046 235.7H186.302C186.345 236.041 186.51 236.324 186.798 236.548C187.097 236.772 187.465 236.884 187.902 236.884C188.329 236.884 188.659 236.799 188.894 236.628C189.139 236.457 189.262 236.239 189.262 235.972C189.262 235.684 189.113 235.471 188.814 235.332C188.526 235.183 188.062 235.023 187.422 234.852C186.761 234.692 186.217 234.527 185.79 234.356C185.374 234.185 185.011 233.924 184.702 233.572C184.403 233.22 184.254 232.745 184.254 232.148C184.254 231.657 184.393 231.209 184.67 230.804C184.958 230.399 185.363 230.079 185.886 229.844C186.419 229.609 187.043 229.492 187.758 229.492C188.814 229.492 189.657 229.759 190.286 230.292C190.915 230.815 191.262 231.524 191.326 232.42H189.182C189.15 232.068 189.001 231.791 188.734 231.588C188.478 231.375 188.131 231.268 187.694 231.268C187.289 231.268 186.974 231.343 186.75 231.492C186.537 231.641 186.43 231.849 186.43 232.116C186.43 232.415 186.579 232.644 186.878 232.804C187.177 232.953 187.641 233.108 188.27 233.268C188.91 233.428 189.438 233.593 189.854 233.764C190.27 233.935 190.627 234.201 190.926 234.564C191.235 234.916 191.395 235.385 191.406 235.972C191.406 236.484 191.262 236.943 190.974 237.348C190.697 237.753 190.291 238.073 189.758 238.308C189.235 238.532 188.622 238.644 187.918 238.644Z" fill="#111111"/>
<rect x="24" y="283" width="345" height="76" rx="16" fill="white"/>
<path d="M51.3402 331.364L52.6598 333.653C52.9341 334.135 53.328 334.513 53.7908 334.788C55.1164 333.099 56.04 331.804 56.5586 330.9C57.0862 329.984 57.7345 328.55 58.5035 326.599C56.4309 326.326 54.86 326.188 53.7908 326.188C52.7655 326.188 51.1946 326.326 49.0781 326.599C49.0781 327.133 49.2148 327.667 49.4891 328.147L51.3402 331.365V331.364Z" fill="#0066DA"/>
<path d="M74.2875 334.788C74.7503 334.513 75.1453 334.135 75.4186 333.653L75.9672 332.706L78.5903 328.148C78.8586 327.677 79.0002 327.143 79.0002 326.599C76.8718 326.326 75.3039 326.188 74.2965 326.188C73.2133 326.188 71.6454 326.326 69.5918 326.599C70.3518 328.561 70.9921 329.995 71.5118 330.9C72.0354 331.814 72.961 333.11 74.2875 334.788Z" fill="#EA4335"/>
<path d="M64.0408 316.966C65.5748 315.107 66.6321 313.673 67.2126 312.665C67.6793 311.853 68.193 310.558 68.7545 308.777C68.2869 308.503 67.7537 308.36 67.2116 308.364H60.8711C60.33 308.369 59.799 308.511 59.3281 308.777C60.0423 310.819 60.6477 312.272 61.1454 313.136C61.6949 314.091 62.6614 315.368 64.0418 316.966H64.0408Z" fill="#00832D"/>
<path d="M69.5768 326.599H58.5057L53.793 334.787C54.2548 335.063 54.7864 335.2 55.3349 335.2H72.7465C73.2951 335.2 73.8267 335.046 74.2885 334.787L69.5758 326.599H69.5768Z" fill="#2684FC"/>
<path d="M64.0391 316.967L59.3264 308.778C58.8636 309.054 58.4686 309.433 58.1953 309.914L49.4891 325.052C49.2198 325.524 49.0782 326.058 49.0781 326.601H58.5035L64.0391 316.967Z" fill="#00AC47"/>
<path d="M74.2374 317.484L69.8848 309.913C69.6131 309.443 69.2232 309.052 68.7537 308.778L64.041 316.967L69.5766 326.602H78.985C78.985 326.067 78.8474 325.535 78.5731 325.053L74.2374 317.483V317.484Z" fill="#FFBA00"/>
<path d="M102.88 318.692C102.624 318.223 102.272 317.865 101.824 317.62C101.376 317.375 100.853 317.252 100.256 317.252C99.5947 317.252 99.008 317.401 98.496 317.7C97.984 317.999 97.584 318.425 97.296 318.98C97.008 319.535 96.864 320.175 96.864 320.9C96.864 321.647 97.008 322.297 97.296 322.852C97.5947 323.407 98.0053 323.833 98.528 324.132C99.0507 324.431 99.6587 324.58 100.352 324.58C101.205 324.58 101.904 324.356 102.448 323.908C102.992 323.449 103.349 322.815 103.52 322.004H99.68V320.292H105.728V322.244C105.579 323.023 105.259 323.743 104.768 324.404C104.277 325.065 103.643 325.599 102.864 326.004C102.096 326.399 101.232 326.596 100.272 326.596C99.1947 326.596 98.2187 326.356 97.344 325.876C96.48 325.385 95.7973 324.708 95.296 323.844C94.8053 322.98 94.56 321.999 94.56 320.9C94.56 319.801 94.8053 318.82 95.296 317.956C95.7973 317.081 96.48 316.404 97.344 315.924C98.2187 315.433 99.1893 315.188 100.256 315.188C101.515 315.188 102.608 315.497 103.536 316.116C104.464 316.724 105.104 317.583 105.456 318.692H102.88ZM111.321 326.644C110.468 326.644 109.7 326.457 109.017 326.084C108.335 325.7 107.796 325.161 107.401 324.468C107.017 323.775 106.825 322.975 106.825 322.068C106.825 321.161 107.023 320.361 107.417 319.668C107.823 318.975 108.372 318.441 109.065 318.068C109.759 317.684 110.532 317.492 111.385 317.492C112.239 317.492 113.012 317.684 113.705 318.068C114.399 318.441 114.943 318.975 115.337 319.668C115.743 320.361 115.945 321.161 115.945 322.068C115.945 322.975 115.737 323.775 115.321 324.468C114.916 325.161 114.361 325.7 113.657 326.084C112.964 326.457 112.185 326.644 111.321 326.644ZM111.321 324.692C111.727 324.692 112.105 324.596 112.457 324.404C112.82 324.201 113.108 323.903 113.321 323.508C113.535 323.113 113.641 322.633 113.641 322.068C113.641 321.225 113.417 320.58 112.969 320.132C112.532 319.673 111.993 319.444 111.353 319.444C110.713 319.444 110.175 319.673 109.737 320.132C109.311 320.58 109.097 321.225 109.097 322.068C109.097 322.911 109.305 323.561 109.721 324.02C110.148 324.468 110.681 324.692 111.321 324.692ZM121.524 326.644C120.671 326.644 119.903 326.457 119.22 326.084C118.538 325.7 117.999 325.161 117.604 324.468C117.22 323.775 117.028 322.975 117.028 322.068C117.028 321.161 117.226 320.361 117.62 319.668C118.026 318.975 118.575 318.441 119.268 318.068C119.962 317.684 120.735 317.492 121.588 317.492C122.442 317.492 123.215 317.684 123.908 318.068C124.602 318.441 125.146 318.975 125.54 319.668C125.946 320.361 126.148 321.161 126.148 322.068C126.148 322.975 125.94 323.775 125.524 324.468C125.119 325.161 124.564 325.7 123.86 326.084C123.167 326.457 122.388 326.644 121.524 326.644ZM121.524 324.692C121.93 324.692 122.308 324.596 122.66 324.404C123.023 324.201 123.311 323.903 123.524 323.508C123.738 323.113 123.844 322.633 123.844 322.068C123.844 321.225 123.62 320.58 123.172 320.132C122.735 319.673 122.196 319.444 121.556 319.444C120.916 319.444 120.378 319.673 119.94 320.132C119.514 320.58 119.3 321.225 119.3 322.068C119.3 322.911 119.508 323.561 119.924 324.02C120.351 324.468 120.884 324.692 121.524 324.692ZM131.264 317.492C131.925 317.492 132.506 317.625 133.008 317.892C133.509 318.148 133.904 318.484 134.192 318.9V317.636H136.448V326.564C136.448 327.385 136.282 328.116 135.952 328.756C135.621 329.407 135.125 329.919 134.464 330.292C133.802 330.676 133.002 330.868 132.064 330.868C130.805 330.868 129.77 330.575 128.96 329.988C128.16 329.401 127.706 328.601 127.6 327.588H129.824C129.941 327.993 130.192 328.313 130.576 328.548C130.97 328.793 131.445 328.916 132 328.916C132.65 328.916 133.178 328.719 133.584 328.324C133.989 327.94 134.192 327.353 134.192 326.564V325.188C133.904 325.604 133.504 325.951 132.992 326.228C132.49 326.505 131.914 326.644 131.264 326.644C130.517 326.644 129.834 326.452 129.216 326.068C128.597 325.684 128.106 325.145 127.743 324.452C127.391 323.748 127.215 322.943 127.215 322.036C127.215 321.14 127.391 320.345 127.743 319.652C128.106 318.959 128.592 318.425 129.2 318.052C129.818 317.679 130.506 317.492 131.264 317.492ZM134.192 322.068C134.192 321.524 134.085 321.06 133.872 320.676C133.658 320.281 133.37 319.983 133.008 319.78C132.645 319.567 132.256 319.46 131.84 319.46C131.424 319.46 131.04 319.561 130.688 319.764C130.336 319.967 130.048 320.265 129.824 320.66C129.61 321.044 129.504 321.503 129.504 322.036C129.504 322.569 129.61 323.039 129.824 323.444C130.048 323.839 130.336 324.143 130.688 324.356C131.05 324.569 131.434 324.676 131.84 324.676C132.256 324.676 132.645 324.575 133.008 324.372C133.37 324.159 133.658 323.86 133.872 323.476C134.085 323.081 134.192 322.612 134.192 322.068ZM140.875 314.66V326.5H138.635V314.66H140.875ZM151.328 321.876C151.328 322.196 151.307 322.484 151.264 322.74H144.784C144.838 323.38 145.062 323.881 145.456 324.244C145.851 324.607 146.336 324.788 146.912 324.788C147.744 324.788 148.336 324.431 148.688 323.716H151.104C150.848 324.569 150.358 325.273 149.632 325.828C148.907 326.372 148.016 326.644 146.96 326.644C146.107 326.644 145.339 326.457 144.656 326.084C143.984 325.7 143.456 325.161 143.072 324.468C142.699 323.775 142.512 322.975 142.512 322.068C142.512 321.151 142.699 320.345 143.072 319.652C143.446 318.959 143.968 318.425 144.64 318.052C145.312 317.679 146.086 317.492 146.96 317.492C147.803 317.492 148.555 317.673 149.216 318.036C149.888 318.399 150.406 318.916 150.768 319.588C151.142 320.249 151.328 321.012 151.328 321.876ZM149.008 321.236C148.998 320.66 148.79 320.201 148.384 319.86C147.979 319.508 147.483 319.332 146.896 319.332C146.342 319.332 145.872 319.503 145.488 319.844C145.115 320.175 144.886 320.639 144.8 321.236H149.008ZM160.68 315.332C161.853 315.332 162.883 315.561 163.768 316.02C164.664 316.479 165.352 317.135 165.832 317.988C166.323 318.831 166.568 319.812 166.568 320.932C166.568 322.052 166.323 323.033 165.832 323.876C165.352 324.708 164.664 325.353 163.768 325.812C162.883 326.271 161.853 326.5 160.68 326.5H156.776V315.332H160.68ZM160.6 324.596C161.773 324.596 162.68 324.276 163.32 323.636C163.96 322.996 164.28 322.095 164.28 320.932C164.28 319.769 163.96 318.863 163.32 318.212C162.68 317.551 161.773 317.22 160.6 317.22H159.016V324.596H160.6ZM170.485 319.012C170.773 318.543 171.146 318.175 171.605 317.908C172.074 317.641 172.607 317.508 173.205 317.508V319.86H172.613C171.909 319.86 171.375 320.025 171.013 320.356C170.661 320.687 170.485 321.263 170.485 322.084V326.5H168.245V317.636H170.485V319.012ZM175.849 316.58C175.455 316.58 175.124 316.457 174.857 316.212C174.601 315.956 174.473 315.641 174.473 315.268C174.473 314.895 174.601 314.585 174.857 314.34C175.124 314.084 175.455 313.956 175.849 313.956C176.244 313.956 176.569 314.084 176.825 314.34C177.092 314.585 177.225 314.895 177.225 315.268C177.225 315.641 177.092 315.956 176.825 316.212C176.569 316.457 176.244 316.58 175.849 316.58ZM176.953 317.636V326.5H174.713V317.636H176.953ZM182.863 324.436L185.103 317.636H187.487L184.207 326.5H181.487L178.223 317.636H180.623L182.863 324.436ZM196.985 321.876C196.985 322.196 196.963 322.484 196.921 322.74H190.441C190.494 323.38 190.718 323.881 191.113 324.244C191.507 324.607 191.993 324.788 192.569 324.788C193.401 324.788 193.993 324.431 194.345 323.716H196.761C196.505 324.569 196.014 325.273 195.289 325.828C194.563 326.372 193.673 326.644 192.617 326.644C191.763 326.644 190.995 326.457 190.313 326.084C189.641 325.7 189.113 325.161 188.729 324.468C188.355 323.775 188.169 322.975 188.169 322.068C188.169 321.151 188.355 320.345 188.729 319.652C189.102 318.959 189.625 318.425 190.297 318.052C190.969 317.679 191.742 317.492 192.617 317.492C193.459 317.492 194.211 317.673 194.873 318.036C195.545 318.399 196.062 318.916 196.425 319.588C196.798 320.249 196.985 321.012 196.985 321.876ZM194.665 321.236C194.654 320.66 194.446 320.201 194.041 319.86C193.635 319.508 193.139 319.332 192.553 319.332C191.998 319.332 191.529 319.503 191.145 319.844C190.771 320.175 190.542 320.639 190.457 321.236H194.665Z" fill="#111111"/>
<path d="M24 375L369 375" stroke="#EEEEEE" stroke-linecap="round"/>
<rect x="24" y="391" width="345" height="76" rx="16" fill="white"/>
<mask id="mask0_7531_12467" style="mask-type:alpha" maskUnits="userSpaceOnUse" x="50" y="415" width="28" height="28">
<rect x="50" y="415" width="28" height="28" fill="#007AFF"/>
</mask>
<g mask="url(#mask0_7531_12467)">
<path d="M62.4766 440.603V439.812C60.1394 439.481 58.1388 438.487 56.4748 436.83C54.8108 435.173 53.801 433.159 53.4453 430.788C53.3945 430.355 53.5088 429.985 53.7883 429.68C54.0677 429.374 54.4234 429.221 54.8553 429.221C55.2871 429.221 55.6492 429.367 55.9413 429.66C56.2335 429.954 56.4303 430.317 56.532 430.75C56.8876 432.535 57.7704 434 59.1804 435.147C60.5903 436.295 62.1971 436.868 64.0009 436.868C65.83 436.868 67.4431 436.288 68.8404 435.128C70.2376 433.968 71.1141 432.509 71.4697 430.75C71.5714 430.317 71.7682 429.954 72.0604 429.66C72.3526 429.367 72.7146 429.221 73.1464 429.221C73.5783 429.221 73.934 429.374 74.2134 429.68C74.4929 429.985 74.6072 430.355 74.5564 430.788C74.2007 433.108 73.1972 435.109 71.546 436.792C69.8947 438.474 67.8877 439.481 65.5251 439.812V440.603C65.5251 441.036 65.379 441.399 65.0869 441.693C64.7947 441.986 64.4327 442.132 64.0009 442.132C63.569 442.132 63.207 441.986 62.9148 441.693C62.6227 441.399 62.4766 441.036 62.4766 440.603Z" fill="#007AFF"/>
<rect x="57.918" y="415" width="12.1646" height="20.3956" rx="6.0823" fill="#66AAFF"/>
<path d="M57.918 424.399H70.0826V429.314C70.0826 432.673 67.3594 435.396 64.0003 435.396C60.6411 435.396 57.918 432.673 57.918 429.314V424.399Z" fill="#007AFF"/>
<path d="M57.4336 424.833C57.4336 424.161 57.9782 423.616 58.6501 423.616H69.3529C70.0247 423.616 70.5693 424.161 70.5693 424.833C70.5693 425.505 70.0247 426.049 69.3529 426.049H58.6501C57.9782 426.049 57.4336 425.505 57.4336 424.833Z" fill="#EEF5FF"/>
<path d="M60.9863 441.784C60.9863 441.112 61.531 440.567 62.2028 440.567H65.7787C66.4505 440.567 66.9951 441.112 66.9951 441.784C66.9951 442.456 66.4505 443 65.7787 443H62.2028C61.531 443 60.9863 442.456 60.9863 441.784Z" fill="#007AFF"/>
</g>
<path d="M97.344 432.724H101.024V434.5H95.104V423.332H97.344V432.724ZM103.584 424.58C103.189 424.58 102.858 424.457 102.592 424.212C102.336 423.956 102.208 423.641 102.208 423.268C102.208 422.895 102.336 422.585 102.592 422.34C102.858 422.084 103.189 421.956 103.584 421.956C103.978 421.956 104.304 422.084 104.56 422.34C104.826 422.585 104.96 422.895 104.96 423.268C104.96 423.641 104.826 423.956 104.56 424.212C104.304 424.457 103.978 424.58 103.584 424.58ZM104.688 425.636V434.5H102.448V425.636H104.688ZM110.597 432.436L112.837 425.636H115.221L111.941 434.5H109.221L105.957 425.636H108.357L110.597 432.436ZM124.719 429.876C124.719 430.196 124.698 430.484 124.655 430.74H118.175C118.228 431.38 118.452 431.881 118.847 432.244C119.242 432.607 119.727 432.788 120.303 432.788C121.135 432.788 121.727 432.431 122.079 431.716H124.495C124.239 432.569 123.748 433.273 123.023 433.828C122.298 434.372 121.407 434.644 120.351 434.644C119.498 434.644 118.73 434.457 118.047 434.084C117.375 433.7 116.847 433.161 116.463 432.468C116.09 431.775 115.903 430.975 115.903 430.068C115.903 429.151 116.09 428.345 116.463 427.652C116.836 426.959 117.359 426.425 118.031 426.052C118.703 425.679 119.476 425.492 120.351 425.492C121.194 425.492 121.946 425.673 122.607 426.036C123.279 426.399 123.796 426.916 124.159 427.588C124.532 428.249 124.719 429.012 124.719 429.876ZM122.399 429.236C122.388 428.66 122.18 428.201 121.775 427.86C121.37 427.508 120.874 427.332 120.287 427.332C119.732 427.332 119.263 427.503 118.879 427.844C118.506 428.175 118.276 428.639 118.191 429.236H122.399ZM135.927 434.5L133.463 430.148H132.407V434.5H130.167V423.332H134.359C135.223 423.332 135.959 423.487 136.567 423.796C137.175 424.095 137.628 424.505 137.927 425.028C138.236 425.54 138.391 426.116 138.391 426.756C138.391 427.492 138.177 428.159 137.751 428.756C137.324 429.343 136.689 429.748 135.847 429.972L138.519 434.5H135.927ZM132.407 428.468H134.279C134.887 428.468 135.34 428.324 135.639 428.036C135.937 427.737 136.087 427.327 136.087 426.804C136.087 426.292 135.937 425.897 135.639 425.62C135.34 425.332 134.887 425.188 134.279 425.188H132.407V428.468ZM148.657 429.876C148.657 430.196 148.635 430.484 148.593 430.74H142.113C142.166 431.38 142.39 431.881 142.785 432.244C143.179 432.607 143.665 432.788 144.241 432.788C145.073 432.788 145.665 432.431 146.017 431.716H148.433C148.177 432.569 147.686 433.273 146.961 433.828C146.235 434.372 145.345 434.644 144.289 434.644C143.435 434.644 142.667 434.457 141.985 434.084C141.313 433.7 140.785 433.161 140.401 432.468C140.027 431.775 139.84 430.975 139.84 430.068C139.84 429.151 140.027 428.345 140.401 427.652C140.774 426.959 141.297 426.425 141.969 426.052C142.641 425.679 143.414 425.492 144.289 425.492C145.131 425.492 145.883 425.673 146.545 426.036C147.217 426.399 147.734 426.916 148.097 427.588C148.47 428.249 148.657 429.012 148.657 429.876ZM146.337 429.236C146.326 428.66 146.118 428.201 145.713 427.86C145.307 427.508 144.811 427.332 144.225 427.332C143.67 427.332 143.201 427.503 142.817 427.844C142.443 428.175 142.214 428.639 142.129 429.236H146.337ZM149.715 430.068C149.715 429.151 149.902 428.351 150.276 427.668C150.649 426.975 151.166 426.441 151.828 426.068C152.489 425.684 153.246 425.492 154.1 425.492C155.198 425.492 156.105 425.769 156.82 426.324C157.545 426.868 158.03 427.636 158.276 428.628H155.86C155.732 428.244 155.513 427.945 155.204 427.732C154.905 427.508 154.532 427.396 154.084 427.396C153.444 427.396 152.937 427.631 152.564 428.1C152.19 428.559 152.004 429.215 152.004 430.068C152.004 430.911 152.19 431.567 152.564 432.036C152.937 432.495 153.444 432.724 154.084 432.724C154.99 432.724 155.582 432.319 155.86 431.508H158.276C158.03 432.468 157.545 433.231 156.82 433.796C156.094 434.361 155.188 434.644 154.1 434.644C153.246 434.644 152.489 434.457 151.828 434.084C151.166 433.7 150.649 433.167 150.276 432.484C149.902 431.791 149.715 430.985 149.715 430.068ZM163.853 434.644C162.999 434.644 162.231 434.457 161.549 434.084C160.866 433.7 160.327 433.161 159.933 432.468C159.549 431.775 159.357 430.975 159.357 430.068C159.357 429.161 159.554 428.361 159.949 427.668C160.354 426.975 160.903 426.441 161.597 426.068C162.29 425.684 163.063 425.492 163.917 425.492C164.77 425.492 165.543 425.684 166.237 426.068C166.93 426.441 167.474 426.975 167.869 427.668C168.274 428.361 168.477 429.161 168.477 430.068C168.477 430.975 168.269 431.775 167.852 432.468C167.447 433.161 166.893 433.7 166.189 434.084C165.495 434.457 164.717 434.644 163.853 434.644ZM163.853 432.692C164.258 432.692 164.637 432.596 164.989 432.404C165.351 432.201 165.639 431.903 165.853 431.508C166.066 431.113 166.173 430.633 166.173 430.068C166.173 429.225 165.949 428.58 165.501 428.132C165.063 427.673 164.525 427.444 163.885 427.444C163.245 427.444 162.706 427.673 162.269 428.132C161.842 428.58 161.629 429.225 161.629 430.068C161.629 430.911 161.837 431.561 162.253 432.02C162.679 432.468 163.213 432.692 163.853 432.692ZM172.36 427.012C172.648 426.543 173.021 426.175 173.48 425.908C173.949 425.641 174.482 425.508 175.08 425.508V427.86H174.488C173.784 427.86 173.25 428.025 172.888 428.356C172.536 428.687 172.36 429.263 172.36 430.084V434.5H170.12V425.636H172.36V427.012ZM176.012 430.036C176.012 429.14 176.188 428.345 176.54 427.652C176.903 426.959 177.394 426.425 178.012 426.052C178.631 425.679 179.319 425.492 180.076 425.492C180.652 425.492 181.202 425.62 181.724 425.876C182.247 426.121 182.663 426.452 182.972 426.868V422.66H185.244V434.5H182.972V433.188C182.695 433.625 182.306 433.977 181.804 434.244C181.303 434.511 180.722 434.644 180.06 434.644C179.314 434.644 178.631 434.452 178.012 434.068C177.394 433.684 176.903 433.145 176.54 432.452C176.188 431.748 176.012 430.943 176.012 430.036ZM182.988 430.068C182.988 429.524 182.882 429.06 182.668 428.676C182.455 428.281 182.167 427.983 181.804 427.78C181.442 427.567 181.052 427.46 180.636 427.46C180.22 427.46 179.836 427.561 179.484 427.764C179.132 427.967 178.844 428.265 178.62 428.66C178.407 429.044 178.3 429.503 178.3 430.036C178.3 430.569 178.407 431.039 178.62 431.444C178.844 431.839 179.132 432.143 179.484 432.356C179.847 432.569 180.231 432.676 180.636 432.676C181.052 432.676 181.442 432.575 181.804 432.372C182.167 432.159 182.455 431.86 182.668 431.476C182.882 431.081 182.988 430.612 182.988 430.068ZM188.568 424.58C188.173 424.58 187.843 424.457 187.576 424.212C187.32 423.956 187.192 423.641 187.192 423.268C187.192 422.895 187.32 422.585 187.576 422.34C187.843 422.084 188.173 421.956 188.568 421.956C188.963 421.956 189.288 422.084 189.544 422.34C189.811 422.585 189.944 422.895 189.944 423.268C189.944 423.641 189.811 423.956 189.544 424.212C189.288 424.457 188.963 424.58 188.568 424.58ZM189.672 425.636V434.5H187.432V425.636H189.672ZM196.797 425.508C197.853 425.508 198.707 425.844 199.357 426.516C200.008 427.177 200.333 428.105 200.333 429.3V434.5H198.093V429.604C198.093 428.9 197.917 428.361 197.565 427.988C197.213 427.604 196.733 427.412 196.125 427.412C195.507 427.412 195.016 427.604 194.653 427.988C194.301 428.361 194.125 428.9 194.125 429.604V434.5H191.885V425.636H194.125V426.74C194.424 426.356 194.803 426.057 195.261 425.844C195.731 425.62 196.243 425.508 196.797 425.508ZM205.935 425.492C206.597 425.492 207.178 425.625 207.679 425.892C208.181 426.148 208.575 426.484 208.863 426.9V425.636H211.119V434.564C211.119 435.385 210.954 436.116 210.623 436.756C210.293 437.407 209.797 437.919 209.135 438.292C208.474 438.676 207.674 438.868 206.735 438.868C205.477 438.868 204.442 438.575 203.631 437.988C202.831 437.401 202.378 436.601 202.271 435.588H204.495C204.613 435.993 204.863 436.313 205.247 436.548C205.642 436.793 206.117 436.916 206.671 436.916C207.322 436.916 207.85 436.719 208.255 436.324C208.661 435.94 208.863 435.353 208.863 434.564V433.188C208.575 433.604 208.175 433.951 207.663 434.228C207.162 434.505 206.586 434.644 205.935 434.644C205.189 434.644 204.506 434.452 203.887 434.068C203.269 433.684 202.778 433.145 202.415 432.452C202.063 431.748 201.887 430.943 201.887 430.036C201.887 429.14 202.063 428.345 202.415 427.652C202.778 426.959 203.263 426.425 203.871 426.052C204.49 425.679 205.178 425.492 205.935 425.492ZM208.863 430.068C208.863 429.524 208.757 429.06 208.543 428.676C208.33 428.281 208.042 427.983 207.679 427.78C207.317 427.567 206.927 427.46 206.511 427.46C206.095 427.46 205.711 427.561 205.359 427.764C205.007 427.967 204.719 428.265 204.495 428.66C204.282 429.044 204.175 429.503 204.175 430.036C204.175 430.569 204.282 431.039 204.495 431.444C204.719 431.839 205.007 432.143 205.359 432.356C205.722 432.569 206.106 432.676 206.511 432.676C206.927 432.676 207.317 432.575 207.679 432.372C208.042 432.159 208.33 431.86 208.543 431.476C208.757 431.081 208.863 430.612 208.863 430.068Z" fill="#111111"/>
<g clip-path="url(#clip0_7531_12467)">
<rect x="120.5" y="532" width="134" height="5" rx="2.5" fill="#111111"/>
</g>
<defs>
<clipPath id="clip0_7531_12467">
<rect width="393" height="34" fill="white" transform="translate(0 511)"/>
</clipPath>
</defs>
</svg>
