<svg preserveAspectRatio="none" width="100%" height="100%" overflow="visible" style="display: block;" viewBox="0 0 24.1667 22" fill="none" xmlns="http://www.w3.org/2000/svg">
<g id="Scan Icon Container">
<path fill-rule="evenodd" clip-rule="evenodd" d="M10.6501 1.25C9.53668 1.25 8.51879 1.87909 8.02083 2.875C7.52288 3.87091 6.50498 4.5 5.39153 4.5H4.25C2.59315 4.5 1.25 5.84315 1.25 7.5V17.75C1.25 19.4069 2.59314 20.75 4.25 20.75H19.9167C21.5735 20.75 22.9167 19.4069 22.9167 17.75V7.5C22.9167 5.84315 21.5735 4.5 19.9167 4.5H18.7751C17.6617 4.5 16.6438 3.87091 16.1458 2.875C15.6479 1.87909 14.63 1.25 13.5165 1.25H10.6501Z" fill="#111111"/>
<path d="M4.25 4.5V5.75H5.39153V4.5V3.25H4.25V4.5ZM1.25 17.75H2.5V7.5H1.25H0V17.75H1.25ZM19.9167 20.75V19.5H4.25V20.75V22H19.9167V20.75ZM22.9167 7.5H21.6667V17.75H22.9167H24.1667V7.5H22.9167ZM18.7751 4.5V5.75H19.9167V4.5V3.25H18.7751V4.5ZM10.6501 1.25V2.5H13.5165V1.25V0H10.6501V1.25ZM16.1458 2.875L17.2639 2.31598C16.5542 0.896595 15.1035 0 13.5165 0V1.25V2.5C14.1565 2.5 14.7416 2.86159 15.0278 3.43402L16.1458 2.875ZM18.7751 4.5V3.25C18.1351 3.25 17.5501 2.88841 17.2639 2.31598L16.1458 2.875L15.0278 3.43402C15.7375 4.8534 17.1882 5.75 18.7751 5.75V4.5ZM22.9167 7.5H24.1667C24.1667 5.15279 22.2639 3.25 19.9167 3.25V4.5V5.75C20.8832 5.75 21.6667 6.5335 21.6667 7.5H22.9167ZM19.9167 20.75V22C22.2639 22 24.1667 20.0972 24.1667 17.75H22.9167H21.6667C21.6667 18.7165 20.8832 19.5 19.9167 19.5V20.75ZM1.25 17.75H0C0 20.0972 1.90279 22 4.25 22V20.75V19.5C3.2835 19.5 2.5 18.7165 2.5 17.75H1.25ZM4.25 4.5V3.25C1.90279 3.25 0 5.15279 0 7.5H1.25H2.5C2.5 6.5335 3.2835 5.75 4.25 5.75V4.5ZM8.02083 2.875L9.13887 3.43402C9.42508 2.86159 10.0101 2.5 10.6501 2.5V1.25V0C9.06322 0 7.61249 0.896595 6.9028 2.31598L8.02083 2.875ZM8.02083 2.875L6.9028 2.31598C6.61659 2.88841 6.03152 3.25 5.39153 3.25V4.5V5.75C6.97845 5.75 8.42917 4.85341 9.13887 3.43402L8.02083 2.875Z" fill="#111111"/>
<path d="M12.0827 16.9557C14.4759 16.9557 16.416 15.0156 16.416 12.6224C16.416 10.2291 14.4759 8.28906 12.0827 8.28906C9.68944 8.28906 7.74935 10.2291 7.74935 12.6224C7.74935 15.0156 9.68944 16.9557 12.0827 16.9557Z" fill="#111111" stroke="white" stroke-width="2" stroke-linejoin="round"/>
</g>
</svg>
