<svg preserveAspectRatio="none" width="100%" height="100%" overflow="visible" style="display: block;" viewBox="0 0 40 40" fill="none" xmlns="http://www.w3.org/2000/svg">
<g id="kid_star">
<mask id="mask0_0_244" style="mask-type:alpha" maskUnits="userSpaceOnUse" x="0" y="0" width="40" height="40">
<rect id="Bounding box" width="40" height="40" fill="var(--fill-0, #FFE101)"/>
</mask>
<g mask="url(#mask0_0_244)">
<path id="kid_star_2" d="M12.7086 10.6667L17.3752 4.625C17.7086 4.18056 18.1044 3.85417 18.5627 3.64583C19.0211 3.4375 19.5002 3.33333 20.0002 3.33333C20.5002 3.33333 20.9794 3.4375 21.4377 3.64583C21.8961 3.85417 22.2919 4.18056 22.6252 4.625L27.2919 10.6667L34.3752 13.0417C35.0974 13.2639 35.6669 13.6736 36.0836 14.2708C36.5002 14.8681 36.7086 15.5278 36.7086 16.25C36.7086 16.5833 36.6599 16.9167 36.5627 17.25C36.4655 17.5833 36.3058 17.9028 36.0836 18.2083L31.5002 24.7083L31.6669 31.5417C31.6947 32.5139 31.3752 33.3333 30.7086 34C30.0419 34.6667 29.2641 35 28.3752 35C28.3197 35 28.0141 34.9583 27.4586 34.875L20.0002 32.7917L12.5419 34.875C12.403 34.9306 12.2502 34.9653 12.0836 34.9792C11.9169 34.9931 11.7641 35 11.6252 35C10.7363 35 9.95856 34.6667 9.29189 34C8.62522 33.3333 8.30578 32.5139 8.33356 31.5417L8.50022 24.6667L3.95856 18.2083C3.73633 17.9028 3.57661 17.5833 3.47939 17.25C3.38217 16.9167 3.33356 16.5833 3.33356 16.25C3.33356 15.5556 3.53495 14.9097 3.93772 14.3125C4.3405 13.7153 4.903 13.2917 5.62522 13.0417L12.7086 10.6667Z" fill="var(--fill-0, #EEEEEE)"/>
</g>
</g>
</svg>
