<svg width="40" height="40" viewBox="0 0 40 40" fill="none" xmlns="http://www.w3.org/2000/svg">
  <path d="M8 7.5H15.5C17.8 7.5 19.2 8.2 20 9.2C20.8 8.2 22.2 7.5 24.5 7.5H32C34.2 7.5 36 9.3 36 11.5V27.5C36 29.7 34.2 31.5 32 31.5H25.8C24.3 31.5 22.8 31.9 21.6 32.8L20 34L18.4 32.8C17.2 31.9 15.7 31.5 14.2 31.5H8C5.8 31.5 4 29.7 4 27.5V11.5C4 9.3 5.8 7.5 8 7.5Z" stroke="#E15C6C" stroke-width="3" stroke-linecap="round" stroke-linejoin="round"/>
  <path d="M20 9.2V34M11 16H16M12 21H16" stroke="#E15C6C" stroke-width="3" stroke-linecap="round" stroke-linejoin="round"/>
</svg>
