<svg preserveAspectRatio="none" width="100%" height="100%" overflow="visible" style="display: block;" viewBox="0 0 40 40" fill="none" xmlns="http://www.w3.org/2000/svg">
<g id="physics 2">
<path id="Vector" d="M20 23.3333C21.8409 23.3333 23.3333 21.8409 23.3333 20C23.3333 18.1591 21.8409 16.6667 20 16.6667C18.1591 16.6667 16.6667 18.1591 16.6667 20C16.6667 21.8409 18.1591 23.3333 20 23.3333Z" fill="var(--fill-0, #0B99BC)"/>
<path id="Vector_2" d="M15.7574 24.2426C22.0057 30.491 28.9706 33.6569 31.3137 31.3137C33.6569 28.9706 30.491 22.0057 24.2426 15.7574C17.9943 9.50897 11.0294 6.34315 8.68629 8.68629C6.34315 11.0294 9.50897 17.9943 15.7574 24.2426Z" stroke="var(--stroke-0, #0B99BC)" stroke-width="3"/>
<path id="Vector_3" d="M24.2426 24.2426C30.491 17.9943 33.6569 11.0294 31.3137 8.68629C28.9706 6.34315 22.0057 9.50897 15.7574 15.7574C9.50897 22.0057 6.34315 28.9706 8.68629 31.3137C11.0294 33.6569 17.9943 30.491 24.2426 24.2426Z" stroke="var(--stroke-0, #0B99BC)" stroke-width="3"/>
</g>
</svg>
