<svg preserveAspectRatio="none" width="100%" height="100%" overflow="visible" style="display: block;" viewBox="0 0 16 16" fill="none" xmlns="http://www.w3.org/2000/svg">
<g id="Group 2087325151">
<g id="Rectangle 279336449">
</g>
<path id="Subtract" d="M4.95332 6.08165C4.60283 6.63694 4.39965 7.29448 4.39961 7.99962C4.39961 9.98785 6.01197 11.6002 8.0002 11.6002C8.70523 11.6002 9.36196 11.3959 9.91719 11.0455L11.0617 12.1901C10.1184 12.5817 9.08447 12.7994 7.99922 12.7994C4.71903 12.7994 1.90187 10.8246 0.667188 7.99962C1.26959 6.62139 2.24906 5.44607 3.4748 4.60314L4.95332 6.08165ZM7.99922 3.19982C11.2793 3.19982 14.0965 5.17471 15.3313 7.99962C14.8387 9.12657 14.0933 10.117 13.1682 10.902L11.4113 9.14513C11.5321 8.78507 11.5998 8.40035 11.5998 7.99962C11.5997 6.01155 9.98827 4.40012 8.0002 4.40001C7.59926 4.40001 7.21394 4.46657 6.85371 4.58751L5.77852 3.51232C6.48353 3.30889 7.22859 3.19982 7.99922 3.19982Z" fill="var(--fill-0, #595C60)"/>
<path id="Subtract_2" d="M9.03457 10.1631C8.72105 10.3134 8.37127 10.4003 8.00039 10.4004C6.67504 10.4004 5.60021 9.32629 5.6 8.00099C5.6 7.62978 5.68586 7.27861 5.83633 6.96486L9.03457 10.1631ZM8.00039 5.6006C9.32569 5.60081 10.3998 6.67564 10.3998 8.00099C10.3998 8.04331 10.3951 8.08518 10.393 8.12697L7.87344 5.60646C7.91539 5.60428 7.95789 5.6006 8.00039 5.6006Z" fill="var(--fill-0, #595C60)"/>
<rect id="Rectangle 279336450" x="1.77813" y="2.90607" width="1.19766" height="16" rx="0.598831" transform="rotate(-45 1.77813 2.90607)" fill="var(--fill-0, #595C60)"/>
</g>
</svg>
