<svg preserveAspectRatio="none" width="100%" height="100%" overflow="visible" style="display: block;" viewBox="0 0 20 20" fill="none" xmlns="http://www.w3.org/2000/svg">
<g id="hint">
<path id="Vector" d="M9.99986 4C9.01627 4.00022 8.05541 4.2959 7.24186 4.8487C6.42831 5.4015 5.79958 6.18594 5.43717 7.10033C5.07477 8.01471 4.99539 9.01688 5.20934 9.97691C5.42329 10.9369 5.9207 11.8106 6.63709 12.4845C6.91162 12.7244 7.13391 13.0181 7.29014 13.3474C7.44637 13.6768 7.53322 14.0348 7.54528 14.3991V14.6364C7.54528 14.7438 7.56645 14.8502 7.60757 14.9495C7.64868 15.0487 7.70895 15.1389 7.78493 15.2149C7.8609 15.2909 7.9511 15.3511 8.05037 15.3923C8.14964 15.4334 8.25603 15.4545 8.36348 15.4545H11.6363C11.8532 15.4545 12.0614 15.3683 12.2148 15.2149C12.3682 15.0615 12.4544 14.8534 12.4544 14.6364V14.4236C12.4544 12.2145 14.909 12.2555 14.909 8.90909C14.909 7.60712 14.3918 6.35847 13.4712 5.43784C12.5505 4.51721 11.3019 4 9.99986 4ZM12.1272 11.3636C11.415 11.9976 10.9608 12.8711 10.8508 13.8182H9.18167C9.01267 12.8459 8.52645 11.9569 7.79892 11.29C7.39446 10.9224 7.0885 10.4594 6.90896 9.94316C6.72943 9.42694 6.68203 8.87398 6.7711 8.33475C6.86017 7.79551 7.08287 7.28716 7.41888 6.8561C7.75489 6.42504 8.1935 6.08499 8.69469 5.86699C9.19588 5.64899 9.74369 5.55997 10.2881 5.60807C10.8326 5.65616 11.3563 5.83984 11.8115 6.14233C12.2667 6.44482 12.6389 6.8565 12.8941 7.33979C13.1494 7.82308 13.2795 8.36259 13.2726 8.90909C13.269 9.37565 13.1656 9.83603 12.9695 10.2594C12.7733 10.6827 12.4889 11.0592 12.1353 11.3636H12.1272Z" fill="var(--fill-0, #733700)"/>
<circle id="Ellipse 4452" cx="3" cy="10" r="1" fill="var(--fill-0, #733700)"/>
<circle id="Ellipse 4454" cx="4" cy="5" r="1" fill="var(--fill-0, #733700)"/>
<circle id="Ellipse 4453" cx="17" cy="10" r="1" fill="var(--fill-0, #733700)"/>
<circle id="Ellipse 4455" cx="16" cy="5" r="1" fill="var(--fill-0, #733700)"/>
<circle id="Ellipse 4456" cx="10" cy="2" r="1" fill="var(--fill-0, #733700)"/>
<rect id="Rectangle 279336447" x="8" y="16" width="4" height="1.6" rx="0.8" fill="var(--fill-0, #733700)"/>
</g>
</svg>
