<svg preserveAspectRatio="none" width="100%" height="100%" overflow="visible" style="display: block;" viewBox="0 0 18.3982 17.6201" fill="none" xmlns="http://www.w3.org/2000/svg">
<g id="Group 2087325152">
<path id="Star 12" d="M5.19633 2.66554C5.33388 2.36165 5.79101 2.48413 5.75819 2.81609C5.65873 3.82204 6.21151 4.77949 7.13242 5.19633C7.43631 5.33388 7.31383 5.79101 6.98187 5.75819C5.97592 5.65873 5.01847 6.21151 4.60163 7.13242C4.46408 7.43631 4.00695 7.31383 4.03977 6.98187C4.13923 5.97592 3.58645 5.01847 2.66554 4.60163C2.36165 4.46408 2.48413 4.00695 2.81609 4.03977C3.82204 4.13923 4.77949 3.58645 5.19633 2.66554Z" fill="var(--fill-0, #155800)"/>
<path id="Vector" d="M11.7701 4.32664C12.0441 4.05266 12.4158 3.89875 12.8033 3.89875C13.1909 3.89875 13.5625 4.05266 13.8366 4.32664L17.9703 8.46037C18.2443 8.73444 18.3982 9.1061 18.3982 9.49362C18.3982 9.88115 18.2443 10.2528 17.9703 10.5269L12.3386 16.1586H17.0993C17.2931 16.1586 17.479 16.2356 17.616 16.3726C17.753 16.5097 17.83 16.6955 17.83 16.8893C17.83 17.0831 17.753 17.269 17.616 17.406C17.479 17.5431 17.2931 17.6201 17.0993 17.6201H9.13435C8.74703 17.6198 8.37566 17.4658 8.10183 17.1919L4.53587 13.6266C4.26189 13.3526 4.10797 12.9809 4.10797 12.5934C4.10797 12.2059 4.26189 11.8342 4.53587 11.5601L11.7701 4.32664ZM5.56985 12.5926L9.13435 16.1586H10.2714L13.8359 12.5934L9.70212 8.45964L5.56985 12.5926ZM10.7368 7.42566L14.8706 11.5594L16.9371 9.49289L12.8033 5.35916L10.7368 7.42566Z" fill="var(--fill-0, #155800)"/>
</g>
</svg>
