<svg preserveAspectRatio="none" width="100%" height="100%" overflow="visible" style="display: block;" viewBox="0 0 24 24" fill="none" xmlns="http://www.w3.org/2000/svg">
<g id="tab_icon_me_nor_white">
<g id="Me Icon Part 1">
</g>
<path id="Subtract" d="M12 1C18.0751 1 23 5.92487 23 12C23 18.0751 18.0751 23 12 23C5.92487 23 1 18.0751 1 12C1 5.92487 5.92487 1 12 1ZM8.31934 8.68945C7.9313 8.29646 7.29827 8.29165 6.90527 8.67969C6.319 9.25857 6 10.1138 6 11C6.00002 11.8859 6.31927 12.7405 6.90527 13.3193C7.29824 13.7073 7.93129 13.7035 8.31934 13.3105C8.70738 12.9176 8.70354 12.2845 8.31055 11.8965C8.1589 11.7466 8.00002 11.432 8 11C8 10.568 8.15892 10.2534 8.31055 10.1035C8.70354 9.71548 8.70737 9.08245 8.31934 8.68945ZM15.3193 8.68945C14.9313 8.29646 14.2983 8.29165 13.9053 8.67969C13.319 9.25857 13 10.1138 13 11C13 11.8859 13.3193 12.7405 13.9053 13.3193C14.2982 13.7073 14.9313 13.7035 15.3193 13.3105C15.7074 12.9176 15.7035 12.2845 15.3105 11.8965C15.1589 11.7466 15 11.432 15 11C15 10.568 15.1589 10.2534 15.3105 10.1035C15.7035 9.71548 15.7074 9.08245 15.3193 8.68945Z" fill="var(--fill-0, #141E2B)" fill-opacity="0.3"/>
</g>
</svg>
