<svg preserveAspectRatio="none" width="100%" height="100%" overflow="visible" style="display: block;" viewBox="0 0 22.5 20.5" fill="none" xmlns="http://www.w3.org/2000/svg">
<g id="Scan Icon Container">
<path id="Subtract" d="M12.5732 0C14.0744 0.000110629 15.4468 0.848714 16.1182 2.19141C16.3661 2.68691 16.8727 2.99989 17.4268 3H18.25C20.5972 3 22.5 4.90279 22.5 7.25V16.25C22.5 18.5972 20.5972 20.5 18.25 20.5H4.25C1.90279 20.5 2.41596e-08 18.5972 0 16.25V7.25C0 4.90279 1.90279 3 4.25 3H5.07324C5.62732 2.99989 6.1339 2.68691 6.38184 2.19141C7.05318 0.848714 8.4256 0.000110561 9.92676 0H12.5732ZM11.25 6.75C8.48857 6.75 6.25 8.98857 6.25 11.75C6.25 14.5114 8.48857 16.75 11.25 16.75C14.0114 16.75 16.25 14.5114 16.25 11.75C16.25 8.98857 14.0114 6.75 11.25 6.75ZM11.25 8.75C12.9069 8.75 14.25 10.0931 14.25 11.75C14.25 13.4069 12.9069 14.75 11.25 14.75C9.59313 14.75 8.25 13.4069 8.25 11.75C8.25 10.0931 9.59313 8.75 11.25 8.75Z" fill="var(--fill-0, #007AFF)"/>
</g>
</svg>
