<svg preserveAspectRatio="none" width="100%" height="100%" overflow="visible" style="display: block;" viewBox="0 0 24 24" fill="none" xmlns="http://www.w3.org/2000/svg">
<g id="tab_icon_Tutor_sele">
<g id="History Icon Part 2">
</g>
<path id="Subtract" d="M4.84961 1C7.12096 1 9.31743 1.81288 11.042 3.29102C11.3053 3.51669 11.6947 3.51669 11.958 3.29102C13.6826 1.81288 15.879 1 18.1504 1H18.3633C20.9241 1 23 3.07593 23 5.63672V18C23 19.6569 21.6569 21 20 21H15.7969C15.4489 21 15.1068 21.091 14.8047 21.2637L12.4922 22.585C11.8774 22.9362 11.1226 22.9362 10.5078 22.585L8.19531 21.2637C7.89315 21.091 7.55113 21 7.20312 21H3C1.34315 21 8.05319e-09 19.6569 0 18V5.63672C1.99722e-06 3.07593 2.07593 1 4.63672 1H4.84961ZM9.57227 7C9.2879 7.00005 9.01553 7.11337 8.81445 7.31445C8.61337 7.51553 8.50005 7.7879 8.5 8.07227V14.9277C8.50003 15.1191 8.55136 15.3068 8.64844 15.4717C8.7456 15.6366 8.8853 15.7724 9.05273 15.8652C9.22017 15.958 9.40922 16.005 9.60059 16C9.79191 15.995 9.97832 15.9383 10.1406 15.8369L15.624 12.4092C15.7783 12.3128 15.906 12.1786 15.9941 12.0195C16.0822 11.8605 16.1279 11.6818 16.1279 11.5C16.1279 11.3183 16.0822 11.1395 15.9941 10.9805C15.906 10.8214 15.7783 10.6872 15.624 10.5908L10.1406 7.16309C9.97021 7.05661 9.77321 7 9.57227 7Z" fill="var(--fill-0, #007AFF)"/>
</g>
</svg>
