<svg preserveAspectRatio="none" width="100%" height="100%" overflow="visible" style="display: block;" viewBox="0 0 24 24" fill="none" xmlns="http://www.w3.org/2000/svg">
<g id="Icon_thinking2">
<g id="Vector" filter="url(#filter0_i_0_52)">
<path d="M12.2126 21.9795C12.3958 21.9386 12.5635 21.8464 12.6962 21.7136C12.8289 21.5809 12.9211 21.413 12.962 21.2298L13.2306 20.0146C13.5995 18.3567 14.433 16.8384 15.6335 15.6375C16.834 14.4367 18.3517 13.603 20.0088 13.2343L21.2219 12.9655C21.4424 12.9175 21.6397 12.7955 21.7813 12.6197C21.9228 12.444 22 12.2251 22 11.9994C22 11.7736 21.9228 11.5547 21.7813 11.379C21.6397 11.2032 21.4424 11.0812 21.2219 11.0332L20.0102 10.7672C18.3528 10.398 16.835 9.56359 15.6347 8.36194C14.4345 7.16028 13.6015 5.64116 13.2334 3.98269L12.962 2.76895C12.9122 2.55052 12.7897 2.35548 12.6147 2.21578C12.4396 2.07608 12.2223 2 11.9984 2C11.7745 2 11.5572 2.07608 11.3821 2.21578C11.2071 2.35548 11.0846 2.55052 11.0348 2.76895L10.7634 3.98552C10.394 5.64225 9.56057 7.15943 8.36066 8.35946C7.16075 9.55949 5.644 10.3927 3.98797 10.7616L2.77484 11.0275C2.55513 11.0761 2.35858 11.1983 2.21768 11.3739C2.07679 11.5494 2 11.7679 2 11.993C2 12.2181 2.07679 12.4365 2.21768 12.6121C2.35858 12.7877 2.55513 12.9098 2.77484 12.9585L3.98797 13.2301C5.64491 13.5995 7.1623 14.4337 8.3623 15.6351C9.56229 16.8365 10.3952 18.3552 10.7634 20.0132L11.0348 21.2269C11.0919 21.4825 11.248 21.7049 11.4688 21.8454C11.6896 21.986 11.9571 22.0332 12.2126 21.9767V21.9795Z" fill="var(--fill-0, #007AFF)"/>
</g>
</g>
<defs>
<filter id="filter0_i_0_52" x="2" y="2" width="20" height="21" filterUnits="userSpaceOnUse" color-interpolation-filters="sRGB">
<feFlood flood-opacity="0" result="BackgroundImageFix"/>
<feBlend mode="normal" in="SourceGraphic" in2="BackgroundImageFix" result="shape"/>
<feColorMatrix in="SourceAlpha" type="matrix" values="0 0 0 0 0 0 0 0 0 0 0 0 0 0 0 0 0 0 127 0" result="hardAlpha"/>
<feOffset dy="1"/>
<feGaussianBlur stdDeviation="2"/>
<feComposite in2="hardAlpha" operator="arithmetic" k2="-1" k3="1"/>
<feColorMatrix type="matrix" values="0 0 0 0 0.194336 0 0 0 0 0.758301 0 0 0 0 1 0 0 0 1 0"/>
<feBlend mode="normal" in2="shape" result="effect1_innerShadow_0_52"/>
</filter>
</defs>
</svg>
