<svg preserveAspectRatio="none" width="100%" height="100%" overflow="visible" style="display: block;" viewBox="0 0 16.6667 16.6667" fill="none" xmlns="http://www.w3.org/2000/svg">
<g id="group">
<g id="Vector">
</g>
<path id="Vector_2" fill-rule="evenodd" clip-rule="evenodd" d="M6.60761 1.48731C6.82205 1.00186 7.37551 0.561425 8.07387 0.692288C9.14168 0.891396 10.2754 1.67798 10.3551 2.95354L10.3595 3.09706V4.85597H12.1017C12.5142 4.85595 12.9219 4.94145 13.2977 5.10677C13.6734 5.27208 14.0084 5.5134 14.2804 5.81457C14.5524 6.11575 14.755 6.46985 14.8748 6.8532C14.9945 7.23654 15.0286 7.6403 14.9748 8.03748L14.9531 8.17397L14.2938 11.6918C14.177 12.3166 13.8459 12.8846 13.3546 13.3036C12.8632 13.7225 12.2404 13.9678 11.5874 13.9995L11.4432 14.0023H3.83956C3.28521 14.0023 2.75181 13.7966 2.34849 13.4273C1.94516 13.0579 1.7024 12.5529 1.66988 12.0154L1.66626 11.8916V7.67022C1.66623 7.13184 1.87803 6.61381 2.25833 6.2221C2.63862 5.8304 3.15867 5.59463 3.71206 5.56305L3.83956 5.55953H4.8103L6.60761 1.48731ZM4.56399 6.96666H3.83956C3.64743 6.96666 3.46316 7.04078 3.32731 7.17272C3.19145 7.30467 3.11513 7.48362 3.11513 7.67022V11.8916C3.11513 12.0782 3.19145 12.2571 3.32731 12.3891C3.46316 12.521 3.64743 12.5952 3.83956 12.5952H4.56399V6.96666ZM7.91449 2.09801L6.07153 6.27505C6.04578 6.33324 6.02824 6.39453 6.01938 6.45728L6.01286 6.55155V12.5952H11.4432C11.7626 12.5952 12.0731 12.4927 12.3264 12.3036C12.5796 12.1145 12.7614 11.8495 12.8435 11.5497L12.8689 11.4399L13.5281 7.92209C13.5645 7.72791 13.5585 7.52845 13.5104 7.33668C13.4622 7.14491 13.3731 6.96512 13.2488 6.80899C13.1244 6.65286 12.9676 6.52388 12.7886 6.43044C12.6096 6.337 12.4123 6.28118 12.2097 6.26661L12.1017 6.26309H10.3595C9.99392 6.26321 9.64185 6.12913 9.37383 5.88775C9.1058 5.64636 8.94162 5.3155 8.91421 4.9615L8.91059 4.85597V3.09706C8.91059 2.70799 8.59618 2.31189 8.03764 2.13318L7.91449 2.09801Z" fill="var(--fill-0, #989B9E)"/>
</g>
</svg>
