<svg preserveAspectRatio="none" width="100%" height="100%" overflow="visible" style="display: block;" viewBox="0 0 20 20" fill="none" xmlns="http://www.w3.org/2000/svg">
<g id="group">
<g id="Vector">
</g>
<path id="Vector_2" fill-rule="evenodd" clip-rule="evenodd" d="M7.92914 2.98302C8.18646 2.40047 8.85062 1.87195 9.68864 2.02899C10.97 2.26792 12.3305 3.21182 12.4261 4.74249L12.4313 4.91472V7.02541H14.5221C15.017 7.02538 15.5063 7.12799 15.9572 7.32636C16.4081 7.52474 16.8101 7.81432 17.1365 8.17573C17.4629 8.53714 17.706 8.96206 17.8497 9.42208C17.9934 9.88209 18.0344 10.3666 17.9698 10.8432L17.9437 11.007L17.1526 15.2284C17.0124 15.9781 16.6151 16.6598 16.0255 17.1625C15.4359 17.6653 14.6885 17.9596 13.9048 17.9976L13.7318 18.001H4.60747C3.94226 18.001 3.30217 17.7542 2.81818 17.311C2.33419 16.8678 2.04288 16.2617 2.00386 15.6167L1.99951 15.4682V10.4025C1.99947 9.75646 2.25364 9.13481 2.70999 8.66477C3.16635 8.19472 3.7904 7.9118 4.45447 7.8739L4.60747 7.86968H5.77236L7.92914 2.98302ZM5.47679 9.55823H4.60747C4.37691 9.55823 4.1558 9.64718 3.99277 9.80551C3.82974 9.96384 3.73815 10.1786 3.73815 10.4025V15.4682C3.73815 15.6921 3.82974 15.9068 3.99277 16.0651C4.1558 16.2235 4.37691 16.3124 4.60747 16.3124H5.47679V9.55823ZM9.49739 3.71585L7.28584 8.72831C7.25494 8.79813 7.23389 8.87168 7.22325 8.94697L7.21543 9.06011V16.3124H13.7318C14.1152 16.3125 14.4878 16.1895 14.7917 15.9626C15.0955 15.7357 15.3137 15.4176 15.4122 15.0578L15.4427 14.9261L16.2337 10.7048C16.2775 10.4717 16.2702 10.2324 16.2124 10.0023C16.1547 9.77213 16.0477 9.55639 15.8985 9.36903C15.7493 9.18167 15.5612 9.0269 15.3463 8.91477C15.1315 8.80264 14.8948 8.73566 14.6516 8.71818L14.5221 8.71396H12.4313C11.9927 8.71409 11.5702 8.5532 11.2486 8.26354C10.927 7.97387 10.7299 7.57685 10.6971 7.15205L10.6927 7.02541V4.91472C10.6927 4.44783 10.3154 3.97251 9.64517 3.75806L9.49739 3.71585Z" fill="var(--fill-0, #595C60)"/>
</g>
</svg>
