<svg preserveAspectRatio="none" width="100%" height="100%" overflow="visible" style="display: block;" viewBox="0 0 20 20" fill="none" xmlns="http://www.w3.org/2000/svg">
<g id="group">
<g id="Vector">
</g>
<path id="Vector_2" fill-rule="evenodd" clip-rule="evenodd" d="M7.92914 17.018C8.18646 17.6005 8.85062 18.129 9.68864 17.972C10.97 17.7331 12.3305 16.7892 12.4261 15.2585L12.4313 15.0863V12.9756H14.5221C15.017 12.9756 15.5063 12.873 15.9572 12.6746C16.4081 12.4762 16.8101 12.1867 17.1365 11.8252C17.4629 11.4638 17.706 11.0389 17.8497 10.5789C17.9934 10.1189 18.0344 9.63437 17.9698 9.15776L17.9437 8.99397L17.1526 4.7726C17.0124 4.02285 16.6151 3.3412 16.0255 2.83845C15.4359 2.3357 14.6885 2.0414 13.9048 2.00338L13.7318 2H4.60747C3.94226 1.99996 3.30217 2.2468 2.81818 2.69001C2.33419 3.13322 2.04288 3.7393 2.00386 4.38423L1.99951 4.53282V9.59847C1.99947 10.2445 2.25364 10.8662 2.70999 11.3362C3.16635 11.8063 3.7904 12.0892 4.45447 12.1271L4.60747 12.1313H5.77236L7.92914 17.018ZM5.47679 10.4427H4.60747C4.37691 10.4427 4.1558 10.3538 3.99277 10.1955C3.82974 10.0371 3.73815 9.82239 3.73815 9.59847V4.53282C3.73815 4.30891 3.82974 4.09416 3.99277 3.93583C4.1558 3.7775 4.37691 3.68855 4.60747 3.68855H5.47679V10.4427ZM9.49739 16.2851L7.28584 11.2727C7.25494 11.2028 7.23389 11.1293 7.22325 11.054L7.21543 10.9409V3.68855H13.7318C14.1152 3.68852 14.4878 3.81151 14.7917 4.03841C15.0955 4.2653 15.3137 4.58337 15.4122 4.94314L15.4427 5.07485L16.2337 9.29622C16.2775 9.52925 16.2702 9.7686 16.2124 9.99872C16.1547 10.2288 16.0477 10.4446 15.8985 10.6319C15.7493 10.8193 15.5612 10.9741 15.3463 11.0862C15.1315 11.1983 14.8948 11.2653 14.6516 11.2828L14.5221 11.287H12.4313C11.9927 11.2869 11.5702 11.4478 11.2486 11.7374C10.927 12.0271 10.7299 12.4241 10.6971 12.8489L10.6927 12.9756V15.0863C10.6927 15.5531 10.3154 16.0285 9.64517 16.2429L9.49739 16.2851Z" fill="var(--fill-0, #595C60)"/>
</g>
</svg>
