<svg width="22" height="22" viewBox="0 0 22 22" fill="none" xmlns="http://www.w3.org/2000/svg">
<path d="M11 0C17.0751 0 22 4.92487 22 11C22 17.0751 17.0751 22 11 22C4.92487 22 0 17.0751 0 11C0 4.92487 4.92487 0 11 0ZM7.31934 7.68945C6.9313 7.29646 6.29827 7.29165 5.90527 7.67969C5.319 8.25857 5 9.11384 5 10C5.00002 10.8859 5.31927 11.7405 5.90527 12.3193C6.29824 12.7073 6.93129 12.7035 7.31934 12.3105C7.70738 11.9176 7.70354 11.2845 7.31055 10.8965C7.1589 10.7466 7.00002 10.432 7 10C7 9.568 7.15892 9.25344 7.31055 9.10352C7.70354 8.71548 7.70737 8.08245 7.31934 7.68945ZM14.3193 7.68945C13.9313 7.29646 13.2983 7.29165 12.9053 7.67969C12.319 8.25857 12 9.11384 12 10C12 10.8859 12.3193 11.7405 12.9053 12.3193C13.2982 12.7073 13.9313 12.7035 14.3193 12.3105C14.7074 11.9176 14.7035 11.2845 14.3105 10.8965C14.1589 10.7466 14 10.432 14 10C14 9.568 14.1589 9.25344 14.3105 9.10352C14.7035 8.71548 14.7074 8.08245 14.3193 7.68945Z" fill="#989B9E"/>
</svg>
