<svg width="23" height="21" viewBox="0 0 23 21" fill="none" xmlns="http://www.w3.org/2000/svg">
<g clip-path="url(#clip0_10207_6993)">
<path d="M4.34444 4.34444V5.62222H5.18568V4.34444V3.06667H4.34444V4.34444ZM1.27778 16.6111H2.55556V7.41111H1.27778H0V16.6111H1.27778ZM18.6556 19.6778V18.4H4.34444V19.6778V20.9556H18.6556V19.6778ZM21.7222 7.41111H20.4444V16.6111H21.7222H23V7.41111H21.7222ZM17.8143 4.34444V5.62222H18.6556V4.34444V3.06667H17.8143V4.34444ZM10.1477 1.27778V2.55556H12.8523V1.27778V0H10.1477V1.27778ZM15.3333 2.81111L16.4762 2.23967C15.7899 0.867052 14.387 0 12.8523 0V1.27778V2.55556C13.419 2.55556 13.937 2.87571 14.1905 3.38255L15.3333 2.81111ZM17.8143 4.34444V3.06667C17.2477 3.06667 16.7296 2.74651 16.4762 2.23967L15.3333 2.81111L14.1905 3.38255C14.8768 4.75517 16.2797 5.62222 17.8143 5.62222V4.34444ZM21.7222 7.41111H23C23 5.01174 21.0549 3.06667 18.6556 3.06667V4.34444V5.62222C19.6435 5.62222 20.4444 6.42313 20.4444 7.41111H21.7222ZM18.6556 19.6778V20.9556C21.0549 20.9556 23 19.0105 23 16.6111H21.7222H20.4444C20.4444 17.5991 19.6435 18.4 18.6556 18.4V19.6778ZM1.27778 16.6111H0C0 19.0105 1.94507 20.9556 4.34444 20.9556V19.6778V18.4C3.35647 18.4 2.55556 17.5991 2.55556 16.6111H1.27778ZM4.34444 4.34444V3.06667C1.94507 3.06667 0 5.01174 0 7.41111H1.27778H2.55556C2.55556 6.42313 3.35647 5.62222 4.34444 5.62222V4.34444ZM7.66667 2.81111L8.80955 3.38255C9.06296 2.87571 9.58099 2.55556 10.1477 2.55556V1.27778V0C8.61302 0 7.2101 0.867052 6.52379 2.23967L7.66667 2.81111ZM7.66667 2.81111L6.52379 2.23967C6.27037 2.74651 5.75234 3.06667 5.18568 3.06667V4.34444V5.62222C6.72032 5.62222 8.12324 4.75517 8.80955 3.38255L7.66667 2.81111Z" fill="#989B9E"/>
<path d="M12.8525 1.27734C13.9031 1.27744 14.8632 1.87187 15.333 2.81152C15.8029 3.75115 16.7639 4.34473 17.8145 4.34473H18.6553C20.3489 4.34473 21.7226 5.71748 21.7227 7.41113V16.6113C21.7226 18.3049 20.3488 19.6777 18.6553 19.6777H4.34473C2.65112 19.6777 1.27744 18.3049 1.27734 16.6113V7.41113C1.27736 5.71748 2.65107 4.34473 4.34473 4.34473H5.18555C6.23614 4.34473 7.19709 3.75116 7.66699 2.81152C8.13682 1.87186 9.09685 1.27743 10.1475 1.27734H12.8525ZM11.5 6.92188C8.68957 6.92189 6.41127 9.20035 6.41113 12.0107C6.41113 14.8213 8.68949 17.0996 11.5 17.0996C14.3105 17.0996 16.5889 14.8213 16.5889 12.0107C16.5887 9.20034 14.3104 6.92189 11.5 6.92188ZM11.5 8.92188C13.2058 8.92189 14.5887 10.3049 14.5889 12.0107C14.5889 13.7167 13.2059 15.0996 11.5 15.0996C9.79405 15.0996 8.41113 13.7167 8.41113 12.0107C8.41127 10.3049 9.79414 8.92189 11.5 8.92188Z" fill="#989B9E"/>
</g>
<defs>
<clipPath id="clip0_10207_6993">
<rect width="23" height="21" fill="white"/>
</clipPath>
</defs>
</svg>
