<svg width="18" height="22" viewBox="0 0 18 22" fill="none" xmlns="http://www.w3.org/2000/svg">
<g clip-path="url(#clip0_10207_6978)">
<path d="M14 0C16.2091 0 18 1.79086 18 4V18C18 20.2091 16.2091 22 14 22H4C1.79086 22 0 20.2091 0 18V4C0 1.79086 1.79086 0 4 0H14ZM4.26562 15C3.71334 15 3.26562 15.4477 3.26562 16C3.26562 16.5523 3.71334 17 4.26562 17H14.2031C14.7554 17 15.2031 16.5523 15.2031 16C15.2031 15.4477 14.7554 15 14.2031 15H4.26562ZM4.26562 10C3.71334 10 3.26562 10.4477 3.26562 11C3.26562 11.5523 3.71334 12 4.26562 12H7.86133C8.41361 12 8.86133 11.5523 8.86133 11C8.86133 10.4477 8.41361 10 7.86133 10H4.26562ZM13.7686 3.69629C13.5772 3.01089 12.6262 2.95694 12.3584 3.61621L11.9004 4.74219C11.8133 4.95599 11.6325 5.11758 11.4102 5.17969L10.2402 5.50684C9.55476 5.69827 9.50079 6.6492 10.1602 6.91699L11.2852 7.37402C11.4992 7.46094 11.6614 7.64183 11.7236 7.86426L12.0508 9.03516C12.2425 9.71987 13.192 9.77382 13.46 9.11523L13.918 7.98926C14.005 7.7752 14.1857 7.61293 14.4082 7.55078L15.5781 7.22461C16.2635 7.03318 16.3176 6.08224 15.6582 5.81445L14.5332 5.35742C14.3191 5.27048 14.1569 5.08875 14.0947 4.86621L13.7686 3.69629Z" fill="#007AFF"/>
</g>
<defs>
<clipPath id="clip0_10207_6978">
<rect width="18" height="22" fill="white"/>
</clipPath>
</defs>
</svg>
