<svg preserveAspectRatio="none" width="100%" height="100%" overflow="visible" style="display: block;" viewBox="0 0 24 24" fill="none" xmlns="http://www.w3.org/2000/svg">
<g id="Icon Grid">
<g clip-path="url(#clip0_0_21)">
<path id="Union" d="M20.8837 3.11595C21.3719 3.60411 21.3719 4.39556 20.8837 4.88372L13.765 12.0024L20.4356 18.6785C20.9233 19.1669 20.9224 19.9584 20.4342 20.4463C19.9459 20.934 19.155 20.9336 18.6671 20.4456L11.9972 13.7702L5.32737 20.4401C4.83921 20.9282 4.04775 20.9282 3.5596 20.4401C3.07159 19.9519 3.07152 19.1604 3.5596 18.6723L10.2302 12.0017L3.11628 4.88372C2.62831 4.39541 2.628 3.60394 3.11628 3.11595C3.60461 2.62797 4.39675 2.62832 4.88474 3.11664L11.9979 10.234L19.116 3.11595C19.6041 2.62784 20.3956 2.62794 20.8837 3.11595Z" fill="white"/>
</g>
</g>
<defs>
<clipPath id="clip0_0_21">
<rect width="24" height="24" rx="6" fill="white"/>
</clipPath>
</defs>
</svg>
