<svg width="56" height="13" viewBox="0 0 56 13" fill="none" xmlns="http://www.w3.org/2000/svg">
<path fill-rule="evenodd" clip-rule="evenodd" d="M56 0.00194945C53.9596 0.00194927 51.9198 -0.00655192 49.8794 0.0119501C47.9265 0.0299521 45.7408 0.0554549 43.8403 0.657026C41.7874 1.3071 40.4283 2.44374 39.0609 3.7814C38.0764 4.74351 36.1426 6.79626 35.201 7.78738C34.4303 8.59997 32.9218 10.2062 32.0981 10.9833C31.0612 11.9609 29.7796 13 27.9994 13C26.2193 13 24.9382 11.9609 23.9019 10.9843C23.0782 10.2077 21.5697 8.60047 20.7984 7.78837C19.858 6.79726 17.9242 4.74451 16.9391 3.7824C15.5693 2.44474 14.2126 1.3081 12.1603 0.658024C10.2592 0.0579521 8.07292 0.0309487 6.12124 0.0129464C4.08023 -0.00555598 2.04041 0.00294485 1.07263e-06 0.00294467" fill="#F0F1F4"/>
</svg>
