<svg width="16" height="16" viewBox="0 0 16 16" fill="none" xmlns="http://www.w3.org/2000/svg">
<g clip-path="url(#clip0_1490_15731)">
<path fill-rule="evenodd" clip-rule="evenodd" d="M8.82157 0.905893C9.24291 0.400559 10.0636 0.745893 9.99691 1.40056L9.52624 5.99923H13.3336C13.4602 5.99927 13.5843 6.03541 13.6912 6.10341C13.7981 6.1714 13.8833 6.26844 13.9371 6.38316C13.9908 6.49788 14.0107 6.62554 13.9945 6.75117C13.9783 6.87681 13.9266 6.99523 13.8456 7.09256L7.17891 15.0926C6.75757 15.5979 5.93691 15.2526 6.00357 14.5979L6.47424 9.99923H2.66691C2.54023 9.99918 2.41619 9.96304 2.30931 9.89505C2.20243 9.82705 2.11713 9.73001 2.06341 9.61529C2.00969 9.50057 1.98976 9.37292 2.00597 9.24728C2.02217 9.12165 2.07383 9.00323 2.15491 8.90589L8.82157 0.905893Z" fill="#F6A507"/>
</g>
<defs>
<clipPath id="clip0_1490_15731">
<rect width="16" height="16" fill="white"/>
</clipPath>
</defs>
</svg>
