<svg width="16" height="16" viewBox="0 0 16 16" fill="none" xmlns="http://www.w3.org/2000/svg">
<path d="M7.99945 2.70703C7.11066 2.70723 6.24242 2.97441 5.50728 3.47393C4.77215 3.97345 4.20402 4.68228 3.87654 5.50853C3.54906 6.33478 3.47734 7.24035 3.67067 8.10785C3.864 8.97535 4.31346 9.76478 4.9608 10.3738C5.20887 10.5905 5.40973 10.8559 5.55091 11.1535C5.69208 11.4511 5.77056 11.7746 5.78146 12.1038V12.3182C5.78146 12.4153 5.80058 12.5114 5.83774 12.6011C5.87489 12.6908 5.92935 12.7723 5.998 12.841C6.06666 12.9096 6.14816 12.9641 6.23786 13.0012C6.32756 13.0384 6.4237 13.0575 6.52079 13.0575H9.47812C9.6742 13.0575 9.86225 12.9796 10.0009 12.841C10.1396 12.7023 10.2174 12.5143 10.2174 12.3182V12.126C10.2174 10.1298 12.4354 10.1668 12.4354 7.14296C12.4354 5.96648 11.9681 4.83818 11.1362 4.00628C10.3043 3.17439 9.17595 2.70703 7.99945 2.70703Z" fill="white"/>
<circle cx="1.67461" cy="8.13018" r="0.903614" fill="white"/>
<circle cx="2.57842" cy="3.61065" r="0.903614" fill="white"/>
<circle cx="14.325" cy="8.13018" r="0.903614" fill="white"/>
<circle cx="13.4217" cy="3.61065" r="0.903614" fill="white"/>
<circle cx="8.00029" cy="0.903614" r="0.903614" fill="white"/>
<rect x="6.19287" y="13.5547" width="3.61446" height="1.44578" rx="0.722892" fill="white"/>
</svg>
