<svg width="16" height="16" viewBox="0 0 16 16" fill="none" xmlns="http://www.w3.org/2000/svg">
<path d="M12.7356 13.4856C13.2104 13.0108 13.2104 12.3777 12.7356 11.9029L9.41187 8.57914L12.8939 5.09712C13.3687 4.6223 13.3687 3.83094 12.8939 3.35612C12.4191 2.88129 11.6277 2.88129 11.1529 3.35612L7.67086 6.83813L4.34712 3.51439C3.8723 3.03957 3.23921 3.03957 2.76439 3.51439C2.28957 3.98921 2.28957 4.6223 2.76439 5.09712L6.08813 8.42086L2.60612 11.9029C2.13129 12.3777 2.13129 13.1691 2.60612 13.6439C3.08094 14.1187 3.8723 14.1187 4.34712 13.6439L7.82914 10.1619L11.1529 13.4856C11.6277 13.9604 12.2608 13.9604 12.7356 13.4856Z" fill="#F6A507"/>
</svg>
