<svg width="289" height="32" viewBox="0 0 289 32" fill="none" xmlns="http://www.w3.org/2000/svg">
<path d="M262.939 15.4075C263.268 17.194 263.061 19.0273 262.34 20.7176C261.33 22.3296 259.892 23.6906 258.155 24.6785L262.311 28.5C265.532 27.3393 267.707 25.7028 268.834 23.5903C269.965 21.5011 270.245 19.0027 270.139 15.4162V4.5H258V15.4075H262.939ZM279.147 20.7089C278.138 22.3209 276.7 23.6819 274.962 24.6698L279.108 28.4913C282.33 27.3306 284.505 25.6941 285.632 23.5816C286.763 21.4924 287.043 18.994 286.995 15.4075V4.5H274.836V15.4075H279.746C280.074 17.1912 279.867 19.0213 279.147 20.7089Z" fill="#E6E8EA"/>
</svg>
